G04*
G04 #@! TF.GenerationSoftware,Altium Limited,Altium Designer,26.2.0 (7)*
G04*
G04 Layer_Color=32896*
%FSLAX44Y44*%
%MOMM*%
G71*
G04*
G04 #@! TF.SameCoordinates,C05E1424-3D58-4440-9ACD-986F6C812262*
G04*
G04*
G04 #@! TF.FilePolarity,Positive*
G04*
G01*
G75*
%ADD10C,0.2000*%
G36*
X133039Y-6994D02*
X133196Y-7022D01*
X133335Y-7040D01*
X133464Y-7077D01*
X133575Y-7114D01*
X133686Y-7151D01*
X133779Y-7188D01*
X133862Y-7235D01*
X133936Y-7272D01*
X134001Y-7308D01*
X134047Y-7345D01*
X134084Y-7373D01*
X134121Y-7392D01*
X134130Y-7401D01*
X134139Y-7410D01*
X134222Y-7503D01*
X134297Y-7595D01*
X134361Y-7697D01*
X134417Y-7808D01*
X134500Y-8020D01*
X134555Y-8224D01*
X134592Y-8418D01*
X134602Y-8492D01*
X134611Y-8566D01*
X134620Y-8621D01*
Y-8705D01*
X134611Y-8908D01*
X134583Y-9093D01*
X134546Y-9259D01*
X134500Y-9407D01*
X134463Y-9527D01*
X134426Y-9611D01*
X134398Y-9666D01*
X134389Y-9685D01*
X134297Y-9833D01*
X134185Y-9962D01*
X134075Y-10064D01*
X133973Y-10156D01*
X133871Y-10221D01*
X133797Y-10267D01*
X133742Y-10295D01*
X133733Y-10304D01*
X133723D01*
X133538Y-10369D01*
X133344Y-10424D01*
X133132Y-10461D01*
X132928Y-10480D01*
X132753Y-10498D01*
X132678D01*
X132605Y-10507D01*
X132549D01*
X132512D01*
X132484D01*
X132475D01*
X128111D01*
Y-9657D01*
X132521D01*
X132716D01*
X132882Y-9638D01*
X133021Y-9629D01*
X133132Y-9611D01*
X133215Y-9592D01*
X133279Y-9583D01*
X133316Y-9564D01*
X133326D01*
X133418Y-9527D01*
X133492Y-9481D01*
X133557Y-9426D01*
X133622Y-9380D01*
X133659Y-9324D01*
X133695Y-9287D01*
X133714Y-9259D01*
X133723Y-9250D01*
X133770Y-9158D01*
X133806Y-9065D01*
X133825Y-8973D01*
X133843Y-8889D01*
X133853Y-8806D01*
X133862Y-8751D01*
Y-8695D01*
X133853Y-8547D01*
X133816Y-8409D01*
X133779Y-8298D01*
X133723Y-8196D01*
X133677Y-8122D01*
X133631Y-8067D01*
X133603Y-8030D01*
X133594Y-8020D01*
X133538Y-7974D01*
X133474Y-7937D01*
X133326Y-7882D01*
X133159Y-7826D01*
X132993Y-7799D01*
X132836Y-7771D01*
X132771D01*
X132716Y-7761D01*
X132660Y-7752D01*
X132623D01*
X132605D01*
X132595D01*
X132706Y-6985D01*
X132882D01*
X133039Y-6994D01*
D02*
G37*
G36*
X130395Y-12310D02*
X130330Y-12449D01*
X130265Y-12588D01*
X130201Y-12717D01*
X130145Y-12828D01*
X130099Y-12921D01*
X130062Y-12976D01*
X130053Y-12985D01*
Y-12995D01*
X129951Y-13161D01*
X129849Y-13309D01*
X129757Y-13438D01*
X129674Y-13540D01*
X129609Y-13633D01*
X129553Y-13688D01*
X129516Y-13734D01*
X129507Y-13743D01*
X134509D01*
Y-14529D01*
X128083D01*
Y-14021D01*
X128241Y-13928D01*
X128389Y-13827D01*
X128537Y-13706D01*
X128666Y-13595D01*
X128777Y-13484D01*
X128869Y-13401D01*
X128897Y-13364D01*
X128925Y-13337D01*
X128934Y-13327D01*
X128943Y-13318D01*
X129101Y-13124D01*
X129248Y-12930D01*
X129378Y-12745D01*
X129480Y-12560D01*
X129572Y-12403D01*
X129609Y-12338D01*
X129637Y-12283D01*
X129664Y-12236D01*
X129674Y-12199D01*
X129692Y-12181D01*
Y-12172D01*
X130450D01*
X130395Y-12310D01*
D02*
G37*
G36*
X-16961Y104952D02*
X-16804Y104943D01*
X-16656Y104915D01*
X-16517Y104888D01*
X-16388Y104851D01*
X-16268Y104814D01*
X-16157Y104767D01*
X-16055Y104721D01*
X-15963Y104675D01*
X-15889Y104629D01*
X-15824Y104592D01*
X-15769Y104555D01*
X-15722Y104527D01*
X-15695Y104499D01*
X-15676Y104490D01*
X-15667Y104481D01*
X-15574Y104388D01*
X-15491Y104287D01*
X-15408Y104176D01*
X-15343Y104065D01*
X-15232Y103843D01*
X-15158Y103621D01*
X-15131Y103519D01*
X-15103Y103418D01*
X-15084Y103334D01*
X-15066Y103260D01*
X-15057Y103196D01*
Y103149D01*
X-15047Y103122D01*
Y103112D01*
X-15852Y103029D01*
X-15870Y103242D01*
X-15907Y103427D01*
X-15963Y103593D01*
X-16027Y103723D01*
X-16083Y103834D01*
X-16138Y103907D01*
X-16175Y103954D01*
X-16194Y103972D01*
X-16333Y104083D01*
X-16480Y104166D01*
X-16638Y104231D01*
X-16776Y104268D01*
X-16906Y104296D01*
X-17017Y104305D01*
X-17054Y104314D01*
X-17109D01*
X-17303Y104305D01*
X-17479Y104268D01*
X-17627Y104213D01*
X-17756Y104157D01*
X-17858Y104092D01*
X-17923Y104046D01*
X-17969Y104009D01*
X-17988Y103991D01*
X-18098Y103861D01*
X-18182Y103732D01*
X-18246Y103602D01*
X-18283Y103473D01*
X-18311Y103371D01*
X-18320Y103279D01*
X-18330Y103223D01*
Y103214D01*
Y103205D01*
X-18311Y103038D01*
X-18274Y102863D01*
X-18209Y102706D01*
X-18145Y102558D01*
X-18071Y102437D01*
X-18006Y102336D01*
X-17988Y102299D01*
X-17969Y102271D01*
X-17951Y102262D01*
Y102253D01*
X-17877Y102151D01*
X-17784Y102049D01*
X-17682Y101938D01*
X-17572Y101827D01*
X-17340Y101605D01*
X-17109Y101383D01*
X-16989Y101282D01*
X-16887Y101189D01*
X-16786Y101106D01*
X-16702Y101032D01*
X-16638Y100977D01*
X-16582Y100930D01*
X-16545Y100903D01*
X-16536Y100893D01*
X-16305Y100699D01*
X-16092Y100514D01*
X-15917Y100348D01*
X-15778Y100209D01*
X-15658Y100089D01*
X-15574Y100006D01*
X-15528Y99950D01*
X-15510Y99941D01*
Y99932D01*
X-15380Y99775D01*
X-15279Y99627D01*
X-15186Y99479D01*
X-15112Y99349D01*
X-15057Y99239D01*
X-15020Y99155D01*
X-15001Y99100D01*
X-14992Y99091D01*
Y99081D01*
X-14955Y98980D01*
X-14936Y98887D01*
X-14918Y98795D01*
X-14909Y98712D01*
X-14899Y98638D01*
Y98582D01*
Y98545D01*
Y98536D01*
X-19143D01*
Y99294D01*
X-15991D01*
X-16101Y99451D01*
X-16157Y99516D01*
X-16203Y99581D01*
X-16249Y99636D01*
X-16286Y99673D01*
X-16314Y99701D01*
X-16323Y99710D01*
X-16370Y99756D01*
X-16425Y99803D01*
X-16554Y99923D01*
X-16702Y100061D01*
X-16860Y100200D01*
X-17007Y100320D01*
X-17072Y100376D01*
X-17128Y100431D01*
X-17174Y100468D01*
X-17211Y100496D01*
X-17229Y100514D01*
X-17239Y100524D01*
X-17387Y100653D01*
X-17535Y100773D01*
X-17664Y100893D01*
X-17784Y100995D01*
X-17895Y101097D01*
X-17988Y101189D01*
X-18080Y101272D01*
X-18154Y101347D01*
X-18228Y101420D01*
X-18283Y101476D01*
X-18330Y101522D01*
X-18376Y101568D01*
X-18422Y101624D01*
X-18441Y101642D01*
X-18570Y101799D01*
X-18681Y101938D01*
X-18773Y102077D01*
X-18847Y102188D01*
X-18903Y102289D01*
X-18940Y102364D01*
X-18958Y102410D01*
X-18968Y102428D01*
X-19023Y102567D01*
X-19060Y102706D01*
X-19097Y102835D01*
X-19116Y102946D01*
X-19125Y103048D01*
X-19134Y103122D01*
Y103168D01*
Y103186D01*
X-19125Y103325D01*
X-19106Y103455D01*
X-19088Y103584D01*
X-19051Y103695D01*
X-18958Y103917D01*
X-18866Y104092D01*
X-18810Y104176D01*
X-18764Y104240D01*
X-18718Y104305D01*
X-18672Y104351D01*
X-18635Y104388D01*
X-18616Y104425D01*
X-18598Y104434D01*
X-18589Y104444D01*
X-18487Y104536D01*
X-18376Y104619D01*
X-18256Y104684D01*
X-18135Y104740D01*
X-17895Y104832D01*
X-17655Y104897D01*
X-17553Y104915D01*
X-17451Y104934D01*
X-17359Y104943D01*
X-17285Y104952D01*
X-17220Y104962D01*
X-17128D01*
X-16961Y104952D01*
D02*
G37*
G36*
X-8890Y101236D02*
Y101051D01*
X-8899Y100875D01*
X-8908Y100709D01*
X-8927Y100551D01*
X-8945Y100413D01*
X-8964Y100283D01*
X-8992Y100163D01*
X-9010Y100052D01*
X-9029Y99950D01*
X-9056Y99867D01*
X-9075Y99793D01*
X-9093Y99738D01*
X-9112Y99691D01*
X-9121Y99655D01*
X-9130Y99636D01*
Y99627D01*
X-9232Y99423D01*
X-9361Y99239D01*
X-9491Y99091D01*
X-9629Y98961D01*
X-9750Y98859D01*
X-9851Y98785D01*
X-9888Y98767D01*
X-9916Y98749D01*
X-9935Y98730D01*
X-9944D01*
X-10175Y98628D01*
X-10415Y98554D01*
X-10665Y98499D01*
X-10896Y98462D01*
X-10998Y98453D01*
X-11100Y98443D01*
X-11192Y98434D01*
X-11266D01*
X-11331Y98425D01*
X-11414D01*
X-11747Y98443D01*
X-11895Y98462D01*
X-12033Y98480D01*
X-12172Y98508D01*
X-12292Y98536D01*
X-12403Y98564D01*
X-12505Y98601D01*
X-12597Y98638D01*
X-12671Y98665D01*
X-12745Y98693D01*
X-12801Y98721D01*
X-12847Y98749D01*
X-12875Y98758D01*
X-12893Y98776D01*
X-12902D01*
X-13106Y98915D01*
X-13272Y99072D01*
X-13402Y99220D01*
X-13513Y99368D01*
X-13596Y99497D01*
X-13651Y99599D01*
X-13670Y99636D01*
X-13688Y99664D01*
X-13698Y99682D01*
Y99691D01*
X-13735Y99803D01*
X-13772Y99923D01*
X-13827Y100172D01*
X-13864Y100431D01*
X-13892Y100681D01*
X-13901Y100792D01*
X-13910Y100903D01*
Y100995D01*
X-13920Y101078D01*
Y101143D01*
Y101189D01*
Y101226D01*
Y101236D01*
Y104934D01*
X-13069D01*
Y101236D01*
Y101023D01*
X-13050Y100820D01*
X-13032Y100644D01*
X-13004Y100477D01*
X-12976Y100330D01*
X-12939Y100191D01*
X-12912Y100071D01*
X-12875Y99969D01*
X-12838Y99886D01*
X-12801Y99803D01*
X-12764Y99747D01*
X-12736Y99691D01*
X-12708Y99655D01*
X-12690Y99627D01*
X-12681Y99618D01*
X-12671Y99608D01*
X-12588Y99534D01*
X-12496Y99470D01*
X-12292Y99368D01*
X-12080Y99294D01*
X-11858Y99248D01*
X-11654Y99211D01*
X-11571Y99201D01*
X-11488D01*
X-11432Y99192D01*
X-11340D01*
X-11146Y99201D01*
X-10970Y99229D01*
X-10804Y99257D01*
X-10674Y99303D01*
X-10563Y99340D01*
X-10480Y99368D01*
X-10434Y99396D01*
X-10415Y99405D01*
X-10286Y99488D01*
X-10175Y99590D01*
X-10083Y99691D01*
X-10018Y99784D01*
X-9962Y99876D01*
X-9916Y99941D01*
X-9898Y99987D01*
X-9888Y100006D01*
X-9861Y100089D01*
X-9842Y100172D01*
X-9805Y100366D01*
X-9778Y100570D01*
X-9759Y100773D01*
X-9750Y100949D01*
Y101032D01*
X-9740Y101097D01*
Y101152D01*
Y101199D01*
Y101226D01*
Y101236D01*
Y104934D01*
X-8890D01*
Y101236D01*
D02*
G37*
G36*
X-3099Y-98392D02*
X-3228Y-98577D01*
X-3349Y-98743D01*
X-3469Y-98882D01*
X-3570Y-99011D01*
X-3663Y-99104D01*
X-3737Y-99178D01*
X-3783Y-99224D01*
X-3802Y-99242D01*
X-3875Y-99298D01*
X-3959Y-99362D01*
X-4125Y-99464D01*
X-4199Y-99501D01*
X-4255Y-99538D01*
X-4292Y-99557D01*
X-4310Y-99566D01*
X-4144Y-99594D01*
X-3986Y-99621D01*
X-3848Y-99668D01*
X-3709Y-99705D01*
X-3589Y-99751D01*
X-3478Y-99806D01*
X-3376Y-99853D01*
X-3284Y-99899D01*
X-3210Y-99954D01*
X-3136Y-100000D01*
X-3080Y-100037D01*
X-3034Y-100074D01*
X-2997Y-100102D01*
X-2970Y-100130D01*
X-2960Y-100139D01*
X-2951Y-100148D01*
X-2877Y-100241D01*
X-2803Y-100333D01*
X-2692Y-100527D01*
X-2618Y-100722D01*
X-2563Y-100906D01*
X-2526Y-101064D01*
X-2516Y-101128D01*
Y-101193D01*
X-2507Y-101239D01*
Y-101276D01*
Y-101295D01*
Y-101304D01*
X-2516Y-101498D01*
X-2544Y-101674D01*
X-2590Y-101840D01*
X-2637Y-101979D01*
X-2692Y-102099D01*
X-2729Y-102192D01*
X-2766Y-102247D01*
X-2775Y-102256D01*
Y-102266D01*
X-2886Y-102414D01*
X-2997Y-102543D01*
X-3117Y-102654D01*
X-3228Y-102737D01*
X-3330Y-102802D01*
X-3413Y-102839D01*
X-3469Y-102866D01*
X-3478Y-102876D01*
X-3487D01*
X-3570Y-102903D01*
X-3672Y-102931D01*
X-3875Y-102978D01*
X-4097Y-103005D01*
X-4301Y-103033D01*
X-4495Y-103042D01*
X-4578D01*
X-4652Y-103052D01*
X-7620D01*
Y-96653D01*
X-6769D01*
Y-99492D01*
X-5678D01*
X-5577Y-99483D01*
X-5503D01*
X-5438Y-99473D01*
X-5392Y-99464D01*
X-5355D01*
X-5336Y-99455D01*
X-5327D01*
X-5179Y-99409D01*
X-5114Y-99381D01*
X-5059Y-99353D01*
X-5003Y-99326D01*
X-4967Y-99307D01*
X-4948Y-99298D01*
X-4939Y-99289D01*
X-4865Y-99233D01*
X-4791Y-99168D01*
X-4652Y-99030D01*
X-4587Y-98965D01*
X-4541Y-98909D01*
X-4514Y-98872D01*
X-4504Y-98863D01*
X-4412Y-98734D01*
X-4310Y-98595D01*
X-4208Y-98447D01*
X-4107Y-98308D01*
X-4024Y-98179D01*
X-3959Y-98077D01*
X-3931Y-98040D01*
X-3913Y-98013D01*
X-3894Y-97994D01*
Y-97985D01*
X-3053Y-96653D01*
X-1999D01*
X-3099Y-98392D01*
D02*
G37*
G36*
X1459Y-103079D02*
X951D01*
X858Y-102922D01*
X756Y-102774D01*
X636Y-102626D01*
X525Y-102497D01*
X414Y-102386D01*
X331Y-102293D01*
X294Y-102266D01*
X267Y-102238D01*
X257Y-102229D01*
X248Y-102219D01*
X54Y-102062D01*
X-140Y-101914D01*
X-325Y-101785D01*
X-510Y-101683D01*
X-667Y-101591D01*
X-732Y-101554D01*
X-787Y-101526D01*
X-834Y-101498D01*
X-871Y-101489D01*
X-889Y-101470D01*
X-898D01*
Y-100712D01*
X-760Y-100768D01*
X-621Y-100833D01*
X-482Y-100897D01*
X-353Y-100962D01*
X-242Y-101017D01*
X-150Y-101064D01*
X-94Y-101101D01*
X-85Y-101110D01*
X-76D01*
X91Y-101212D01*
X239Y-101313D01*
X368Y-101406D01*
X470Y-101489D01*
X562Y-101554D01*
X618Y-101609D01*
X664Y-101646D01*
X673Y-101655D01*
Y-96653D01*
X1459D01*
Y-103079D01*
D02*
G37*
G36*
X5814Y-96561D02*
X6045Y-96598D01*
X6239Y-96663D01*
X6406Y-96728D01*
X6544Y-96792D01*
X6590Y-96829D01*
X6637Y-96857D01*
X6674Y-96875D01*
X6701Y-96894D01*
X6711Y-96912D01*
X6720D01*
X6886Y-97070D01*
X7025Y-97236D01*
X7145Y-97421D01*
X7238Y-97587D01*
X7312Y-97745D01*
X7349Y-97809D01*
X7367Y-97874D01*
X7386Y-97920D01*
X7404Y-97957D01*
X7413Y-97976D01*
Y-97985D01*
X7460Y-98124D01*
X7497Y-98262D01*
X7552Y-98558D01*
X7598Y-98863D01*
X7626Y-99159D01*
X7635Y-99289D01*
X7645Y-99409D01*
Y-99520D01*
X7654Y-99621D01*
Y-99695D01*
Y-99760D01*
Y-99797D01*
Y-99806D01*
Y-99982D01*
X7645Y-100148D01*
Y-100296D01*
X7635Y-100444D01*
X7617Y-100574D01*
X7607Y-100703D01*
X7598Y-100814D01*
X7580Y-100916D01*
X7570Y-101008D01*
X7552Y-101091D01*
X7543Y-101156D01*
X7534Y-101212D01*
X7524Y-101258D01*
X7515Y-101285D01*
X7506Y-101304D01*
Y-101313D01*
X7450Y-101517D01*
X7386Y-101702D01*
X7312Y-101859D01*
X7256Y-101997D01*
X7192Y-102118D01*
X7154Y-102201D01*
X7117Y-102247D01*
X7108Y-102266D01*
X7006Y-102404D01*
X6905Y-102524D01*
X6794Y-102626D01*
X6692Y-102719D01*
X6600Y-102783D01*
X6526Y-102830D01*
X6479Y-102857D01*
X6470Y-102866D01*
X6461D01*
X6313Y-102941D01*
X6156Y-102987D01*
X6008Y-103024D01*
X5869Y-103052D01*
X5749Y-103070D01*
X5647Y-103079D01*
X5564D01*
X5315Y-103061D01*
X5084Y-103024D01*
X4889Y-102959D01*
X4723Y-102894D01*
X4584Y-102820D01*
X4529Y-102793D01*
X4482Y-102756D01*
X4446Y-102737D01*
X4418Y-102719D01*
X4408Y-102700D01*
X4399D01*
X4233Y-102552D01*
X4094Y-102376D01*
X3974Y-102201D01*
X3882Y-102034D01*
X3808Y-101877D01*
X3771Y-101812D01*
X3752Y-101748D01*
X3734Y-101702D01*
X3715Y-101665D01*
X3706Y-101646D01*
Y-101637D01*
X3669Y-101498D01*
X3632Y-101360D01*
X3576Y-101054D01*
X3530Y-100749D01*
X3503Y-100463D01*
X3493Y-100324D01*
X3484Y-100204D01*
Y-100093D01*
X3475Y-99991D01*
Y-99917D01*
Y-99853D01*
Y-99816D01*
Y-99806D01*
X3484Y-99483D01*
X3503Y-99178D01*
X3530Y-98900D01*
X3576Y-98641D01*
X3623Y-98401D01*
X3678Y-98188D01*
X3734Y-97994D01*
X3789Y-97828D01*
X3844Y-97680D01*
X3909Y-97550D01*
X3956Y-97439D01*
X4002Y-97356D01*
X4048Y-97282D01*
X4076Y-97236D01*
X4094Y-97208D01*
X4103Y-97199D01*
X4205Y-97088D01*
X4316Y-96986D01*
X4436Y-96894D01*
X4557Y-96820D01*
X4677Y-96755D01*
X4797Y-96700D01*
X4917Y-96663D01*
X5028Y-96626D01*
X5139Y-96598D01*
X5241Y-96580D01*
X5333Y-96561D01*
X5407Y-96552D01*
X5472Y-96543D01*
X5564D01*
X5814Y-96561D01*
D02*
G37*
%LPC*%
G36*
X-4865Y-100222D02*
X-6769D01*
Y-102339D01*
X-4754D01*
X-4504Y-102330D01*
X-4292Y-102293D01*
X-4107Y-102247D01*
X-3968Y-102192D01*
X-3848Y-102136D01*
X-3774Y-102090D01*
X-3728Y-102053D01*
X-3709Y-102044D01*
X-3598Y-101924D01*
X-3515Y-101803D01*
X-3460Y-101674D01*
X-3413Y-101563D01*
X-3395Y-101452D01*
X-3386Y-101369D01*
X-3376Y-101313D01*
Y-101304D01*
Y-101295D01*
X-3386Y-101184D01*
X-3404Y-101073D01*
X-3432Y-100980D01*
X-3460Y-100897D01*
X-3496Y-100823D01*
X-3524Y-100768D01*
X-3543Y-100731D01*
X-3552Y-100722D01*
X-3617Y-100629D01*
X-3700Y-100546D01*
X-3783Y-100481D01*
X-3866Y-100426D01*
X-3940Y-100389D01*
X-3996Y-100361D01*
X-4033Y-100343D01*
X-4051Y-100333D01*
X-4181Y-100296D01*
X-4329Y-100268D01*
X-4476Y-100250D01*
X-4624Y-100241D01*
X-4754Y-100232D01*
X-4865Y-100222D01*
D02*
G37*
G36*
X5620Y-97190D02*
X5564D01*
X5462Y-97199D01*
X5370Y-97208D01*
X5194Y-97273D01*
X5037Y-97356D01*
X4899Y-97449D01*
X4797Y-97541D01*
X4714Y-97624D01*
X4667Y-97689D01*
X4649Y-97698D01*
Y-97708D01*
X4584Y-97818D01*
X4529Y-97948D01*
X4473Y-98096D01*
X4436Y-98253D01*
X4399Y-98419D01*
X4372Y-98595D01*
X4325Y-98956D01*
X4307Y-99122D01*
X4298Y-99279D01*
X4288Y-99427D01*
Y-99547D01*
X4279Y-99658D01*
Y-99741D01*
Y-99788D01*
Y-99806D01*
X4288Y-100093D01*
X4298Y-100352D01*
X4316Y-100592D01*
X4344Y-100814D01*
X4372Y-101008D01*
X4408Y-101184D01*
X4446Y-101341D01*
X4482Y-101480D01*
X4520Y-101600D01*
X4547Y-101702D01*
X4584Y-101785D01*
X4612Y-101859D01*
X4640Y-101905D01*
X4658Y-101942D01*
X4677Y-101960D01*
Y-101970D01*
X4741Y-102053D01*
X4806Y-102127D01*
X4880Y-102182D01*
X4954Y-102238D01*
X5102Y-102321D01*
X5241Y-102376D01*
X5361Y-102404D01*
X5462Y-102423D01*
X5500Y-102432D01*
X5555D01*
X5657Y-102423D01*
X5758Y-102414D01*
X5851Y-102386D01*
X5934Y-102349D01*
X6091Y-102266D01*
X6230Y-102173D01*
X6332Y-102071D01*
X6415Y-101988D01*
X6443Y-101951D01*
X6461Y-101924D01*
X6479Y-101914D01*
Y-101905D01*
X6544Y-101794D01*
X6600Y-101665D01*
X6655Y-101517D01*
X6692Y-101360D01*
X6729Y-101193D01*
X6757Y-101017D01*
X6803Y-100666D01*
X6822Y-100490D01*
X6831Y-100333D01*
X6840Y-100185D01*
Y-100065D01*
X6849Y-99954D01*
Y-99871D01*
Y-99825D01*
Y-99816D01*
Y-99806D01*
Y-99520D01*
X6831Y-99261D01*
X6812Y-99030D01*
X6794Y-98808D01*
X6766Y-98623D01*
X6729Y-98447D01*
X6692Y-98299D01*
X6665Y-98160D01*
X6628Y-98050D01*
X6590Y-97957D01*
X6563Y-97874D01*
X6526Y-97809D01*
X6507Y-97763D01*
X6489Y-97735D01*
X6470Y-97717D01*
Y-97708D01*
X6396Y-97615D01*
X6322Y-97541D01*
X6248Y-97467D01*
X6174Y-97412D01*
X6017Y-97319D01*
X5879Y-97254D01*
X5749Y-97218D01*
X5657Y-97199D01*
X5620Y-97190D01*
D02*
G37*
%LPD*%
D10*
X120420Y21915D02*
X148820D01*
Y-35885D02*
Y21915D01*
X120420Y-35885D02*
X148820D01*
X120420D02*
Y21915D01*
X32592Y68900D02*
Y127950D01*
X-50372Y68900D02*
X32592D01*
X-50372D02*
Y127950D01*
X32592D01*
X-57520Y-148325D02*
Y-48525D01*
X42280D01*
Y-148325D02*
Y-48525D01*
X-57520Y-148325D02*
X42280D01*
M02*
