G04*
G04 #@! TF.GenerationSoftware,Altium Limited,Altium Designer,26.2.0 (7)*
G04*
G04 Layer_Physical_Order=1*
G04 Layer_Color=255*
%FSLAX44Y44*%
%MOMM*%
G71*
G04*
G04 #@! TF.SameCoordinates,C05E1424-3D58-4440-9ACD-986F6C812262*
G04*
G04*
G04 #@! TF.FilePolarity,Positive*
G04*
G01*
G75*
%ADD12C,0.2540*%
%ADD13R,1.4500X1.4500*%
%ADD14C,1.5700*%
%ADD15R,1.5700X1.5700*%
%ADD16C,1.2500*%
%ADD17R,1.2500X1.2500*%
%ADD18C,1.4500*%
%ADD20C,0.6096*%
G36*
X12446Y208788D02*
X14986Y208280D01*
X26264Y206400D01*
X33020Y205232D01*
X39116Y203804D01*
X50443Y200811D01*
X51702Y200406D01*
X52070D01*
X54864Y199390D01*
X58166Y198374D01*
X61756Y196884D01*
X64770Y196088D01*
X69813Y193954D01*
X73152Y192786D01*
X79237Y189966D01*
X81534Y188722D01*
X85598Y186690D01*
X87376Y185928D01*
X90881Y184048D01*
X92964Y183134D01*
X98298Y180340D01*
X99822Y179070D01*
X100165D01*
X104920Y176056D01*
X106173Y175261D01*
X112141Y171069D01*
X113610Y170547D01*
X118109Y166877D01*
X119380Y166116D01*
X127254Y160020D01*
X136906Y150368D01*
X137414D01*
X149606Y138176D01*
Y137160D01*
X149860D01*
X158750Y128270D01*
X159385Y126365D01*
X159766Y125984D01*
X163576Y122174D01*
X164557Y119599D01*
X170942Y111760D01*
X172466Y107950D01*
X177038Y101854D01*
X178816Y97282D01*
X182626Y91694D01*
X183769Y88519D01*
X184150Y86360D01*
X186436Y84074D01*
X187960Y78994D01*
X189230Y76200D01*
X191262Y70443D01*
X192532Y68072D01*
X193910Y62940D01*
X195834Y59690D01*
X197305Y53321D01*
X199430Y46749D01*
X200660Y43688D01*
X202438Y35306D01*
X202692Y32512D01*
X203614Y26002D01*
X204470Y23876D01*
Y13462D01*
X205740Y12192D01*
Y-6096D01*
X205486Y-6350D01*
Y-26162D01*
X204216Y-27432D01*
Y-39370D01*
X202438Y-41148D01*
Y-51562D01*
X199898Y-54102D01*
Y-61976D01*
X198374Y-63500D01*
Y-69088D01*
X195834Y-72644D01*
X195372Y-75877D01*
X194790Y-76982D01*
X194790D01*
Y-76982D01*
X193940Y-76922D01*
X193940Y-76542D01*
Y-69215D01*
X185420D01*
Y-77735D01*
X192974D01*
X193754Y-77735D01*
X194207Y-78214D01*
Y-78214D01*
X194286Y-79393D01*
X192532Y-82550D01*
X191262Y-88900D01*
X189230Y-93218D01*
X187198Y-98044D01*
X183769Y-104823D01*
X181610Y-109220D01*
X178428Y-115380D01*
X176276Y-119126D01*
X170942Y-126492D01*
X169164Y-130302D01*
X165608Y-136652D01*
X163830Y-137922D01*
X156337Y-147701D01*
X154432Y-149606D01*
X134112Y-169926D01*
X131995Y-171958D01*
X122682Y-179578D01*
X119888Y-181864D01*
X107442Y-190754D01*
X103886Y-192786D01*
X96774Y-197104D01*
X94026Y-198420D01*
X87884Y-201930D01*
X83251Y-203581D01*
X78232Y-206756D01*
X71185Y-209361D01*
X65278Y-211836D01*
X58166Y-214816D01*
X51816Y-216662D01*
X39855Y-220139D01*
X34290Y-221234D01*
X21381Y-223774D01*
X17018Y-224282D01*
X-30734D01*
X-43180Y-223774D01*
X-51816Y-221996D01*
X-65786Y-219202D01*
X-73660Y-216662D01*
X-83566Y-213614D01*
X-93000Y-210423D01*
X-101346Y-206756D01*
X-112776Y-200914D01*
X-117602Y-197866D01*
X-124206Y-195072D01*
X-126746Y-192786D01*
X-138684Y-185166D01*
X-141986Y-182626D01*
X-146050Y-178562D01*
X-152654Y-171958D01*
Y-171196D01*
X-152908D01*
X-185420Y-138684D01*
X-187198Y-136652D01*
X-190500Y-131572D01*
X-192532Y-129032D01*
X-196088Y-123190D01*
Y-121412D01*
X-199390Y-118110D01*
X-202819Y-112649D01*
X-205486Y-106680D01*
Y-103632D01*
X-208788Y-100330D01*
X-210947Y-97155D01*
X-212090Y-93218D01*
Y-89408D01*
X-215138Y-86360D01*
X-216154Y-81026D01*
X-218694Y-76454D01*
X-220980Y-67056D01*
X-222758Y-62230D01*
X-224749Y-51562D01*
X-228346Y-34277D01*
Y-27686D01*
X-228854Y-27178D01*
Y-16510D01*
X-228752Y-14884D01*
X-228346Y-14478D01*
Y9144D01*
X-227584Y9906D01*
Y24130D01*
X-226044Y28447D01*
X-224536Y34544D01*
X-224409Y37465D01*
X-222758Y45974D01*
X-219891Y53321D01*
X-217424Y63500D01*
X-215138Y68580D01*
X-213106Y74930D01*
X-208788Y82691D01*
X-206502Y89154D01*
X-201803Y97409D01*
X-199136Y102108D01*
X-198628D01*
X-193548Y110998D01*
X-181356Y127254D01*
X-180594Y128016D01*
Y129794D01*
X-162814Y147574D01*
X-147574Y162814D01*
X-143891Y164719D01*
X-132588Y173736D01*
X-123320Y177416D01*
X-122174Y179832D01*
X-119380D01*
X-115316Y183896D01*
X-111252D01*
X-108458Y186690D01*
Y187198D01*
X-102616Y191008D01*
X-91694Y195072D01*
X-83312Y198374D01*
X-75692Y200406D01*
X-71773Y201930D01*
X-62950Y203804D01*
X-56642Y205232D01*
X-49318Y206699D01*
X-38862Y208788D01*
X-9398Y209804D01*
X2286D01*
X12446Y208788D01*
D02*
G37*
G36*
X-541040Y1108589D02*
X-542238D01*
Y1109956D01*
X-541040D01*
Y1108589D01*
D02*
G37*
G36*
X-584416Y1109984D02*
X-584318D01*
X-584205Y1109970D01*
X-583937Y1109914D01*
X-583641Y1109843D01*
X-583331Y1109731D01*
X-583021Y1109561D01*
X-582866Y1109463D01*
X-582725Y1109350D01*
X-582711Y1109336D01*
X-582697Y1109322D01*
X-582654Y1109279D01*
X-582612Y1109237D01*
X-582542Y1109167D01*
X-582485Y1109082D01*
X-582330Y1108885D01*
X-582175Y1108631D01*
X-582034Y1108321D01*
X-581907Y1107968D01*
X-581823Y1107574D01*
X-583021Y1107475D01*
Y1107489D01*
X-583035Y1107503D01*
X-583049Y1107588D01*
X-583091Y1107715D01*
X-583148Y1107870D01*
X-583204Y1108039D01*
X-583289Y1108208D01*
X-583387Y1108363D01*
X-583486Y1108490D01*
X-583514Y1108518D01*
X-583571Y1108575D01*
X-583669Y1108659D01*
X-583810Y1108758D01*
X-583993Y1108842D01*
X-584191Y1108927D01*
X-584431Y1108983D01*
X-584684Y1109012D01*
X-584783D01*
X-584896Y1108997D01*
X-585023Y1108969D01*
X-585192Y1108927D01*
X-585361Y1108871D01*
X-585530Y1108800D01*
X-585699Y1108687D01*
X-585727Y1108673D01*
X-585798Y1108617D01*
X-585897Y1108518D01*
X-586023Y1108377D01*
X-586164Y1108208D01*
X-586320Y1108011D01*
X-586460Y1107757D01*
X-586601Y1107475D01*
Y1107461D01*
X-586615Y1107433D01*
X-586630Y1107391D01*
X-586658Y1107334D01*
X-586672Y1107250D01*
X-586700Y1107151D01*
X-586728Y1107038D01*
X-586757Y1106897D01*
X-586799Y1106742D01*
X-586827Y1106573D01*
X-586855Y1106390D01*
X-586869Y1106192D01*
X-586898Y1105967D01*
X-586912Y1105741D01*
X-586926Y1105487D01*
Y1105234D01*
X-586912Y1105248D01*
X-586855Y1105332D01*
X-586757Y1105445D01*
X-586630Y1105586D01*
X-586489Y1105755D01*
X-586305Y1105910D01*
X-586108Y1106065D01*
X-585882Y1106206D01*
X-585868D01*
X-585854Y1106220D01*
X-585770Y1106263D01*
X-585643Y1106305D01*
X-585474Y1106376D01*
X-585276Y1106432D01*
X-585051Y1106474D01*
X-584811Y1106516D01*
X-584557Y1106531D01*
X-584445D01*
X-584360Y1106516D01*
X-584247Y1106502D01*
X-584134Y1106488D01*
X-583993Y1106460D01*
X-583853Y1106418D01*
X-583528Y1106319D01*
X-583359Y1106249D01*
X-583190Y1106150D01*
X-583021Y1106051D01*
X-582837Y1105938D01*
X-582668Y1105798D01*
X-582513Y1105642D01*
X-582499Y1105628D01*
X-582471Y1105600D01*
X-582429Y1105558D01*
X-582386Y1105487D01*
X-582316Y1105389D01*
X-582245Y1105290D01*
X-582175Y1105163D01*
X-582090Y1105022D01*
X-582006Y1104867D01*
X-581935Y1104698D01*
X-581865Y1104501D01*
X-581794Y1104303D01*
X-581752Y1104092D01*
X-581710Y1103852D01*
X-581682Y1103613D01*
X-581668Y1103359D01*
Y1103345D01*
Y1103316D01*
Y1103274D01*
Y1103204D01*
X-581682Y1103119D01*
Y1103035D01*
X-581724Y1102809D01*
X-581766Y1102541D01*
X-581837Y1102259D01*
X-581935Y1101949D01*
X-582076Y1101653D01*
Y1101639D01*
X-582090Y1101625D01*
X-582119Y1101582D01*
X-582147Y1101526D01*
X-582231Y1101385D01*
X-582358Y1101202D01*
X-582513Y1101004D01*
X-582697Y1100807D01*
X-582922Y1100610D01*
X-583162Y1100441D01*
X-583176D01*
X-583190Y1100427D01*
X-583232Y1100398D01*
X-583289Y1100384D01*
X-583430Y1100314D01*
X-583613Y1100243D01*
X-583853Y1100159D01*
X-584120Y1100102D01*
X-584416Y1100046D01*
X-584741Y1100032D01*
X-584811D01*
X-584882Y1100046D01*
X-584994D01*
X-585121Y1100060D01*
X-585262Y1100088D01*
X-585431Y1100130D01*
X-585601Y1100173D01*
X-585798Y1100229D01*
X-585995Y1100300D01*
X-586193Y1100384D01*
X-586404Y1100497D01*
X-586601Y1100624D01*
X-586799Y1100765D01*
X-586996Y1100934D01*
X-587179Y1101131D01*
X-587193Y1101145D01*
X-587222Y1101188D01*
X-587264Y1101244D01*
X-587320Y1101343D01*
X-587405Y1101470D01*
X-587476Y1101611D01*
X-587560Y1101794D01*
X-587645Y1101991D01*
X-587743Y1102231D01*
X-587828Y1102499D01*
X-587898Y1102795D01*
X-587969Y1103119D01*
X-588039Y1103486D01*
X-588082Y1103880D01*
X-588110Y1104303D01*
X-588124Y1104754D01*
Y1104768D01*
Y1104782D01*
Y1104825D01*
Y1104881D01*
X-588110Y1105022D01*
Y1105219D01*
X-588096Y1105445D01*
X-588068Y1105713D01*
X-588039Y1106009D01*
X-587997Y1106333D01*
X-587941Y1106657D01*
X-587870Y1107010D01*
X-587786Y1107348D01*
X-587687Y1107686D01*
X-587560Y1108011D01*
X-587419Y1108321D01*
X-587264Y1108617D01*
X-587081Y1108871D01*
X-587067Y1108885D01*
X-587038Y1108913D01*
X-586982Y1108969D01*
X-586912Y1109054D01*
X-586827Y1109138D01*
X-586714Y1109223D01*
X-586573Y1109336D01*
X-586432Y1109435D01*
X-586263Y1109533D01*
X-586080Y1109646D01*
X-585868Y1109731D01*
X-585657Y1109829D01*
X-585417Y1109900D01*
X-585163Y1109956D01*
X-584896Y1109984D01*
X-584614Y1109998D01*
X-584501D01*
X-584416Y1109984D01*
D02*
G37*
G36*
X-592001D02*
X-591902D01*
X-591789Y1109970D01*
X-591521Y1109914D01*
X-591225Y1109843D01*
X-590915Y1109731D01*
X-590605Y1109561D01*
X-590450Y1109463D01*
X-590309Y1109350D01*
X-590295Y1109336D01*
X-590281Y1109322D01*
X-590238Y1109279D01*
X-590196Y1109237D01*
X-590126Y1109167D01*
X-590069Y1109082D01*
X-589914Y1108885D01*
X-589759Y1108631D01*
X-589618Y1108321D01*
X-589491Y1107968D01*
X-589407Y1107574D01*
X-590605Y1107475D01*
Y1107489D01*
X-590619Y1107503D01*
X-590633Y1107588D01*
X-590676Y1107715D01*
X-590732Y1107870D01*
X-590788Y1108039D01*
X-590873Y1108208D01*
X-590971Y1108363D01*
X-591070Y1108490D01*
X-591098Y1108518D01*
X-591155Y1108575D01*
X-591254Y1108659D01*
X-591394Y1108758D01*
X-591578Y1108842D01*
X-591775Y1108927D01*
X-592015Y1108983D01*
X-592268Y1109012D01*
X-592367D01*
X-592480Y1108997D01*
X-592607Y1108969D01*
X-592776Y1108927D01*
X-592945Y1108871D01*
X-593114Y1108800D01*
X-593283Y1108687D01*
X-593312Y1108673D01*
X-593382Y1108617D01*
X-593481Y1108518D01*
X-593608Y1108377D01*
X-593749Y1108208D01*
X-593904Y1108011D01*
X-594045Y1107757D01*
X-594186Y1107475D01*
Y1107461D01*
X-594200Y1107433D01*
X-594214Y1107391D01*
X-594242Y1107334D01*
X-594256Y1107250D01*
X-594284Y1107151D01*
X-594313Y1107038D01*
X-594341Y1106897D01*
X-594383Y1106742D01*
X-594411Y1106573D01*
X-594439Y1106390D01*
X-594454Y1106192D01*
X-594482Y1105967D01*
X-594496Y1105741D01*
X-594510Y1105487D01*
Y1105234D01*
X-594496Y1105248D01*
X-594439Y1105332D01*
X-594341Y1105445D01*
X-594214Y1105586D01*
X-594073Y1105755D01*
X-593890Y1105910D01*
X-593692Y1106065D01*
X-593467Y1106206D01*
X-593453D01*
X-593438Y1106220D01*
X-593354Y1106263D01*
X-593227Y1106305D01*
X-593058Y1106376D01*
X-592860Y1106432D01*
X-592635Y1106474D01*
X-592395Y1106516D01*
X-592142Y1106531D01*
X-592029D01*
X-591944Y1106516D01*
X-591831Y1106502D01*
X-591719Y1106488D01*
X-591578Y1106460D01*
X-591437Y1106418D01*
X-591113Y1106319D01*
X-590943Y1106249D01*
X-590774Y1106150D01*
X-590605Y1106051D01*
X-590422Y1105938D01*
X-590253Y1105798D01*
X-590098Y1105642D01*
X-590083Y1105628D01*
X-590055Y1105600D01*
X-590013Y1105558D01*
X-589971Y1105487D01*
X-589900Y1105389D01*
X-589830Y1105290D01*
X-589759Y1105163D01*
X-589675Y1105022D01*
X-589590Y1104867D01*
X-589520Y1104698D01*
X-589449Y1104501D01*
X-589379Y1104303D01*
X-589336Y1104092D01*
X-589294Y1103852D01*
X-589266Y1103613D01*
X-589252Y1103359D01*
Y1103345D01*
Y1103316D01*
Y1103274D01*
Y1103204D01*
X-589266Y1103119D01*
Y1103035D01*
X-589308Y1102809D01*
X-589350Y1102541D01*
X-589421Y1102259D01*
X-589520Y1101949D01*
X-589660Y1101653D01*
Y1101639D01*
X-589675Y1101625D01*
X-589703Y1101582D01*
X-589731Y1101526D01*
X-589816Y1101385D01*
X-589942Y1101202D01*
X-590098Y1101004D01*
X-590281Y1100807D01*
X-590506Y1100610D01*
X-590746Y1100441D01*
X-590760D01*
X-590774Y1100427D01*
X-590816Y1100398D01*
X-590873Y1100384D01*
X-591014Y1100314D01*
X-591197Y1100243D01*
X-591437Y1100159D01*
X-591705Y1100102D01*
X-592001Y1100046D01*
X-592325Y1100032D01*
X-592395D01*
X-592466Y1100046D01*
X-592579D01*
X-592705Y1100060D01*
X-592846Y1100088D01*
X-593016Y1100130D01*
X-593185Y1100173D01*
X-593382Y1100229D01*
X-593579Y1100300D01*
X-593777Y1100384D01*
X-593988Y1100497D01*
X-594186Y1100624D01*
X-594383Y1100765D01*
X-594580Y1100934D01*
X-594764Y1101131D01*
X-594778Y1101145D01*
X-594806Y1101188D01*
X-594848Y1101244D01*
X-594905Y1101343D01*
X-594989Y1101470D01*
X-595060Y1101611D01*
X-595144Y1101794D01*
X-595229Y1101991D01*
X-595327Y1102231D01*
X-595412Y1102499D01*
X-595483Y1102795D01*
X-595553Y1103119D01*
X-595624Y1103486D01*
X-595666Y1103880D01*
X-595694Y1104303D01*
X-595708Y1104754D01*
Y1104768D01*
Y1104782D01*
Y1104825D01*
Y1104881D01*
X-595694Y1105022D01*
Y1105219D01*
X-595680Y1105445D01*
X-595652Y1105713D01*
X-595624Y1106009D01*
X-595581Y1106333D01*
X-595525Y1106657D01*
X-595454Y1107010D01*
X-595370Y1107348D01*
X-595271Y1107686D01*
X-595144Y1108011D01*
X-595003Y1108321D01*
X-594848Y1108617D01*
X-594665Y1108871D01*
X-594651Y1108885D01*
X-594623Y1108913D01*
X-594566Y1108969D01*
X-594496Y1109054D01*
X-594411Y1109138D01*
X-594298Y1109223D01*
X-594157Y1109336D01*
X-594016Y1109435D01*
X-593847Y1109533D01*
X-593664Y1109646D01*
X-593453Y1109731D01*
X-593241Y1109829D01*
X-593002Y1109900D01*
X-592748Y1109956D01*
X-592480Y1109984D01*
X-592198Y1109998D01*
X-592085D01*
X-592001Y1109984D01*
D02*
G37*
G36*
X-546030Y1107419D02*
X-545932D01*
X-545833Y1107405D01*
X-545593Y1107362D01*
X-545340Y1107292D01*
X-545072Y1107179D01*
X-544804Y1107038D01*
X-544578Y1106841D01*
X-544550Y1106813D01*
X-544494Y1106728D01*
X-544395Y1106601D01*
X-544353Y1106502D01*
X-544296Y1106404D01*
X-544240Y1106277D01*
X-544198Y1106150D01*
X-544141Y1106009D01*
X-544099Y1105840D01*
X-544071Y1105671D01*
X-544043Y1105473D01*
X-544014Y1105276D01*
Y1105050D01*
Y1100201D01*
X-545213D01*
Y1104642D01*
Y1104656D01*
Y1104670D01*
Y1104754D01*
Y1104881D01*
X-545227Y1105036D01*
X-545241Y1105205D01*
X-545255Y1105375D01*
X-545283Y1105544D01*
X-545325Y1105671D01*
Y1105685D01*
X-545354Y1105727D01*
X-545382Y1105783D01*
X-545424Y1105854D01*
X-545480Y1105938D01*
X-545551Y1106023D01*
X-545636Y1106108D01*
X-545748Y1106192D01*
X-545762Y1106206D01*
X-545805Y1106220D01*
X-545861Y1106249D01*
X-545960Y1106291D01*
X-546059Y1106333D01*
X-546185Y1106361D01*
X-546312Y1106376D01*
X-546467Y1106390D01*
X-546538D01*
X-546594Y1106376D01*
X-546735Y1106361D01*
X-546904Y1106333D01*
X-547102Y1106263D01*
X-547313Y1106178D01*
X-547525Y1106051D01*
X-547722Y1105882D01*
X-547736Y1105854D01*
X-547792Y1105783D01*
X-547877Y1105671D01*
X-547962Y1105501D01*
X-548060Y1105276D01*
X-548131Y1105008D01*
X-548187Y1104684D01*
X-548215Y1104303D01*
Y1100201D01*
X-549414D01*
Y1104782D01*
Y1104797D01*
Y1104825D01*
Y1104853D01*
Y1104909D01*
X-549428Y1105064D01*
X-549456Y1105234D01*
X-549484Y1105431D01*
X-549540Y1105628D01*
X-549611Y1105812D01*
X-549710Y1105981D01*
X-549724Y1105995D01*
X-549766Y1106051D01*
X-549837Y1106108D01*
X-549935Y1106192D01*
X-550062Y1106263D01*
X-550231Y1106333D01*
X-550429Y1106376D01*
X-550668Y1106390D01*
X-550753D01*
X-550852Y1106376D01*
X-550964Y1106361D01*
X-551105Y1106319D01*
X-551274Y1106277D01*
X-551429Y1106206D01*
X-551599Y1106122D01*
X-551613Y1106108D01*
X-551669Y1106065D01*
X-551740Y1106009D01*
X-551838Y1105924D01*
X-551937Y1105812D01*
X-552036Y1105671D01*
X-552134Y1105516D01*
X-552219Y1105332D01*
X-552233Y1105304D01*
X-552247Y1105234D01*
X-552275Y1105121D01*
X-552318Y1104966D01*
X-552360Y1104754D01*
X-552388Y1104501D01*
X-552402Y1104204D01*
X-552416Y1103866D01*
Y1100201D01*
X-553615D01*
Y1107278D01*
X-552543D01*
Y1106263D01*
X-552529Y1106291D01*
X-552487Y1106347D01*
X-552402Y1106446D01*
X-552303Y1106559D01*
X-552177Y1106700D01*
X-552021Y1106841D01*
X-551852Y1106982D01*
X-551655Y1107109D01*
X-551627Y1107123D01*
X-551556Y1107165D01*
X-551443Y1107207D01*
X-551288Y1107278D01*
X-551105Y1107334D01*
X-550894Y1107376D01*
X-550654Y1107419D01*
X-550400Y1107433D01*
X-550274D01*
X-550118Y1107419D01*
X-549949Y1107391D01*
X-549738Y1107348D01*
X-549526Y1107292D01*
X-549315Y1107207D01*
X-549118Y1107094D01*
X-549089Y1107080D01*
X-549033Y1107038D01*
X-548948Y1106968D01*
X-548836Y1106855D01*
X-548723Y1106728D01*
X-548596Y1106573D01*
X-548483Y1106390D01*
X-548399Y1106178D01*
X-548385Y1106192D01*
X-548356Y1106235D01*
X-548314Y1106291D01*
X-548243Y1106376D01*
X-548159Y1106474D01*
X-548060Y1106573D01*
X-547948Y1106686D01*
X-547807Y1106813D01*
X-547651Y1106925D01*
X-547496Y1107038D01*
X-547313Y1107137D01*
X-547116Y1107235D01*
X-546904Y1107320D01*
X-546679Y1107376D01*
X-546453Y1107419D01*
X-546199Y1107433D01*
X-546101D01*
X-546030Y1107419D01*
D02*
G37*
G36*
X-538037Y1100201D02*
X-539235D01*
Y1109956D01*
X-538037D01*
Y1100201D01*
D02*
G37*
G36*
X-541040D02*
X-542238D01*
Y1107278D01*
X-541040D01*
Y1100201D01*
D02*
G37*
G36*
X-558055Y1109984D02*
X-557942Y1109970D01*
X-557801Y1109956D01*
X-557646Y1109928D01*
X-557491Y1109900D01*
X-557125Y1109801D01*
X-556758Y1109660D01*
X-556575Y1109576D01*
X-556392Y1109477D01*
X-556222Y1109350D01*
X-556067Y1109209D01*
X-556053Y1109195D01*
X-556025Y1109181D01*
X-555997Y1109124D01*
X-555941Y1109068D01*
X-555870Y1108997D01*
X-555799Y1108899D01*
X-555729Y1108800D01*
X-555644Y1108673D01*
X-555504Y1108406D01*
X-555363Y1108067D01*
X-555306Y1107898D01*
X-555278Y1107701D01*
X-555250Y1107503D01*
X-555236Y1107292D01*
Y1107264D01*
Y1107193D01*
X-555250Y1107080D01*
X-555264Y1106925D01*
X-555292Y1106756D01*
X-555348Y1106559D01*
X-555405Y1106347D01*
X-555489Y1106136D01*
X-555504Y1106108D01*
X-555532Y1106037D01*
X-555588Y1105924D01*
X-555673Y1105769D01*
X-555785Y1105600D01*
X-555926Y1105389D01*
X-556096Y1105177D01*
X-556293Y1104938D01*
X-556321Y1104909D01*
X-556392Y1104825D01*
X-556462Y1104754D01*
X-556533Y1104684D01*
X-556617Y1104599D01*
X-556730Y1104486D01*
X-556843Y1104374D01*
X-556984Y1104247D01*
X-557125Y1104106D01*
X-557294Y1103951D01*
X-557477Y1103796D01*
X-557674Y1103613D01*
X-557900Y1103429D01*
X-558125Y1103232D01*
X-558140Y1103218D01*
X-558168Y1103190D01*
X-558224Y1103147D01*
X-558295Y1103091D01*
X-558379Y1103006D01*
X-558478Y1102922D01*
X-558703Y1102738D01*
X-558943Y1102527D01*
X-559169Y1102316D01*
X-559366Y1102132D01*
X-559451Y1102062D01*
X-559521Y1101991D01*
X-559535Y1101977D01*
X-559577Y1101935D01*
X-559634Y1101879D01*
X-559704Y1101794D01*
X-559775Y1101695D01*
X-559859Y1101597D01*
X-560029Y1101357D01*
X-555221D01*
Y1100201D01*
X-561692D01*
Y1100215D01*
Y1100272D01*
Y1100356D01*
X-561678Y1100469D01*
X-561664Y1100596D01*
X-561636Y1100737D01*
X-561608Y1100878D01*
X-561551Y1101033D01*
Y1101047D01*
X-561537Y1101061D01*
X-561509Y1101145D01*
X-561452Y1101272D01*
X-561368Y1101441D01*
X-561255Y1101639D01*
X-561114Y1101864D01*
X-560959Y1102090D01*
X-560762Y1102330D01*
Y1102344D01*
X-560733Y1102358D01*
X-560663Y1102442D01*
X-560536Y1102569D01*
X-560353Y1102753D01*
X-560141Y1102964D01*
X-559874Y1103218D01*
X-559549Y1103500D01*
X-559197Y1103796D01*
X-559183Y1103810D01*
X-559126Y1103852D01*
X-559042Y1103923D01*
X-558943Y1104007D01*
X-558816Y1104120D01*
X-558661Y1104247D01*
X-558506Y1104388D01*
X-558323Y1104543D01*
X-557970Y1104881D01*
X-557618Y1105219D01*
X-557449Y1105389D01*
X-557294Y1105558D01*
X-557153Y1105713D01*
X-557040Y1105868D01*
Y1105882D01*
X-557012Y1105896D01*
X-556984Y1105938D01*
X-556955Y1105995D01*
X-556857Y1106150D01*
X-556744Y1106333D01*
X-556645Y1106559D01*
X-556547Y1106798D01*
X-556490Y1107066D01*
X-556462Y1107320D01*
Y1107334D01*
Y1107348D01*
X-556476Y1107433D01*
X-556490Y1107574D01*
X-556533Y1107729D01*
X-556589Y1107926D01*
X-556688Y1108123D01*
X-556814Y1108321D01*
X-556984Y1108518D01*
X-557012Y1108546D01*
X-557082Y1108603D01*
X-557181Y1108673D01*
X-557336Y1108772D01*
X-557533Y1108857D01*
X-557759Y1108941D01*
X-558027Y1108997D01*
X-558323Y1109012D01*
X-558407D01*
X-558464Y1108997D01*
X-558633Y1108983D01*
X-558830Y1108941D01*
X-559042Y1108885D01*
X-559282Y1108786D01*
X-559507Y1108659D01*
X-559719Y1108490D01*
X-559747Y1108462D01*
X-559803Y1108391D01*
X-559888Y1108279D01*
X-559972Y1108109D01*
X-560071Y1107912D01*
X-560155Y1107658D01*
X-560212Y1107376D01*
X-560240Y1107052D01*
X-561466Y1107179D01*
Y1107193D01*
X-561452Y1107235D01*
Y1107306D01*
X-561438Y1107405D01*
X-561410Y1107517D01*
X-561382Y1107644D01*
X-561340Y1107799D01*
X-561297Y1107954D01*
X-561185Y1108293D01*
X-561015Y1108631D01*
X-560917Y1108800D01*
X-560790Y1108969D01*
X-560663Y1109124D01*
X-560522Y1109265D01*
X-560508Y1109279D01*
X-560480Y1109294D01*
X-560437Y1109336D01*
X-560367Y1109378D01*
X-560282Y1109435D01*
X-560184Y1109491D01*
X-560071Y1109561D01*
X-559930Y1109632D01*
X-559775Y1109702D01*
X-559606Y1109773D01*
X-559422Y1109829D01*
X-559225Y1109886D01*
X-559014Y1109928D01*
X-558788Y1109970D01*
X-558548Y1109984D01*
X-558295Y1109998D01*
X-558154D01*
X-558055Y1109984D01*
D02*
G37*
G36*
X-564074Y1103641D02*
X-562749D01*
Y1102541D01*
X-564074D01*
Y1100201D01*
X-565273D01*
Y1102541D01*
X-569516D01*
Y1103641D01*
X-565047Y1109956D01*
X-564074D01*
Y1103641D01*
D02*
G37*
G36*
X-572180Y1100201D02*
X-573378D01*
Y1107828D01*
X-573393Y1107813D01*
X-573463Y1107757D01*
X-573548Y1107672D01*
X-573689Y1107574D01*
X-573844Y1107447D01*
X-574041Y1107306D01*
X-574267Y1107151D01*
X-574520Y1106996D01*
X-574534D01*
X-574548Y1106982D01*
X-574633Y1106925D01*
X-574774Y1106855D01*
X-574943Y1106770D01*
X-575141Y1106672D01*
X-575352Y1106573D01*
X-575564Y1106474D01*
X-575775Y1106390D01*
Y1107545D01*
X-575761D01*
X-575733Y1107574D01*
X-575676Y1107588D01*
X-575606Y1107630D01*
X-575521Y1107672D01*
X-575423Y1107729D01*
X-575183Y1107870D01*
X-574901Y1108025D01*
X-574619Y1108222D01*
X-574323Y1108448D01*
X-574027Y1108687D01*
X-574013Y1108701D01*
X-573999Y1108716D01*
X-573956Y1108758D01*
X-573900Y1108800D01*
X-573773Y1108941D01*
X-573604Y1109110D01*
X-573435Y1109308D01*
X-573252Y1109533D01*
X-573097Y1109759D01*
X-572956Y1109998D01*
X-572180D01*
Y1100201D01*
D02*
G37*
G36*
X-578439D02*
X-579807D01*
Y1101568D01*
X-578439D01*
Y1100201D01*
D02*
G37*
G36*
X-599853Y1109984D02*
X-599740Y1109970D01*
X-599613Y1109956D01*
X-599472Y1109942D01*
X-599331Y1109900D01*
X-598993Y1109815D01*
X-598654Y1109688D01*
X-598485Y1109604D01*
X-598316Y1109505D01*
X-598161Y1109378D01*
X-598006Y1109251D01*
X-597992Y1109237D01*
X-597978Y1109223D01*
X-597935Y1109181D01*
X-597879Y1109124D01*
X-597823Y1109040D01*
X-597752Y1108955D01*
X-597611Y1108744D01*
X-597470Y1108476D01*
X-597343Y1108166D01*
X-597245Y1107813D01*
X-597231Y1107630D01*
X-597216Y1107433D01*
Y1107419D01*
Y1107405D01*
Y1107320D01*
X-597231Y1107193D01*
X-597259Y1107038D01*
X-597301Y1106841D01*
X-597372Y1106643D01*
X-597456Y1106446D01*
X-597583Y1106249D01*
X-597597Y1106220D01*
X-597654Y1106164D01*
X-597738Y1106079D01*
X-597851Y1105967D01*
X-598006Y1105840D01*
X-598189Y1105713D01*
X-598401Y1105586D01*
X-598654Y1105473D01*
X-598640D01*
X-598612Y1105459D01*
X-598570Y1105445D01*
X-598513Y1105417D01*
X-598344Y1105346D01*
X-598147Y1105248D01*
X-597935Y1105107D01*
X-597710Y1104952D01*
X-597498Y1104754D01*
X-597301Y1104529D01*
Y1104515D01*
X-597287Y1104501D01*
X-597231Y1104416D01*
X-597146Y1104275D01*
X-597061Y1104092D01*
X-596977Y1103866D01*
X-596892Y1103598D01*
X-596836Y1103302D01*
X-596822Y1102978D01*
Y1102964D01*
Y1102922D01*
Y1102851D01*
X-596836Y1102767D01*
X-596850Y1102668D01*
X-596864Y1102541D01*
X-596892Y1102400D01*
X-596935Y1102245D01*
X-597033Y1101921D01*
X-597104Y1101738D01*
X-597202Y1101568D01*
X-597301Y1101385D01*
X-597414Y1101216D01*
X-597555Y1101047D01*
X-597710Y1100878D01*
X-597724Y1100864D01*
X-597752Y1100835D01*
X-597794Y1100793D01*
X-597865Y1100751D01*
X-597964Y1100680D01*
X-598062Y1100610D01*
X-598189Y1100539D01*
X-598330Y1100455D01*
X-598485Y1100370D01*
X-598669Y1100300D01*
X-598866Y1100229D01*
X-599063Y1100159D01*
X-599289Y1100116D01*
X-599528Y1100074D01*
X-599768Y1100046D01*
X-600036Y1100032D01*
X-600177D01*
X-600275Y1100046D01*
X-600402Y1100060D01*
X-600543Y1100074D01*
X-600698Y1100102D01*
X-600868Y1100145D01*
X-601248Y1100243D01*
X-601446Y1100314D01*
X-601629Y1100384D01*
X-601826Y1100483D01*
X-602024Y1100596D01*
X-602207Y1100723D01*
X-602376Y1100878D01*
X-602390Y1100892D01*
X-602418Y1100920D01*
X-602461Y1100962D01*
X-602517Y1101033D01*
X-602573Y1101117D01*
X-602658Y1101216D01*
X-602728Y1101329D01*
X-602813Y1101470D01*
X-602898Y1101611D01*
X-602968Y1101780D01*
X-603109Y1102132D01*
X-603165Y1102344D01*
X-603208Y1102555D01*
X-603236Y1102781D01*
X-603250Y1103006D01*
Y1103020D01*
Y1103049D01*
Y1103105D01*
X-603236Y1103161D01*
Y1103246D01*
X-603222Y1103345D01*
X-603194Y1103570D01*
X-603137Y1103824D01*
X-603053Y1104078D01*
X-602926Y1104345D01*
X-602771Y1104599D01*
Y1104613D01*
X-602743Y1104628D01*
X-602686Y1104698D01*
X-602573Y1104811D01*
X-602418Y1104952D01*
X-602221Y1105093D01*
X-601981Y1105248D01*
X-601713Y1105375D01*
X-601389Y1105473D01*
X-601403D01*
X-601417Y1105487D01*
X-601460Y1105501D01*
X-601516Y1105530D01*
X-601643Y1105586D01*
X-601812Y1105671D01*
X-601995Y1105783D01*
X-602179Y1105924D01*
X-602348Y1106079D01*
X-602503Y1106249D01*
X-602517Y1106277D01*
X-602559Y1106333D01*
X-602616Y1106446D01*
X-602672Y1106587D01*
X-602743Y1106770D01*
X-602799Y1106982D01*
X-602841Y1107221D01*
X-602855Y1107475D01*
Y1107489D01*
Y1107517D01*
Y1107574D01*
X-602841Y1107658D01*
X-602827Y1107743D01*
X-602813Y1107856D01*
X-602757Y1108095D01*
X-602672Y1108377D01*
X-602531Y1108673D01*
X-602447Y1108828D01*
X-602348Y1108983D01*
X-602221Y1109124D01*
X-602094Y1109265D01*
X-602080Y1109279D01*
X-602052Y1109294D01*
X-602010Y1109336D01*
X-601953Y1109378D01*
X-601883Y1109435D01*
X-601784Y1109491D01*
X-601671Y1109561D01*
X-601558Y1109632D01*
X-601417Y1109702D01*
X-601262Y1109773D01*
X-601093Y1109829D01*
X-600910Y1109886D01*
X-600515Y1109970D01*
X-600290Y1109984D01*
X-600064Y1109998D01*
X-599937D01*
X-599853Y1109984D01*
D02*
G37*
%LPC*%
G36*
X8520Y189495D02*
X0D01*
Y180975D01*
X8520D01*
Y189495D01*
D02*
G37*
G36*
X-2540D02*
X-11060D01*
Y180975D01*
X-2540D01*
Y189495D01*
D02*
G37*
G36*
X8520Y178435D02*
X0D01*
Y169915D01*
X8520D01*
Y178435D01*
D02*
G37*
G36*
X-2540D02*
X-11060D01*
Y169915D01*
X-2540D01*
Y178435D01*
D02*
G37*
G36*
X-25381Y189495D02*
X-27959D01*
X-30449Y188828D01*
X-32681Y187539D01*
X-34504Y185716D01*
X-35793Y183484D01*
X-36460Y180994D01*
Y178416D01*
X-35793Y175926D01*
X-34504Y173694D01*
X-32681Y171871D01*
X-30449Y170582D01*
X-27959Y169915D01*
X-25381D01*
X-22891Y170582D01*
X-20659Y171871D01*
X-18836Y173694D01*
X-17547Y175926D01*
X-16880Y178416D01*
Y180994D01*
X-17547Y183484D01*
X-18836Y185716D01*
X-20659Y187539D01*
X-22891Y188828D01*
X-25381Y189495D01*
D02*
G37*
G36*
X-105780Y153935D02*
X-114300D01*
Y145415D01*
X-105780D01*
Y153935D01*
D02*
G37*
G36*
X-116840D02*
X-125360D01*
Y145415D01*
X-116840D01*
Y153935D01*
D02*
G37*
G36*
X126630Y152665D02*
X118110D01*
Y144145D01*
X126630D01*
Y152665D01*
D02*
G37*
G36*
X115570D02*
X107050D01*
Y144145D01*
X115570D01*
Y152665D01*
D02*
G37*
G36*
X-105780Y142875D02*
X-114300D01*
Y134355D01*
X-105780D01*
Y142875D01*
D02*
G37*
G36*
X-116840D02*
X-125360D01*
Y134355D01*
X-116840D01*
Y142875D01*
D02*
G37*
G36*
X-139681Y153935D02*
X-142259D01*
X-144749Y153268D01*
X-146981Y151979D01*
X-148804Y150156D01*
X-150093Y147924D01*
X-150760Y145434D01*
Y142856D01*
X-150093Y140366D01*
X-148804Y138134D01*
X-146981Y136311D01*
X-144749Y135022D01*
X-142259Y134355D01*
X-139681D01*
X-137191Y135022D01*
X-134959Y136311D01*
X-133136Y138134D01*
X-131847Y140366D01*
X-131180Y142856D01*
Y145434D01*
X-131847Y147924D01*
X-133136Y150156D01*
X-134959Y151979D01*
X-137191Y153268D01*
X-139681Y153935D01*
D02*
G37*
G36*
X126630Y141605D02*
X118110D01*
Y133085D01*
X126630D01*
Y141605D01*
D02*
G37*
G36*
X115570D02*
X107050D01*
Y133085D01*
X115570D01*
Y141605D01*
D02*
G37*
G36*
X92729Y152665D02*
X90151D01*
X87661Y151998D01*
X85429Y150709D01*
X83606Y148886D01*
X82317Y146654D01*
X81650Y144164D01*
Y141586D01*
X82317Y139096D01*
X83606Y136864D01*
X85429Y135041D01*
X87661Y133752D01*
X90151Y133085D01*
X92729D01*
X95219Y133752D01*
X97451Y135041D01*
X99274Y136864D01*
X100563Y139096D01*
X101230Y141586D01*
Y144164D01*
X100563Y146654D01*
X99274Y148886D01*
X97451Y150709D01*
X95219Y151998D01*
X92729Y152665D01*
D02*
G37*
G36*
X-5080Y117917D02*
Y113665D01*
X-828D01*
X-1613Y115560D01*
X-3185Y117132D01*
X-5080Y117917D01*
D02*
G37*
G36*
X-7620D02*
X-9515Y117132D01*
X-11087Y115560D01*
X-11872Y113665D01*
X-7620D01*
Y117917D01*
D02*
G37*
G36*
X-828Y111125D02*
X-5080D01*
Y106873D01*
X-3185Y107658D01*
X-1613Y109230D01*
X-828Y111125D01*
D02*
G37*
G36*
X-7620D02*
X-11872D01*
X-11087Y109230D01*
X-9515Y107658D01*
X-7620Y106873D01*
Y111125D01*
D02*
G37*
G36*
X196480Y51065D02*
X187960D01*
Y42545D01*
X196480D01*
Y51065D01*
D02*
G37*
G36*
X185420D02*
X176900D01*
Y42545D01*
X185420D01*
Y51065D01*
D02*
G37*
G36*
X-174360Y44715D02*
X-182880D01*
Y36195D01*
X-174360D01*
Y44715D01*
D02*
G37*
G36*
X-185420D02*
X-193940D01*
Y36195D01*
X-185420D01*
Y44715D01*
D02*
G37*
G36*
X196480Y40005D02*
X187960D01*
Y31485D01*
X196480D01*
Y40005D01*
D02*
G37*
G36*
X185420D02*
X176900D01*
Y31485D01*
X185420D01*
Y40005D01*
D02*
G37*
G36*
X162579Y51065D02*
X160001D01*
X157511Y50398D01*
X155279Y49109D01*
X153456Y47286D01*
X152167Y45054D01*
X151500Y42564D01*
Y39986D01*
X152167Y37496D01*
X153456Y35264D01*
X155279Y33441D01*
X157511Y32152D01*
X160001Y31485D01*
X162579D01*
X165069Y32152D01*
X167301Y33441D01*
X169124Y35264D01*
X170413Y37496D01*
X171080Y39986D01*
Y42564D01*
X170413Y45054D01*
X169124Y47286D01*
X167301Y49109D01*
X165069Y50398D01*
X162579Y51065D01*
D02*
G37*
G36*
X-174360Y33655D02*
X-182880D01*
Y25135D01*
X-174360D01*
Y33655D01*
D02*
G37*
G36*
X-185420D02*
X-193940D01*
Y25135D01*
X-185420D01*
Y33655D01*
D02*
G37*
G36*
X-208261Y44715D02*
X-210839D01*
X-213329Y44048D01*
X-215561Y42759D01*
X-217384Y40936D01*
X-218673Y38704D01*
X-219340Y36214D01*
Y33636D01*
X-218673Y31146D01*
X-217384Y28914D01*
X-215561Y27091D01*
X-213329Y25802D01*
X-210839Y25135D01*
X-208261D01*
X-205771Y25802D01*
X-203539Y27091D01*
X-201716Y28914D01*
X-200427Y31146D01*
X-199760Y33636D01*
Y36214D01*
X-200427Y38704D01*
X-201716Y40936D01*
X-203539Y42759D01*
X-205771Y44048D01*
X-208261Y44715D01*
D02*
G37*
G36*
X33020Y20127D02*
Y15875D01*
X37272D01*
X36487Y17770D01*
X34915Y19342D01*
X33020Y20127D01*
D02*
G37*
G36*
X30480D02*
X28585Y19342D01*
X27013Y17770D01*
X26228Y15875D01*
X30480D01*
Y20127D01*
D02*
G37*
G36*
X37272Y13335D02*
X33020D01*
Y9083D01*
X34915Y9868D01*
X36487Y11440D01*
X37272Y13335D01*
D02*
G37*
G36*
X30480D02*
X26228D01*
X27013Y11440D01*
X28585Y9868D01*
X30480Y9083D01*
Y13335D01*
D02*
G37*
G36*
X45561Y98933D02*
X43338D01*
X41285Y98082D01*
X39713Y96510D01*
X38862Y94457D01*
Y92233D01*
X39713Y90180D01*
X40565Y89327D01*
Y23495D01*
X40861Y22008D01*
X41703Y20748D01*
X59182Y3269D01*
Y2063D01*
X60033Y10D01*
X61605Y-1562D01*
X63658Y-2413D01*
X65882D01*
X67935Y-1562D01*
X69507Y10D01*
X70358Y2063D01*
Y4286D01*
X69507Y6340D01*
X67935Y7912D01*
X65882Y8763D01*
X64676D01*
X48335Y25104D01*
Y89327D01*
X49187Y90180D01*
X50038Y92233D01*
Y94457D01*
X49187Y96510D01*
X47615Y98082D01*
X45561Y98933D01*
D02*
G37*
G36*
X145010Y16105D02*
X124230D01*
Y-4675D01*
X145010D01*
Y16105D01*
D02*
G37*
G36*
X135988Y-9295D02*
X135890D01*
Y-18415D01*
X145010D01*
Y-18317D01*
X144302Y-15675D01*
X142934Y-13305D01*
X141000Y-11371D01*
X138630Y-10003D01*
X135988Y-9295D01*
D02*
G37*
G36*
X133350D02*
X133252D01*
X130610Y-10003D01*
X128240Y-11371D01*
X126306Y-13305D01*
X124938Y-15675D01*
X124230Y-18317D01*
Y-18415D01*
X133350D01*
Y-9295D01*
D02*
G37*
G36*
X145010Y-20955D02*
X135890D01*
Y-30075D01*
X135988D01*
X138630Y-29367D01*
X141000Y-27999D01*
X142934Y-26065D01*
X144302Y-23695D01*
X145010Y-21053D01*
Y-20955D01*
D02*
G37*
G36*
X133350D02*
X124230D01*
Y-21053D01*
X124938Y-23695D01*
X126306Y-26065D01*
X128240Y-27999D01*
X130610Y-29367D01*
X133252Y-30075D01*
X133350D01*
Y-20955D01*
D02*
G37*
G36*
X-14431Y108660D02*
X-62230D01*
X-63717Y108364D01*
X-64977Y107522D01*
X-74836Y97663D01*
X-76041D01*
X-78095Y96812D01*
X-79667Y95240D01*
X-80518Y93187D01*
Y90963D01*
X-79667Y88910D01*
X-78815Y88057D01*
Y-15875D01*
X-78519Y-17362D01*
X-77677Y-18622D01*
X-74168Y-22131D01*
Y-23337D01*
X-73317Y-25390D01*
X-71745Y-26962D01*
X-69692Y-27813D01*
X-67469D01*
X-65415Y-26962D01*
X-63843Y-25390D01*
X-62992Y-23337D01*
Y-21114D01*
X-63843Y-19060D01*
X-65415Y-17488D01*
X-67469Y-16637D01*
X-68674D01*
X-71045Y-14266D01*
Y88057D01*
X-70193Y88910D01*
X-69342Y90963D01*
Y92169D01*
X-60621Y100890D01*
X-16040D01*
X-8462Y93312D01*
X-8709Y92066D01*
X-9515Y91732D01*
X-11087Y90160D01*
X-11938Y88106D01*
Y86901D01*
X-23067Y75772D01*
X-23909Y74512D01*
X-24205Y73025D01*
Y-28367D01*
X-25057Y-29220D01*
X-25674Y-30710D01*
X-27081Y-31099D01*
X-30405Y-27775D01*
Y52497D01*
X-29553Y53350D01*
X-28702Y55403D01*
Y57627D01*
X-29553Y59680D01*
X-31125Y61252D01*
X-33179Y62103D01*
X-35401D01*
X-37455Y61252D01*
X-39027Y59680D01*
X-39878Y57627D01*
Y55403D01*
X-39027Y53350D01*
X-38175Y52497D01*
Y-29384D01*
X-37879Y-30870D01*
X-37037Y-32130D01*
X-6274Y-62893D01*
X-6878Y-64085D01*
X-8777D01*
X-11013Y-64684D01*
X-13017Y-65841D01*
X-14654Y-67478D01*
X-15811Y-69482D01*
X-16410Y-71718D01*
Y-74032D01*
X-15811Y-76268D01*
X-14654Y-78272D01*
X-13017Y-79909D01*
X-11013Y-81066D01*
X-8777Y-81665D01*
X-6463D01*
X-4227Y-81066D01*
X-2223Y-79909D01*
X-586Y-78272D01*
X571Y-76268D01*
X1170Y-74032D01*
Y-72133D01*
X2362Y-71529D01*
X10415Y-79582D01*
X11675Y-80424D01*
X13161Y-80720D01*
X17572D01*
X18425Y-81572D01*
X20478Y-82423D01*
X22701D01*
X24755Y-81572D01*
X26327Y-80000D01*
X27178Y-77947D01*
Y-75724D01*
X26327Y-73670D01*
X24755Y-72098D01*
X22701Y-71247D01*
X20478D01*
X18425Y-72098D01*
X17572Y-72950D01*
X14770D01*
X5922Y-64102D01*
X6169Y-62856D01*
X6975Y-62522D01*
X8547Y-60950D01*
X9398Y-58896D01*
Y-56673D01*
X8547Y-54620D01*
X6975Y-53048D01*
X4922Y-52197D01*
X3885D01*
Y53975D01*
X3589Y55462D01*
X2747Y56722D01*
X1331Y58137D01*
X1319Y58182D01*
X1323Y58193D01*
X2763Y58549D01*
X3185Y58128D01*
X5239Y57277D01*
X7462D01*
X9515Y58128D01*
X10922Y59534D01*
X11759Y59380D01*
X12212Y59165D01*
X13043Y57160D01*
X13895Y56307D01*
Y-34717D01*
X13043Y-35570D01*
X12192Y-37624D01*
Y-39846D01*
X13043Y-41900D01*
X14615Y-43472D01*
X16668Y-44323D01*
X18892D01*
X20945Y-43472D01*
X22517Y-41900D01*
X23368Y-39846D01*
Y-37624D01*
X22517Y-35570D01*
X21665Y-34717D01*
Y56307D01*
X22517Y57160D01*
X23368Y59214D01*
Y61437D01*
X22517Y63490D01*
X20945Y65062D01*
X18892Y65913D01*
X16668D01*
X14615Y65062D01*
X13208Y63656D01*
X12371Y63810D01*
X11918Y64025D01*
X11087Y66030D01*
X10235Y66883D01*
Y83994D01*
X9939Y85480D01*
X9097Y86741D01*
X-11684Y107522D01*
X-12945Y108364D01*
X-14431Y108660D01*
D02*
G37*
G36*
X-43688Y-30038D02*
Y-34290D01*
X-39436D01*
X-40221Y-32395D01*
X-41793Y-30823D01*
X-43688Y-30038D01*
D02*
G37*
G36*
X-46228D02*
X-48123Y-30823D01*
X-49695Y-32395D01*
X-50480Y-34290D01*
X-46228D01*
Y-30038D01*
D02*
G37*
G36*
X-39436Y-36830D02*
X-43688D01*
Y-41082D01*
X-41793Y-40297D01*
X-40221Y-38725D01*
X-39436Y-36830D01*
D02*
G37*
G36*
X-46228D02*
X-50480D01*
X-49695Y-38725D01*
X-48123Y-40297D01*
X-46228Y-41082D01*
Y-36830D01*
D02*
G37*
G36*
X193940Y-58155D02*
X185420D01*
Y-66675D01*
X193940D01*
Y-58155D01*
D02*
G37*
G36*
X182880D02*
X174360D01*
Y-66675D01*
X182880D01*
Y-58155D01*
D02*
G37*
G36*
X-56038Y91313D02*
X-58261D01*
X-60315Y90462D01*
X-61887Y88890D01*
X-62738Y86837D01*
Y84614D01*
X-61887Y82560D01*
X-61035Y81707D01*
Y-42545D01*
X-60739Y-44032D01*
X-59897Y-45292D01*
X-38608Y-66581D01*
Y-67786D01*
X-37757Y-69840D01*
X-36185Y-71412D01*
X-34132Y-72263D01*
X-31909D01*
X-29855Y-71412D01*
X-28283Y-69840D01*
X-27432Y-67786D01*
Y-65564D01*
X-28283Y-63510D01*
X-29855Y-61938D01*
X-31909Y-61087D01*
X-33114D01*
X-53265Y-40936D01*
Y81707D01*
X-52413Y82560D01*
X-51562Y84614D01*
Y86837D01*
X-52413Y88890D01*
X-53985Y90462D01*
X-56038Y91313D01*
D02*
G37*
G36*
X-168010Y-68315D02*
X-176530D01*
Y-76835D01*
X-168010D01*
Y-68315D01*
D02*
G37*
G36*
X-179070D02*
X-187590D01*
Y-76835D01*
X-179070D01*
Y-68315D01*
D02*
G37*
G36*
X160039Y-58155D02*
X157461D01*
X154971Y-58822D01*
X152739Y-60111D01*
X150916Y-61934D01*
X149627Y-64166D01*
X148960Y-66656D01*
Y-69234D01*
X149627Y-71724D01*
X150916Y-73956D01*
X152739Y-75779D01*
X154971Y-77068D01*
X157461Y-77735D01*
X160039D01*
X162529Y-77068D01*
X164761Y-75779D01*
X166584Y-73956D01*
X167873Y-71724D01*
X168540Y-69234D01*
Y-66656D01*
X167873Y-64166D01*
X166584Y-61934D01*
X164761Y-60111D01*
X162529Y-58822D01*
X160039Y-58155D01*
D02*
G37*
G36*
X182880Y-69215D02*
X174360D01*
Y-77735D01*
X182880D01*
Y-69215D01*
D02*
G37*
G36*
X-168010Y-79375D02*
X-176530D01*
Y-87895D01*
X-168010D01*
Y-79375D01*
D02*
G37*
G36*
X-179070D02*
X-187590D01*
Y-87895D01*
X-179070D01*
Y-79375D01*
D02*
G37*
G36*
X-201911Y-68315D02*
X-204489D01*
X-206979Y-68982D01*
X-209211Y-70271D01*
X-211034Y-72094D01*
X-212323Y-74326D01*
X-212990Y-76816D01*
Y-79394D01*
X-212323Y-81884D01*
X-211034Y-84116D01*
X-209211Y-85939D01*
X-206979Y-87228D01*
X-204489Y-87895D01*
X-201911D01*
X-199421Y-87228D01*
X-197189Y-85939D01*
X-195366Y-84116D01*
X-194077Y-81884D01*
X-193410Y-79394D01*
Y-76816D01*
X-194077Y-74326D01*
X-195366Y-72094D01*
X-197189Y-70271D01*
X-199421Y-68982D01*
X-201911Y-68315D01*
D02*
G37*
G36*
X-85090Y-100523D02*
Y-104775D01*
X-80838D01*
X-81623Y-102880D01*
X-83195Y-101308D01*
X-85090Y-100523D01*
D02*
G37*
G36*
X-87630D02*
X-89525Y-101308D01*
X-91097Y-102880D01*
X-91882Y-104775D01*
X-87630D01*
Y-100523D01*
D02*
G37*
G36*
X18937Y-89485D02*
X16623D01*
X14387Y-90084D01*
X12383Y-91241D01*
X10746Y-92878D01*
X9589Y-94882D01*
X8990Y-97118D01*
Y-99432D01*
X9589Y-101668D01*
X10746Y-103672D01*
X12383Y-105309D01*
X14387Y-106466D01*
X16623Y-107065D01*
X18937D01*
X21173Y-106466D01*
X23177Y-105309D01*
X24814Y-103672D01*
X25971Y-101668D01*
X26570Y-99432D01*
Y-97118D01*
X25971Y-94882D01*
X24814Y-92878D01*
X23177Y-91241D01*
X21173Y-90084D01*
X18937Y-89485D01*
D02*
G37*
G36*
X-24230D02*
X-41810D01*
Y-107065D01*
X-24230D01*
Y-89485D01*
D02*
G37*
G36*
X-80838Y-107315D02*
X-85090D01*
Y-111567D01*
X-83195Y-110782D01*
X-81623Y-109210D01*
X-80838Y-107315D01*
D02*
G37*
G36*
X-87630D02*
X-91882D01*
X-91097Y-109210D01*
X-89525Y-110782D01*
X-87630Y-111567D01*
Y-107315D01*
D02*
G37*
G36*
X130440Y-147055D02*
X121920D01*
Y-155575D01*
X130440D01*
Y-147055D01*
D02*
G37*
G36*
X119380D02*
X110860D01*
Y-155575D01*
X119380D01*
Y-147055D01*
D02*
G37*
G36*
X-96890Y-154675D02*
X-105410D01*
Y-163195D01*
X-96890D01*
Y-154675D01*
D02*
G37*
G36*
X-107950D02*
X-116470D01*
Y-163195D01*
X-107950D01*
Y-154675D01*
D02*
G37*
G36*
X130440Y-158115D02*
X121920D01*
Y-166635D01*
X130440D01*
Y-158115D01*
D02*
G37*
G36*
X119380D02*
X110860D01*
Y-166635D01*
X119380D01*
Y-158115D01*
D02*
G37*
G36*
X96539Y-147055D02*
X93961D01*
X91471Y-147722D01*
X89239Y-149011D01*
X87416Y-150834D01*
X86127Y-153066D01*
X85460Y-155556D01*
Y-158134D01*
X86127Y-160624D01*
X87416Y-162856D01*
X89239Y-164679D01*
X91471Y-165968D01*
X93961Y-166635D01*
X96539D01*
X99029Y-165968D01*
X101261Y-164679D01*
X103084Y-162856D01*
X104373Y-160624D01*
X105040Y-158134D01*
Y-155556D01*
X104373Y-153066D01*
X103084Y-150834D01*
X101261Y-149011D01*
X99029Y-147722D01*
X96539Y-147055D01*
D02*
G37*
G36*
X-96890Y-165735D02*
X-105410D01*
Y-174255D01*
X-96890D01*
Y-165735D01*
D02*
G37*
G36*
X-107950D02*
X-116470D01*
Y-174255D01*
X-107950D01*
Y-165735D01*
D02*
G37*
G36*
X-130791Y-154675D02*
X-133369D01*
X-135859Y-155342D01*
X-138091Y-156631D01*
X-139914Y-158454D01*
X-141203Y-160686D01*
X-141870Y-163176D01*
Y-165754D01*
X-141203Y-168244D01*
X-139914Y-170476D01*
X-138091Y-172299D01*
X-135859Y-173588D01*
X-133369Y-174255D01*
X-130791D01*
X-128301Y-173588D01*
X-126069Y-172299D01*
X-124246Y-170476D01*
X-122957Y-168244D01*
X-122290Y-165754D01*
Y-163176D01*
X-122957Y-160686D01*
X-124246Y-158454D01*
X-126069Y-156631D01*
X-128301Y-155342D01*
X-130791Y-154675D01*
D02*
G37*
G36*
X12330Y-188965D02*
X3810D01*
Y-197485D01*
X12330D01*
Y-188965D01*
D02*
G37*
G36*
X1270D02*
X-7250D01*
Y-197485D01*
X1270D01*
Y-188965D01*
D02*
G37*
G36*
X12330Y-200025D02*
X3810D01*
Y-208545D01*
X12330D01*
Y-200025D01*
D02*
G37*
G36*
X1270D02*
X-7250D01*
Y-208545D01*
X1270D01*
Y-200025D01*
D02*
G37*
G36*
X-21571Y-188965D02*
X-24149D01*
X-26639Y-189632D01*
X-28871Y-190921D01*
X-30694Y-192744D01*
X-31983Y-194976D01*
X-32650Y-197466D01*
Y-200044D01*
X-31983Y-202534D01*
X-30694Y-204766D01*
X-28871Y-206589D01*
X-26639Y-207878D01*
X-24149Y-208545D01*
X-21571D01*
X-19081Y-207878D01*
X-16849Y-206589D01*
X-15026Y-204766D01*
X-13737Y-202534D01*
X-13070Y-200044D01*
Y-197466D01*
X-13737Y-194976D01*
X-15026Y-192744D01*
X-16849Y-190921D01*
X-19081Y-189632D01*
X-21571Y-188965D01*
D02*
G37*
%LPD*%
G36*
X2465Y82385D02*
Y66883D01*
X1613Y66030D01*
X762Y63976D01*
Y62775D01*
X273Y62529D01*
X-508Y62386D01*
X-1915Y63792D01*
X-3968Y64643D01*
X-6191D01*
X-8245Y63792D01*
X-9817Y62220D01*
X-10668Y60167D01*
Y57944D01*
X-9817Y55890D01*
X-8245Y54318D01*
X-6191Y53467D01*
X-4986D01*
X-3885Y52366D01*
Y-26558D01*
X-5155Y-27358D01*
X-6350Y-26863D01*
Y-32385D01*
Y-37907D01*
X-5155Y-37412D01*
X-3885Y-38212D01*
Y-52499D01*
X-5155Y-53025D01*
X-19034Y-39146D01*
X-18644Y-37739D01*
X-17155Y-37122D01*
X-15583Y-35550D01*
X-14732Y-33496D01*
Y-31274D01*
X-15583Y-29220D01*
X-16435Y-28367D01*
Y71416D01*
X-6444Y81407D01*
X-5239D01*
X-3185Y82258D01*
X-1613Y83830D01*
X-1279Y84635D01*
X-33Y84883D01*
X2465Y82385D01*
D02*
G37*
%LPC*%
G36*
X-8890Y-26863D02*
X-10785Y-27648D01*
X-12357Y-29220D01*
X-13142Y-31115D01*
X-8890D01*
Y-26863D01*
D02*
G37*
G36*
Y-33655D02*
X-13142D01*
X-12357Y-35550D01*
X-10785Y-37122D01*
X-8890Y-37907D01*
Y-33655D01*
D02*
G37*
G36*
X-584797Y1105473D02*
X-584882D01*
X-584938Y1105459D01*
X-585079Y1105445D01*
X-585276Y1105403D01*
X-585488Y1105332D01*
X-585727Y1105219D01*
X-585953Y1105079D01*
X-586179Y1104881D01*
X-586207Y1104853D01*
X-586263Y1104782D01*
X-586362Y1104656D01*
X-586460Y1104472D01*
X-586559Y1104261D01*
X-586658Y1103993D01*
X-586714Y1103697D01*
X-586742Y1103359D01*
Y1103331D01*
Y1103260D01*
X-586728Y1103133D01*
X-586714Y1102978D01*
X-586686Y1102795D01*
X-586630Y1102598D01*
X-586573Y1102386D01*
X-586489Y1102175D01*
X-586475Y1102146D01*
X-586432Y1102076D01*
X-586376Y1101977D01*
X-586291Y1101850D01*
X-586193Y1101723D01*
X-586066Y1101568D01*
X-585925Y1101441D01*
X-585756Y1101315D01*
X-585727Y1101301D01*
X-585671Y1101272D01*
X-585572Y1101216D01*
X-585446Y1101174D01*
X-585304Y1101117D01*
X-585135Y1101061D01*
X-584952Y1101033D01*
X-584755Y1101019D01*
X-584684D01*
X-584628Y1101033D01*
X-584487Y1101047D01*
X-584304Y1101089D01*
X-584106Y1101174D01*
X-583881Y1101272D01*
X-583655Y1101427D01*
X-583542Y1101512D01*
X-583444Y1101625D01*
Y1101639D01*
X-583415Y1101653D01*
X-583359Y1101738D01*
X-583275Y1101879D01*
X-583162Y1102062D01*
X-583063Y1102301D01*
X-582979Y1102583D01*
X-582922Y1102908D01*
X-582894Y1103288D01*
Y1103302D01*
Y1103331D01*
Y1103387D01*
X-582908Y1103457D01*
Y1103542D01*
X-582922Y1103641D01*
X-582964Y1103866D01*
X-583021Y1104120D01*
X-583120Y1104388D01*
X-583260Y1104642D01*
X-583444Y1104881D01*
X-583472Y1104909D01*
X-583542Y1104980D01*
X-583655Y1105064D01*
X-583810Y1105177D01*
X-584008Y1105290D01*
X-584233Y1105375D01*
X-584501Y1105445D01*
X-584797Y1105473D01*
D02*
G37*
G36*
X-592381D02*
X-592466D01*
X-592522Y1105459D01*
X-592663Y1105445D01*
X-592860Y1105403D01*
X-593072Y1105332D01*
X-593312Y1105219D01*
X-593537Y1105079D01*
X-593763Y1104881D01*
X-593791Y1104853D01*
X-593847Y1104782D01*
X-593946Y1104656D01*
X-594045Y1104472D01*
X-594143Y1104261D01*
X-594242Y1103993D01*
X-594298Y1103697D01*
X-594327Y1103359D01*
Y1103331D01*
Y1103260D01*
X-594313Y1103133D01*
X-594298Y1102978D01*
X-594270Y1102795D01*
X-594214Y1102598D01*
X-594157Y1102386D01*
X-594073Y1102175D01*
X-594059Y1102146D01*
X-594016Y1102076D01*
X-593960Y1101977D01*
X-593876Y1101850D01*
X-593777Y1101723D01*
X-593650Y1101568D01*
X-593509Y1101441D01*
X-593340Y1101315D01*
X-593312Y1101301D01*
X-593255Y1101272D01*
X-593157Y1101216D01*
X-593030Y1101174D01*
X-592889Y1101117D01*
X-592719Y1101061D01*
X-592536Y1101033D01*
X-592339Y1101019D01*
X-592268D01*
X-592212Y1101033D01*
X-592071Y1101047D01*
X-591888Y1101089D01*
X-591690Y1101174D01*
X-591465Y1101272D01*
X-591239Y1101427D01*
X-591127Y1101512D01*
X-591028Y1101625D01*
Y1101639D01*
X-591000Y1101653D01*
X-590943Y1101738D01*
X-590859Y1101879D01*
X-590746Y1102062D01*
X-590647Y1102301D01*
X-590563Y1102583D01*
X-590506Y1102908D01*
X-590478Y1103288D01*
Y1103302D01*
Y1103331D01*
Y1103387D01*
X-590492Y1103457D01*
Y1103542D01*
X-590506Y1103641D01*
X-590549Y1103866D01*
X-590605Y1104120D01*
X-590704Y1104388D01*
X-590845Y1104642D01*
X-591028Y1104881D01*
X-591056Y1104909D01*
X-591127Y1104980D01*
X-591239Y1105064D01*
X-591394Y1105177D01*
X-591592Y1105290D01*
X-591817Y1105375D01*
X-592085Y1105445D01*
X-592381Y1105473D01*
D02*
G37*
G36*
X-565273Y1108011D02*
X-568346Y1103641D01*
X-565273D01*
Y1108011D01*
D02*
G37*
G36*
X-600036Y1109012D02*
X-600149D01*
X-600275Y1108983D01*
X-600445Y1108955D01*
X-600628Y1108899D01*
X-600825Y1108828D01*
X-601009Y1108716D01*
X-601192Y1108560D01*
X-601206Y1108546D01*
X-601262Y1108490D01*
X-601333Y1108391D01*
X-601403Y1108264D01*
X-601488Y1108109D01*
X-601558Y1107926D01*
X-601615Y1107729D01*
X-601629Y1107503D01*
Y1107489D01*
Y1107475D01*
X-601615Y1107391D01*
X-601601Y1107264D01*
X-601572Y1107109D01*
X-601516Y1106925D01*
X-601446Y1106742D01*
X-601333Y1106545D01*
X-601192Y1106376D01*
X-601178Y1106361D01*
X-601107Y1106305D01*
X-601009Y1106235D01*
X-600882Y1106164D01*
X-600713Y1106079D01*
X-600515Y1106009D01*
X-600290Y1105953D01*
X-600036Y1105938D01*
X-600008D01*
X-599923Y1105953D01*
X-599796Y1105967D01*
X-599627Y1105995D01*
X-599444Y1106051D01*
X-599260Y1106122D01*
X-599063Y1106235D01*
X-598894Y1106376D01*
X-598880Y1106390D01*
X-598824Y1106460D01*
X-598753Y1106545D01*
X-598669Y1106672D01*
X-598584Y1106827D01*
X-598513Y1107010D01*
X-598457Y1107221D01*
X-598443Y1107447D01*
Y1107461D01*
Y1107475D01*
Y1107560D01*
X-598471Y1107686D01*
X-598499Y1107842D01*
X-598556Y1108011D01*
X-598640Y1108194D01*
X-598753Y1108377D01*
X-598908Y1108560D01*
X-598922Y1108575D01*
X-598993Y1108631D01*
X-599091Y1108701D01*
X-599218Y1108786D01*
X-599387Y1108871D01*
X-599571Y1108941D01*
X-599796Y1108997D01*
X-600036Y1109012D01*
D02*
G37*
G36*
X-600078Y1104966D02*
X-600163D01*
X-600219Y1104952D01*
X-600374Y1104938D01*
X-600572Y1104895D01*
X-600797Y1104825D01*
X-601023Y1104726D01*
X-601262Y1104585D01*
X-601474Y1104402D01*
X-601502Y1104374D01*
X-601558Y1104303D01*
X-601643Y1104176D01*
X-601742Y1104021D01*
X-601854Y1103810D01*
X-601939Y1103570D01*
X-601995Y1103302D01*
X-602024Y1103006D01*
Y1102978D01*
Y1102922D01*
X-602010Y1102823D01*
X-601995Y1102696D01*
X-601967Y1102541D01*
X-601925Y1102372D01*
X-601869Y1102203D01*
X-601798Y1102020D01*
X-601784Y1102005D01*
X-601756Y1101935D01*
X-601699Y1101850D01*
X-601615Y1101752D01*
X-601516Y1101625D01*
X-601389Y1101498D01*
X-601248Y1101385D01*
X-601079Y1101272D01*
X-601051Y1101258D01*
X-600994Y1101230D01*
X-600896Y1101188D01*
X-600769Y1101145D01*
X-600614Y1101103D01*
X-600431Y1101061D01*
X-600233Y1101033D01*
X-600036Y1101019D01*
X-599951D01*
X-599895Y1101033D01*
X-599726Y1101047D01*
X-599528Y1101089D01*
X-599303Y1101160D01*
X-599063Y1101244D01*
X-598838Y1101385D01*
X-598612Y1101568D01*
X-598584Y1101597D01*
X-598527Y1101667D01*
X-598429Y1101794D01*
X-598330Y1101949D01*
X-598232Y1102146D01*
X-598133Y1102386D01*
X-598076Y1102668D01*
X-598048Y1102964D01*
Y1102978D01*
Y1103006D01*
Y1103049D01*
X-598062Y1103105D01*
X-598076Y1103260D01*
X-598119Y1103472D01*
X-598189Y1103683D01*
X-598288Y1103923D01*
X-598429Y1104162D01*
X-598626Y1104388D01*
X-598654Y1104416D01*
X-598725Y1104472D01*
X-598852Y1104571D01*
X-599021Y1104684D01*
X-599232Y1104782D01*
X-599486Y1104881D01*
X-599768Y1104938D01*
X-600078Y1104966D01*
D02*
G37*
%LPD*%
D12*
X-5080Y59055D02*
X0Y53975D01*
Y-53975D02*
Y53975D01*
Y-53975D02*
X3810Y-57785D01*
X-74930Y92075D02*
X-62230Y104775D01*
X-14431D01*
X6350Y83994D01*
Y62865D02*
Y83994D01*
X-74930Y-15875D02*
X-68580Y-22225D01*
X-74930Y-15875D02*
Y92075D01*
X-34290Y-29384D02*
Y56515D01*
Y-29384D02*
X13161Y-76835D01*
X21590D01*
X-57150Y-42545D02*
Y85725D01*
Y-42545D02*
X-33020Y-66675D01*
X-20320Y73025D02*
X-6350Y86995D01*
X-20320Y-32385D02*
Y73025D01*
X17780Y-38735D02*
Y60325D01*
X44450Y23495D02*
Y93345D01*
Y23495D02*
X64770Y3175D01*
D13*
X116840Y142875D02*
D03*
X186690Y41275D02*
D03*
X-1270Y179705D02*
D03*
X184150Y-67945D02*
D03*
X120650Y-156845D02*
D03*
X2540Y-198755D02*
D03*
X-115570Y144145D02*
D03*
X-184150Y34925D02*
D03*
X-177800Y-78105D02*
D03*
X-106680Y-164465D02*
D03*
D14*
X134620Y-19685D02*
D03*
D15*
Y5715D02*
D03*
D16*
X-7620Y-72875D02*
D03*
X17780Y-98275D02*
D03*
D17*
X-33020D02*
D03*
D18*
X-132080Y-164465D02*
D03*
X-22860Y-198755D02*
D03*
X95250Y-156845D02*
D03*
X158750Y-67945D02*
D03*
X161290Y41275D02*
D03*
X91440Y142875D02*
D03*
X-26670Y179705D02*
D03*
X-140970Y144145D02*
D03*
X-209550Y34925D02*
D03*
X-203200Y-78105D02*
D03*
D20*
X-44958Y-35560D02*
D03*
X-6350Y112395D02*
D03*
X31750Y14605D02*
D03*
X-7620Y-32385D02*
D03*
X-86360Y-106045D02*
D03*
X-68580Y-22225D02*
D03*
X-74930Y92075D02*
D03*
X6350Y62865D02*
D03*
X21590Y-76835D02*
D03*
X-34290Y56515D02*
D03*
X-33020Y-66675D02*
D03*
X-57150Y85725D02*
D03*
X3810Y-57785D02*
D03*
X-5080Y59055D02*
D03*
X17780Y60325D02*
D03*
Y-38735D02*
D03*
X-20320Y-32385D02*
D03*
X-6350Y86995D02*
D03*
X64770Y3175D02*
D03*
X44450Y93345D02*
D03*
M02*
