G04*
G04 #@! TF.GenerationSoftware,Altium Limited,Altium Designer,26.2.0 (7)*
G04*
G04 Layer_Color=16711935*
%FSLAX44Y44*%
%MOMM*%
G71*
G04*
G04 #@! TF.SameCoordinates,C05E1424-3D58-4440-9ACD-986F6C812262*
G04*
G04*
G04 #@! TF.FilePolarity,Positive*
G04*
G01*
G75*
%ADD31C,0.1000*%
D31*
X-43620Y20525D02*
G03*
X-43620Y20525I-5000J0D01*
G01*
X63160Y-70085D02*
X84160D01*
X63160Y-83585D02*
X84160D01*
Y-70085D01*
X63160Y-83585D02*
Y-70085D01*
X61890Y-35795D02*
X82890D01*
X61890Y-49295D02*
X82890D01*
Y-35795D01*
X61890Y-49295D02*
Y-35795D01*
X59350Y51835D02*
X80350D01*
X59350Y38335D02*
X80350D01*
Y51835D01*
X59350Y38335D02*
Y51835D01*
Y83585D02*
X80350D01*
X59350Y70085D02*
X80350D01*
Y83585D01*
X59350Y70085D02*
Y83585D01*
X-119720Y-93745D02*
X-98720D01*
X-119720Y-80245D02*
X-98720D01*
X-119720Y-93745D02*
Y-80245D01*
X-98720Y-93745D02*
Y-80245D01*
X-119720Y63735D02*
X-98720D01*
X-119720Y77235D02*
X-98720D01*
X-119720Y63735D02*
Y77235D01*
X-98720Y63735D02*
Y77235D01*
X-119720Y-31515D02*
X-98720D01*
X-119720Y-18015D02*
X-98720D01*
X-119720Y-31515D02*
Y-18015D01*
X-98720Y-31515D02*
Y-18015D01*
X-119720Y-60725D02*
X-98720D01*
X-119720Y-47225D02*
X-98720D01*
X-119720Y-60725D02*
Y-47225D01*
X-98720Y-60725D02*
Y-47225D01*
X-119720Y30715D02*
X-98720D01*
X-119720Y44215D02*
X-98720D01*
X-119720Y30715D02*
Y44215D01*
X-98720Y30715D02*
Y44215D01*
X-119720Y-1035D02*
X-98720D01*
X-119720Y12465D02*
X-98720D01*
X-119720Y-1035D02*
Y12465D01*
X-98720Y-1035D02*
Y12465D01*
X63160Y-103105D02*
X84160D01*
X63160Y-116605D02*
X84160D01*
Y-103105D01*
X63160Y-116605D02*
Y-103105D01*
X53000Y120415D02*
X74000D01*
X53000Y106915D02*
X74000D01*
Y120415D01*
X53000Y106915D02*
Y120415D01*
X-77870Y-110195D02*
Y-89195D01*
X-64370Y-110195D02*
Y-89195D01*
X-77870D02*
X-64370D01*
X-77870Y-110195D02*
X-64370D01*
X99930Y-7325D02*
Y13675D01*
X113430Y-7325D02*
Y13675D01*
X99930D02*
X113430D01*
X99930Y-7325D02*
X113430D01*
X-57620Y29525D02*
X42380D01*
X-57620Y-10475D02*
X42380D01*
X-57620D02*
Y29525D01*
X42380Y-10475D02*
Y29525D01*
M02*
