G04*
G04 #@! TF.GenerationSoftware,Altium Limited,Altium Designer,26.2.0 (7)*
G04*
G04 Layer_Color=32896*
%FSLAX44Y44*%
%MOMM*%
G71*
G04*
G04 #@! TF.SameCoordinates,C05E1424-3D58-4440-9ACD-986F6C812262*
G04*
G04*
G04 #@! TF.FilePolarity,Positive*
G04*
G01*
G75*
%ADD10C,0.2000*%
%ADD11C,0.2500*%
%ADD12C,0.2540*%
%ADD29C,0.6000*%
D10*
X72660Y-70585D02*
X74660D01*
X72660Y-83085D02*
X74660D01*
X71390Y-36295D02*
X73390D01*
X71390Y-48795D02*
X73390D01*
X68850Y51335D02*
X70850D01*
X68850Y38835D02*
X70850D01*
X68850Y83085D02*
X70850D01*
X68850Y70585D02*
X70850D01*
X-110220Y-93245D02*
X-108220D01*
X-110220Y-80745D02*
X-108220D01*
X-110220Y64235D02*
X-108220D01*
X-110220Y76735D02*
X-108220D01*
X-110220Y-31015D02*
X-108220D01*
X-110220Y-18515D02*
X-108220D01*
X-110220Y-60225D02*
X-108220D01*
X-110220Y-47725D02*
X-108220D01*
X-110220Y31215D02*
X-108220D01*
X-110220Y43715D02*
X-108220D01*
X-110220Y-535D02*
X-108220D01*
X-110220Y11965D02*
X-108220D01*
X72660Y-103605D02*
X74660D01*
X72660Y-116105D02*
X74660D01*
X62500Y119915D02*
X64500D01*
X62500Y107415D02*
X64500D01*
X121420Y20915D02*
X147820D01*
Y-34885D02*
Y20915D01*
X121420Y-34885D02*
X147820D01*
X121420D02*
Y20915D01*
X-2100Y73900D02*
Y122950D01*
X-15680Y73900D02*
X-2100D01*
X-15680D02*
Y122950D01*
X-2100D01*
X-57620Y25525D02*
X42380D01*
X-57620Y-6475D02*
X42380D01*
X-57620D02*
Y25525D01*
X42380Y-6475D02*
Y25525D01*
X-56520Y-147325D02*
Y-49525D01*
X41280D01*
Y-147325D02*
Y-49525D01*
X-56520Y-147325D02*
X41280D01*
D11*
X153870Y5715D02*
G03*
X153870Y5715I-1250J0D01*
G01*
X34342Y117475D02*
G03*
X34342Y117475I-1250J0D01*
G01*
X-59320Y36775D02*
G03*
X-59320Y36775I-1250J0D01*
G01*
D12*
X160023Y-9525D02*
Y-4447D01*
Y-6986D01*
X172718D01*
X175257Y-4447D01*
Y-1908D01*
X172718Y632D01*
X175257Y-14603D02*
Y-19682D01*
Y-17143D01*
X160023D01*
X162562Y-14603D01*
X-76198Y125091D02*
X-63502D01*
X-60963Y122552D01*
Y117473D01*
X-63502Y114934D01*
X-76198D01*
X-60963Y99699D02*
Y109856D01*
X-71119Y99699D01*
X-73658D01*
X-76198Y102238D01*
Y107317D01*
X-73658Y109856D01*
X48517Y-7369D02*
X61212D01*
X63752Y-9908D01*
Y-14987D01*
X61212Y-17526D01*
X48517D01*
X63752Y-22604D02*
Y-27683D01*
Y-25144D01*
X48517D01*
X51056Y-22604D01*
X-137166Y-64132D02*
Y-48898D01*
X-144784D01*
X-147323Y-51437D01*
Y-56515D01*
X-144784Y-59054D01*
X-137166D01*
X-142245D02*
X-147323Y-64132D01*
X-152401D02*
X-157480D01*
X-154940D01*
Y-48898D01*
X-152401Y-51437D01*
X-165097D02*
X-167636Y-48898D01*
X-172715D01*
X-175254Y-51437D01*
Y-53976D01*
X-172715Y-56515D01*
X-170175D01*
X-172715D01*
X-175254Y-59054D01*
Y-61593D01*
X-172715Y-64132D01*
X-167636D01*
X-165097Y-61593D01*
X-137166Y-33653D02*
Y-18418D01*
X-144784D01*
X-147323Y-20957D01*
Y-26035D01*
X-144784Y-28574D01*
X-137166D01*
X-142245D02*
X-147323Y-33653D01*
X-152401D02*
X-157480D01*
X-154940D01*
Y-18418D01*
X-152401Y-20957D01*
X-175254Y-33653D02*
X-165097D01*
X-175254Y-23496D01*
Y-20957D01*
X-172715Y-18418D01*
X-167636D01*
X-165097Y-20957D01*
X-135895Y-632D02*
Y14603D01*
X-143513D01*
X-146052Y12063D01*
Y6985D01*
X-143513Y4446D01*
X-135895D01*
X-140974D02*
X-146052Y-632D01*
X-151130D02*
X-156209D01*
X-153670D01*
Y14603D01*
X-151130Y12063D01*
X-163826Y-632D02*
X-168905D01*
X-166366D01*
Y14603D01*
X-163826Y12063D01*
X-64773Y-33661D02*
X-80007D01*
Y-41279D01*
X-77468Y-43818D01*
X-72390D01*
X-69851Y-41279D01*
Y-33661D01*
Y-38740D02*
X-64773Y-43818D01*
Y-48896D02*
Y-53975D01*
Y-51435D01*
X-80007D01*
X-77468Y-48896D01*
Y-61592D02*
X-80007Y-64131D01*
Y-69210D01*
X-77468Y-71749D01*
X-67312D01*
X-64773Y-69210D01*
Y-64131D01*
X-67312Y-61592D01*
X-77468D01*
X-135894Y32387D02*
Y47622D01*
X-143512D01*
X-146051Y45083D01*
Y40005D01*
X-143512Y37466D01*
X-135894D01*
X-140972D02*
X-146051Y32387D01*
X-151129Y34927D02*
X-153668Y32387D01*
X-158747D01*
X-161286Y34927D01*
Y45083D01*
X-158747Y47622D01*
X-153668D01*
X-151129Y45083D01*
Y42544D01*
X-153668Y40005D01*
X-161286D01*
X-135894Y64138D02*
Y79373D01*
X-143512D01*
X-146051Y76833D01*
Y71755D01*
X-143512Y69216D01*
X-135894D01*
X-140972D02*
X-146051Y64138D01*
X-151129Y76833D02*
X-153668Y79373D01*
X-158747D01*
X-161286Y76833D01*
Y74294D01*
X-158747Y71755D01*
X-161286Y69216D01*
Y66677D01*
X-158747Y64138D01*
X-153668D01*
X-151129Y66677D01*
Y69216D01*
X-153668Y71755D01*
X-151129Y74294D01*
Y76833D01*
X-153668Y71755D02*
X-158747D01*
X126996Y-117472D02*
Y-102238D01*
X119378D01*
X116839Y-104777D01*
Y-109855D01*
X119378Y-112394D01*
X126996D01*
X121917D02*
X116839Y-117472D01*
X111761Y-102238D02*
X101604D01*
Y-104777D01*
X111761Y-114933D01*
Y-117472D01*
X121916Y67948D02*
Y83182D01*
X114298D01*
X111759Y80643D01*
Y75565D01*
X114298Y73026D01*
X121916D01*
X116838D02*
X111759Y67948D01*
X96524Y83182D02*
X101602Y80643D01*
X106681Y75565D01*
Y70487D01*
X104142Y67948D01*
X99063D01*
X96524Y70487D01*
Y73026D01*
X99063Y75565D01*
X106681D01*
X123186Y36198D02*
Y51432D01*
X115568D01*
X113029Y48893D01*
Y43815D01*
X115568Y41276D01*
X123186D01*
X118108D02*
X113029Y36198D01*
X97794Y51432D02*
X107951D01*
Y43815D01*
X102872Y46354D01*
X100333D01*
X97794Y43815D01*
Y38737D01*
X100333Y36198D01*
X105412D01*
X107951Y38737D01*
X74926Y131447D02*
Y146683D01*
X67308D01*
X64769Y144143D01*
Y139065D01*
X67308Y136526D01*
X74926D01*
X69847D02*
X64769Y131447D01*
X52073D02*
Y146683D01*
X59691Y139065D01*
X49534D01*
X125726Y-57783D02*
Y-42547D01*
X118108D01*
X115569Y-45087D01*
Y-50165D01*
X118108Y-52704D01*
X125726D01*
X120647D02*
X115569Y-57783D01*
X110491Y-45087D02*
X107952Y-42547D01*
X102873D01*
X100334Y-45087D01*
Y-47626D01*
X102873Y-50165D01*
X105413D01*
X102873D01*
X100334Y-52704D01*
Y-55243D01*
X102873Y-57783D01*
X107952D01*
X110491Y-55243D01*
X130806Y-85723D02*
Y-70487D01*
X123188D01*
X120649Y-73027D01*
Y-78105D01*
X123188Y-80644D01*
X130806D01*
X125728D02*
X120649Y-85723D01*
X105414D02*
X115571D01*
X105414Y-75566D01*
Y-73027D01*
X107953Y-70487D01*
X113032D01*
X115571Y-73027D01*
X-135893Y-93343D02*
Y-78108D01*
X-143511D01*
X-146050Y-80647D01*
Y-85725D01*
X-143511Y-88264D01*
X-135893D01*
X-140972D02*
X-146050Y-93343D01*
X-151128D02*
X-156207D01*
X-153668D01*
Y-78108D01*
X-151128Y-80647D01*
X-67312Y-136524D02*
X-64773Y-139063D01*
Y-144142D01*
X-67312Y-146681D01*
X-77468D01*
X-80007Y-144142D01*
Y-139063D01*
X-77468Y-136524D01*
X-80007Y-121289D02*
Y-131446D01*
X-69851Y-121289D01*
X-67312D01*
X-64773Y-123828D01*
Y-128907D01*
X-67312Y-131446D01*
X80012Y5715D02*
X77473Y8254D01*
Y13333D01*
X80012Y15872D01*
X90168D01*
X92708Y13333D01*
Y8254D01*
X90168Y5715D01*
X92708Y637D02*
Y-4442D01*
Y-1903D01*
X77473D01*
X80012Y637D01*
D29*
X-44620Y15525D02*
G03*
X-44620Y15525I-3000J0D01*
G01*
M02*
