G04*
G04 #@! TF.GenerationSoftware,Altium Limited,Altium Designer,26.2.0 (7)*
G04*
G04 Layer_Color=8388736*
%FSLAX44Y44*%
%MOMM*%
G71*
G04*
G04 #@! TF.SameCoordinates,C05E1424-3D58-4440-9ACD-986F6C812262*
G04*
G04*
G04 #@! TF.FilePolarity,Positive*
G04*
G01*
G75*
%ADD10C,0.2000*%
D10*
X-97153Y-164465D02*
G03*
X-141607Y-164465I-22227J0D01*
G01*
D02*
G03*
X-97153Y-164465I22227J0D01*
G01*
X12067Y-198755D02*
G03*
X-32387Y-198755I-22227J0D01*
G01*
D02*
G03*
X12067Y-198755I22227J0D01*
G01*
X130177Y-156845D02*
G03*
X85723Y-156845I-22227J0D01*
G01*
D02*
G03*
X130177Y-156845I22227J0D01*
G01*
X193677Y-67945D02*
G03*
X149223Y-67945I-22227J0D01*
G01*
D02*
G03*
X193677Y-67945I22227J0D01*
G01*
X196217Y41275D02*
G03*
X151763Y41275I-22227J0D01*
G01*
D02*
G03*
X196217Y41275I22227J0D01*
G01*
X126367Y142875D02*
G03*
X81913Y142875I-22227J0D01*
G01*
D02*
G03*
X126367Y142875I22227J0D01*
G01*
X8257Y179705D02*
G03*
X-36197Y179705I-22227J0D01*
G01*
D02*
G03*
X8257Y179705I22227J0D01*
G01*
X-106043Y144145D02*
G03*
X-150497Y144145I-22227J0D01*
G01*
D02*
G03*
X-106043Y144145I22227J0D01*
G01*
X-174623Y34925D02*
G03*
X-219077Y34925I-22227J0D01*
G01*
D02*
G03*
X-174623Y34925I22227J0D01*
G01*
X-168273Y-78105D02*
G03*
X-212727Y-78105I-22227J0D01*
G01*
D02*
G03*
X-168273Y-78105I22227J0D01*
G01*
M02*
