G04*
G04 #@! TF.GenerationSoftware,Altium Limited,Altium Designer,26.2.0 (7)*
G04*
G04 Layer_Color=32768*
%FSLAX44Y44*%
%MOMM*%
G71*
G04*
G04 #@! TF.SameCoordinates,C05E1424-3D58-4440-9ACD-986F6C812262*
G04*
G04*
G04 #@! TF.FilePolarity,Positive*
G04*
G01*
G75*
%ADD31C,0.1000*%
%ADD32C,0.0500*%
D31*
X73660Y-81835D02*
Y-71835D01*
X68660Y-76835D02*
X78660D01*
X72390Y-47545D02*
Y-37545D01*
X67390Y-42545D02*
X77390D01*
X69850Y40085D02*
Y50085D01*
X64850Y45085D02*
X74850D01*
X69850Y71835D02*
Y81835D01*
X64850Y76835D02*
X74850D01*
X-109220Y-91995D02*
Y-81995D01*
X-114220Y-86995D02*
X-104220D01*
X-109220Y65485D02*
Y75485D01*
X-114220Y70485D02*
X-104220D01*
X-109220Y-29765D02*
Y-19765D01*
X-114220Y-24765D02*
X-104220D01*
X-109220Y-58975D02*
Y-48975D01*
X-114220Y-53975D02*
X-104220D01*
X-109220Y32465D02*
Y42465D01*
X-114220Y37465D02*
X-104220D01*
X-109220Y715D02*
Y10715D01*
X-114220Y5715D02*
X-104220D01*
X73660Y-114855D02*
Y-104855D01*
X68660Y-109855D02*
X78660D01*
X63500Y108665D02*
Y118665D01*
X58500Y113665D02*
X68500D01*
X-76120Y-99695D02*
X-66120D01*
X-71120Y-104695D02*
Y-94695D01*
X101680Y3175D02*
X111680D01*
X106680Y-1825D02*
Y8175D01*
X-7620Y4525D02*
Y14525D01*
X-12620Y9525D02*
X-2620D01*
D32*
X52660Y-64335D02*
X94660D01*
X52660Y-89335D02*
X94660D01*
Y-64335D01*
X52660Y-89335D02*
Y-64335D01*
X51390Y-30045D02*
X93390D01*
X51390Y-55045D02*
X93390D01*
Y-30045D01*
X51390Y-55045D02*
Y-30045D01*
X48850Y57585D02*
X90850D01*
X48850Y32585D02*
X90850D01*
Y57585D01*
X48850Y32585D02*
Y57585D01*
Y89335D02*
X90850D01*
X48850Y64335D02*
X90850D01*
Y89335D01*
X48850Y64335D02*
Y89335D01*
X-130220Y-99495D02*
X-88220D01*
X-130220Y-74495D02*
X-88220D01*
X-130220Y-99495D02*
Y-74495D01*
X-88220Y-99495D02*
Y-74495D01*
X-130220Y57985D02*
X-88220D01*
X-130220Y82985D02*
X-88220D01*
X-130220Y57985D02*
Y82985D01*
X-88220Y57985D02*
Y82985D01*
X-130220Y-37265D02*
X-88220D01*
X-130220Y-12265D02*
X-88220D01*
X-130220Y-37265D02*
Y-12265D01*
X-88220Y-37265D02*
Y-12265D01*
X-130220Y-66475D02*
X-88220D01*
X-130220Y-41475D02*
X-88220D01*
X-130220Y-66475D02*
Y-41475D01*
X-88220Y-66475D02*
Y-41475D01*
X-130220Y24965D02*
X-88220D01*
X-130220Y49965D02*
X-88220D01*
X-130220Y24965D02*
Y49965D01*
X-88220Y24965D02*
Y49965D01*
X-130220Y-6785D02*
X-88220D01*
X-130220Y18215D02*
X-88220D01*
X-130220Y-6785D02*
Y18215D01*
X-88220Y-6785D02*
Y18215D01*
X52660Y-97355D02*
X94660D01*
X52660Y-122355D02*
X94660D01*
Y-97355D01*
X52660Y-122355D02*
Y-97355D01*
X42500Y126165D02*
X84500D01*
X42500Y101165D02*
X84500D01*
Y126165D01*
X42500Y101165D02*
Y126165D01*
X-79120Y-113195D02*
Y-86195D01*
X-63120Y-113195D02*
Y-86195D01*
X-79120D02*
X-63120D01*
X-79120Y-113195D02*
X-63120D01*
X98680Y-10325D02*
Y16675D01*
X114680Y-10325D02*
Y16675D01*
X98680D02*
X114680D01*
X98680Y-10325D02*
X114680D01*
X-60120Y46525D02*
X44880D01*
X-60120Y-27475D02*
X44880D01*
X-60120D02*
Y46525D01*
X44880Y-27475D02*
Y46525D01*
M02*
