G04*
G04 #@! TF.GenerationSoftware,Altium Limited,Altium Designer,26.2.0 (7)*
G04*
G04 Layer_Color=8388736*
%FSLAX44Y44*%
%MOMM*%
G71*
G04*
G04 #@! TF.SameCoordinates,C05E1424-3D58-4440-9ACD-986F6C812262*
G04*
G04*
G04 #@! TF.FilePolarity,Negative*
G04*
G01*
G75*
%ADD13R,1.4500X1.4500*%
%ADD14C,1.5700*%
%ADD15R,1.5700X1.5700*%
%ADD16C,1.2500*%
%ADD17R,1.2500X1.2500*%
%ADD18C,1.4500*%
%ADD19C,0.8128*%
D13*
X116840Y142875D02*
D03*
X186690Y41275D02*
D03*
X-1270Y179705D02*
D03*
X184150Y-67945D02*
D03*
X120650Y-156845D02*
D03*
X2540Y-198755D02*
D03*
X-115570Y144145D02*
D03*
X-184150Y34925D02*
D03*
X-177800Y-78105D02*
D03*
X-106680Y-164465D02*
D03*
D14*
X134620Y-19685D02*
D03*
D15*
Y5715D02*
D03*
D16*
X-7620Y-72875D02*
D03*
X17780Y-98275D02*
D03*
D17*
X-33020D02*
D03*
D18*
X-132080Y-164465D02*
D03*
X-22860Y-198755D02*
D03*
X95250Y-156845D02*
D03*
X158750Y-67945D02*
D03*
X161290Y41275D02*
D03*
X91440Y142875D02*
D03*
X-26670Y179705D02*
D03*
X-140970Y144145D02*
D03*
X-209550Y34925D02*
D03*
X-203200Y-78105D02*
D03*
D19*
X-44958Y-35560D02*
D03*
X-6350Y112395D02*
D03*
X31750Y14605D02*
D03*
X-7620Y-32385D02*
D03*
X-86360Y-106045D02*
D03*
X-68580Y-22225D02*
D03*
X-74930Y92075D02*
D03*
X6350Y62865D02*
D03*
X21590Y-76835D02*
D03*
X-34290Y56515D02*
D03*
X-33020Y-66675D02*
D03*
X-57150Y85725D02*
D03*
X3810Y-57785D02*
D03*
X-5080Y59055D02*
D03*
X17780Y60325D02*
D03*
Y-38735D02*
D03*
X-20320Y-32385D02*
D03*
X-6350Y86995D02*
D03*
X64770Y3175D02*
D03*
X44450Y93345D02*
D03*
M02*
