G04*
G04 #@! TF.GenerationSoftware,Altium Limited,Altium Designer,26.2.0 (7)*
G04*
G04 Layer_Color=65535*
%FSLAX44Y44*%
%MOMM*%
G71*
G04*
G04 #@! TF.SameCoordinates,C05E1424-3D58-4440-9ACD-986F6C812262*
G04*
G04*
G04 #@! TF.FilePolarity,Positive*
G04*
G01*
G75*
%ADD10C,0.2000*%
%ADD11C,0.2500*%
%ADD12C,0.2540*%
G36*
X16611Y140632D02*
X16882D01*
Y140361D01*
X17424D01*
Y140090D01*
X17695D01*
Y139819D01*
X17966D01*
Y139548D01*
X18237D01*
Y139277D01*
X18508D01*
Y139006D01*
X18779D01*
Y138735D01*
X19050D01*
Y138464D01*
X19321D01*
Y138193D01*
X19592D01*
Y137922D01*
X19863D01*
Y137651D01*
X20134D01*
Y137109D01*
X20405D01*
Y136838D01*
X20676D01*
Y136567D01*
X20947D01*
Y136296D01*
X21218D01*
Y136025D01*
X21489D01*
Y135483D01*
X21760D01*
Y135212D01*
X22031D01*
Y134941D01*
X22302D01*
Y134670D01*
X22573D01*
Y134128D01*
X22844D01*
Y133856D01*
X23115D01*
Y133314D01*
X23386D01*
Y133043D01*
X23657D01*
Y132772D01*
X23928D01*
Y132230D01*
X24199D01*
Y131959D01*
X24470D01*
Y131417D01*
X24741D01*
Y130875D01*
X25012D01*
Y130333D01*
X25283D01*
Y130062D01*
X25554D01*
Y129520D01*
X25826D01*
Y128978D01*
X26096D01*
Y128165D01*
X26367D01*
Y127623D01*
X26639D01*
Y126810D01*
X26909D01*
Y126268D01*
X27181D01*
Y125184D01*
X27452D01*
Y123829D01*
X27723D01*
Y120577D01*
X27452D01*
Y119493D01*
X27181D01*
Y118680D01*
X26909D01*
Y117866D01*
X26639D01*
Y117324D01*
X26367D01*
Y116511D01*
X26096D01*
Y115969D01*
X25826D01*
Y115427D01*
X25554D01*
Y114885D01*
X25283D01*
Y114343D01*
X25012D01*
Y113801D01*
X24741D01*
Y113259D01*
X24470D01*
Y112717D01*
X24199D01*
Y112175D01*
X23928D01*
Y111633D01*
X23657D01*
Y110820D01*
X23386D01*
Y110278D01*
X23115D01*
Y109736D01*
X22844D01*
Y109194D01*
X22573D01*
Y108652D01*
X22302D01*
Y107839D01*
X22031D01*
Y107297D01*
X21760D01*
Y106755D01*
X21489D01*
Y105942D01*
X21218D01*
Y105129D01*
X20947D01*
Y104586D01*
X20676D01*
Y103773D01*
X20405D01*
Y102960D01*
X20134D01*
Y102418D01*
X19863D01*
Y101605D01*
X19592D01*
Y100792D01*
X19321D01*
Y100250D01*
X19050D01*
Y99437D01*
X18779D01*
Y98895D01*
X18508D01*
Y98082D01*
X18237D01*
Y100250D01*
X18508D01*
Y102960D01*
X18779D01*
Y106213D01*
X19050D01*
Y113530D01*
X18779D01*
Y115698D01*
X18508D01*
Y117053D01*
X18237D01*
Y118680D01*
X17966D01*
Y119763D01*
X17695D01*
Y120577D01*
X17424D01*
Y121661D01*
X17153D01*
Y122474D01*
X16882D01*
Y123287D01*
X16611D01*
Y124100D01*
X16340D01*
Y124642D01*
X16069D01*
Y124371D01*
X15798D01*
Y123558D01*
X15527D01*
Y122474D01*
X15256D01*
Y121661D01*
X14985D01*
Y120577D01*
X14714D01*
Y119493D01*
X14443D01*
Y118137D01*
X14172D01*
Y116782D01*
X13901D01*
Y114885D01*
X13630D01*
Y105671D01*
X13901D01*
Y102418D01*
X14172D01*
Y98895D01*
X14443D01*
Y98082D01*
X14172D01*
Y98624D01*
X13901D01*
Y99166D01*
X13630D01*
Y99979D01*
X13359D01*
Y100521D01*
X13088D01*
Y101334D01*
X12817D01*
Y102147D01*
X12546D01*
Y102689D01*
X12275D01*
Y103503D01*
X12004D01*
Y104045D01*
X11732D01*
Y104858D01*
X11461D01*
Y105400D01*
X11191D01*
Y106213D01*
X10920D01*
Y107026D01*
X10648D01*
Y107568D01*
X10377D01*
Y108110D01*
X10106D01*
Y108652D01*
X9835D01*
Y109465D01*
X9564D01*
Y110007D01*
X9293D01*
Y110549D01*
X9022D01*
Y111091D01*
X8751D01*
Y111633D01*
X8480D01*
Y112446D01*
X8209D01*
Y112988D01*
X7938D01*
Y113530D01*
X7667D01*
Y114072D01*
X7396D01*
Y114614D01*
X7125D01*
Y115156D01*
X6854D01*
Y115698D01*
X6583D01*
Y116240D01*
X6312D01*
Y116782D01*
X6041D01*
Y117324D01*
X5770D01*
Y117866D01*
X5499D01*
Y118680D01*
X5228D01*
Y119493D01*
X4957D01*
Y120848D01*
X4686D01*
Y123829D01*
X4957D01*
Y125184D01*
X5228D01*
Y126268D01*
X5499D01*
Y127081D01*
X5770D01*
Y127623D01*
X6041D01*
Y128436D01*
X6312D01*
Y128978D01*
X6583D01*
Y129520D01*
X6854D01*
Y130062D01*
X7125D01*
Y130604D01*
X7396D01*
Y131146D01*
X7667D01*
Y131417D01*
X7938D01*
Y131959D01*
X8209D01*
Y132501D01*
X8480D01*
Y132772D01*
X8751D01*
Y133314D01*
X9022D01*
Y133586D01*
X9293D01*
Y133856D01*
X9564D01*
Y134398D01*
X9835D01*
Y134670D01*
X10106D01*
Y134941D01*
X10377D01*
Y135212D01*
X10648D01*
Y135754D01*
X10920D01*
Y136025D01*
X11191D01*
Y136296D01*
X11461D01*
Y136567D01*
X11732D01*
Y136838D01*
X12004D01*
Y137109D01*
X12275D01*
Y137380D01*
X12546D01*
Y137651D01*
X12817D01*
Y138193D01*
X13088D01*
Y138464D01*
X13630D01*
Y138735D01*
X13901D01*
Y139006D01*
X14172D01*
Y139277D01*
X14443D01*
Y139548D01*
X14714D01*
Y139819D01*
X14985D01*
Y140090D01*
X15256D01*
Y140361D01*
X15527D01*
Y140632D01*
X15798D01*
Y140903D01*
X16611D01*
Y140632D01*
D02*
G37*
G36*
X-19706Y128165D02*
X-15911D01*
Y127894D01*
X-13743D01*
Y127623D01*
X-12388D01*
Y127352D01*
X-11304D01*
Y127081D01*
X-9949D01*
Y126810D01*
X-9136D01*
Y126539D01*
X-8323D01*
Y126268D01*
X-7781D01*
Y125997D01*
X-6968D01*
Y125726D01*
X-6155D01*
Y125455D01*
X-5613D01*
Y125184D01*
X-5071D01*
Y124913D01*
X-4529D01*
Y124642D01*
X-3986D01*
Y124371D01*
X-3444D01*
Y124100D01*
X-2903D01*
Y123829D01*
X-2631D01*
Y123558D01*
X-2089D01*
Y123287D01*
X-1818D01*
Y123016D01*
X-1547D01*
Y122745D01*
X-1005D01*
Y122474D01*
X-734D01*
Y122203D01*
X-463D01*
Y121932D01*
X-192D01*
Y121661D01*
X79D01*
Y121390D01*
X350D01*
Y121119D01*
X621D01*
Y120577D01*
X892D01*
Y120306D01*
X1163D01*
Y119763D01*
X1434D01*
Y119493D01*
X1705D01*
Y118951D01*
X1976D01*
Y118408D01*
X2247D01*
Y117595D01*
X2518D01*
Y116782D01*
X2789D01*
Y116240D01*
X3060D01*
Y115156D01*
X3331D01*
Y114343D01*
X3602D01*
Y113530D01*
X3873D01*
Y112717D01*
X4144D01*
Y111904D01*
X4415D01*
Y111091D01*
X4686D01*
Y110549D01*
X4957D01*
Y109736D01*
X5228D01*
Y108923D01*
X5499D01*
Y108381D01*
X5770D01*
Y107839D01*
X6041D01*
Y107026D01*
X6312D01*
Y106484D01*
X6583D01*
Y105942D01*
X6854D01*
Y105400D01*
X7125D01*
Y104858D01*
X7396D01*
Y104316D01*
X7667D01*
Y103773D01*
X7938D01*
Y103231D01*
X8209D01*
Y102689D01*
X8480D01*
Y102147D01*
X8751D01*
Y101605D01*
X9022D01*
Y101063D01*
X9293D01*
Y100792D01*
X9564D01*
Y100250D01*
X9835D01*
Y99708D01*
X10106D01*
Y99166D01*
X10377D01*
Y98624D01*
X10648D01*
Y98353D01*
X10920D01*
Y97811D01*
X10648D01*
Y98082D01*
X10377D01*
Y98353D01*
X10106D01*
Y98895D01*
X9835D01*
Y99166D01*
X9564D01*
Y99437D01*
X9293D01*
Y99708D01*
X9022D01*
Y99979D01*
X8751D01*
Y100250D01*
X8480D01*
Y100521D01*
X8209D01*
Y100792D01*
X7938D01*
Y101063D01*
X7667D01*
Y101334D01*
X7396D01*
Y101605D01*
X7125D01*
Y102147D01*
X6854D01*
Y102418D01*
X6583D01*
Y102689D01*
X6312D01*
Y102960D01*
X6041D01*
Y103231D01*
X5770D01*
Y103503D01*
X5499D01*
Y103773D01*
X5228D01*
Y104045D01*
X4957D01*
Y104316D01*
X4686D01*
Y104586D01*
X4415D01*
Y104858D01*
X4144D01*
Y105129D01*
X3873D01*
Y105400D01*
X3602D01*
Y105942D01*
X3331D01*
Y106213D01*
X3060D01*
Y106484D01*
X2789D01*
Y106755D01*
X2518D01*
Y107026D01*
X2247D01*
Y107297D01*
X1976D01*
Y107568D01*
X1705D01*
Y107839D01*
X1163D01*
Y108110D01*
X892D01*
Y108381D01*
X621D01*
Y108652D01*
X350D01*
Y108923D01*
X79D01*
Y109194D01*
X-192D01*
Y109465D01*
X-463D01*
Y109736D01*
X-734D01*
Y110007D01*
X-1276D01*
Y110278D01*
X-1547D01*
Y110549D01*
X-1818D01*
Y110820D01*
X-2360D01*
Y111091D01*
X-2631D01*
Y111362D01*
X-2903D01*
Y111633D01*
X-3444D01*
Y111904D01*
X-3715D01*
Y112175D01*
X-3986D01*
Y112446D01*
X-4529D01*
Y112717D01*
X-4800D01*
Y112988D01*
X-5342D01*
Y113259D01*
X-5613D01*
Y113530D01*
X-6155D01*
Y113801D01*
X-6697D01*
Y114072D01*
X-6968D01*
Y114343D01*
X-7510D01*
Y114614D01*
X-8052D01*
Y114885D01*
X-8323D01*
Y115156D01*
X-8865D01*
Y115427D01*
X-9407D01*
Y115698D01*
X-10220D01*
Y115427D01*
X-9949D01*
Y114885D01*
X-9678D01*
Y114343D01*
X-9407D01*
Y113801D01*
X-9136D01*
Y113530D01*
X-8865D01*
Y112988D01*
X-8594D01*
Y112446D01*
X-8323D01*
Y112175D01*
X-8052D01*
Y111633D01*
X-7781D01*
Y111091D01*
X-7510D01*
Y110820D01*
X-7239D01*
Y110278D01*
X-6968D01*
Y110007D01*
X-6697D01*
Y109465D01*
X-6426D01*
Y109194D01*
X-6155D01*
Y108652D01*
X-5884D01*
Y108381D01*
X-5613D01*
Y108110D01*
X-5342D01*
Y107568D01*
X-5071D01*
Y107297D01*
X-4800D01*
Y107026D01*
X-4529D01*
Y106755D01*
X-4257D01*
Y106213D01*
X-3986D01*
Y105942D01*
X-3715D01*
Y105671D01*
X-3444D01*
Y105400D01*
X-3174D01*
Y105129D01*
X-2903D01*
Y104858D01*
X-2631D01*
Y104586D01*
X-2360D01*
Y104045D01*
X-2089D01*
Y103773D01*
X-1818D01*
Y103503D01*
X-1547D01*
Y103231D01*
X-1276D01*
Y102960D01*
X-1005D01*
Y102689D01*
X-734D01*
Y102418D01*
X-463D01*
Y102147D01*
X-192D01*
Y101876D01*
X79D01*
Y101605D01*
X621D01*
Y101334D01*
X892D01*
Y101063D01*
X1163D01*
Y100792D01*
X1434D01*
Y100521D01*
X1705D01*
Y100250D01*
X1976D01*
Y99979D01*
X2247D01*
Y99708D01*
X2789D01*
Y99437D01*
X3060D01*
Y99166D01*
X3331D01*
Y98895D01*
X3602D01*
Y98624D01*
X3873D01*
Y98353D01*
X4415D01*
Y98082D01*
X4686D01*
Y97811D01*
X4957D01*
Y97540D01*
X5228D01*
Y97269D01*
X5770D01*
Y96998D01*
X6041D01*
Y96727D01*
X6312D01*
Y96456D01*
X6583D01*
Y96185D01*
X6854D01*
Y95914D01*
X7396D01*
Y95643D01*
X7667D01*
Y95372D01*
X7938D01*
Y95101D01*
X8209D01*
Y94830D01*
X8480D01*
Y94559D01*
X8209D01*
Y94830D01*
X7396D01*
Y95101D01*
X6854D01*
Y95372D01*
X6312D01*
Y95643D01*
X5499D01*
Y95914D01*
X4957D01*
Y96185D01*
X4415D01*
Y96456D01*
X3873D01*
Y96727D01*
X3331D01*
Y96998D01*
X2789D01*
Y97269D01*
X2247D01*
Y97540D01*
X1705D01*
Y97811D01*
X1163D01*
Y98082D01*
X621D01*
Y98353D01*
X79D01*
Y98624D01*
X-463D01*
Y98895D01*
X-1276D01*
Y99166D01*
X-1818D01*
Y99437D01*
X-2360D01*
Y99708D01*
X-2903D01*
Y99979D01*
X-3715D01*
Y100250D01*
X-4257D01*
Y100521D01*
X-5071D01*
Y100792D01*
X-5884D01*
Y101063D01*
X-6426D01*
Y101334D01*
X-7239D01*
Y101605D01*
X-7781D01*
Y101876D01*
X-8594D01*
Y102147D01*
X-9407D01*
Y102418D01*
X-10220D01*
Y102689D01*
X-11033D01*
Y102960D01*
X-11575D01*
Y103231D01*
X-12117D01*
Y103503D01*
X-12659D01*
Y103773D01*
X-13201D01*
Y104045D01*
X-13743D01*
Y104316D01*
X-14285D01*
Y104586D01*
X-14556D01*
Y104858D01*
X-15098D01*
Y105129D01*
X-15369D01*
Y105400D01*
X-15640D01*
Y105671D01*
X-15911D01*
Y105942D01*
X-16182D01*
Y106213D01*
X-16453D01*
Y106484D01*
X-16724D01*
Y106755D01*
X-16995D01*
Y107026D01*
X-17266D01*
Y107297D01*
X-17537D01*
Y107839D01*
X-17808D01*
Y108110D01*
X-18080D01*
Y108652D01*
X-18350D01*
Y108923D01*
X-18621D01*
Y109465D01*
X-18893D01*
Y110007D01*
X-19164D01*
Y110549D01*
X-19435D01*
Y111091D01*
X-19706D01*
Y111904D01*
X-19977D01*
Y112717D01*
X-20248D01*
Y113530D01*
X-20519D01*
Y114343D01*
X-20790D01*
Y115427D01*
X-21061D01*
Y116511D01*
X-21332D01*
Y118137D01*
X-21603D01*
Y120035D01*
X-21874D01*
Y120306D01*
Y120577D01*
Y126539D01*
X-21603D01*
Y128165D01*
X-21332D01*
Y128436D01*
X-19706D01*
Y128165D01*
D02*
G37*
G36*
X53740D02*
X54011D01*
Y127352D01*
X54282D01*
Y124642D01*
X54553D01*
Y121661D01*
X54282D01*
Y118680D01*
X54011D01*
Y117053D01*
X53740D01*
Y115698D01*
X53469D01*
Y114614D01*
X53198D01*
Y113530D01*
X52927D01*
Y112717D01*
X52656D01*
Y111904D01*
X52385D01*
Y111362D01*
X52114D01*
Y110820D01*
X51843D01*
Y110278D01*
X51572D01*
Y109736D01*
X51301D01*
Y109194D01*
X51030D01*
Y108652D01*
X50759D01*
Y108381D01*
X50488D01*
Y107839D01*
X50217D01*
Y107568D01*
X49946D01*
Y107297D01*
X49675D01*
Y106755D01*
X49404D01*
Y106484D01*
X49133D01*
Y106213D01*
X48862D01*
Y105942D01*
X48591D01*
Y105671D01*
X48320D01*
Y105400D01*
X47778D01*
Y105129D01*
X47507D01*
Y104858D01*
X46965D01*
Y104586D01*
X46694D01*
Y104316D01*
X46152D01*
Y104045D01*
X45610D01*
Y103773D01*
X44797D01*
Y103503D01*
X44255D01*
Y103231D01*
X43713D01*
Y102960D01*
X42900D01*
Y102689D01*
X42358D01*
Y102418D01*
X41544D01*
Y102147D01*
X40731D01*
Y101876D01*
X39918D01*
Y101605D01*
X39376D01*
Y101334D01*
X38563D01*
Y101063D01*
X38021D01*
Y100792D01*
X37208D01*
Y100521D01*
X36666D01*
Y100250D01*
X35853D01*
Y99979D01*
X35311D01*
Y99708D01*
X34498D01*
Y99437D01*
X33956D01*
Y99166D01*
X33414D01*
Y98895D01*
X32601D01*
Y98624D01*
X32059D01*
Y98353D01*
X31517D01*
Y98082D01*
X30975D01*
Y97811D01*
X30433D01*
Y97540D01*
X29891D01*
Y97269D01*
X29349D01*
Y96998D01*
X28807D01*
Y96727D01*
X28265D01*
Y96456D01*
X27723D01*
Y96185D01*
X27181D01*
Y95914D01*
X26639D01*
Y95643D01*
X26096D01*
Y95372D01*
X25554D01*
Y95101D01*
X25012D01*
Y94830D01*
X24470D01*
Y95101D01*
X24741D01*
Y95372D01*
X25012D01*
Y95643D01*
X25283D01*
Y95914D01*
X25554D01*
Y96185D01*
X26096D01*
Y96456D01*
X26367D01*
Y96727D01*
X26639D01*
Y96998D01*
X26909D01*
Y97269D01*
X27181D01*
Y97540D01*
X27452D01*
Y97811D01*
X27994D01*
Y98082D01*
X28265D01*
Y98353D01*
X28536D01*
Y98624D01*
X28807D01*
Y98895D01*
X29078D01*
Y99166D01*
X29349D01*
Y99437D01*
X29620D01*
Y99708D01*
X30162D01*
Y99979D01*
X30433D01*
Y100250D01*
X30704D01*
Y100521D01*
X30975D01*
Y100792D01*
X31246D01*
Y101063D01*
X31517D01*
Y101334D01*
X31788D01*
Y101605D01*
X32059D01*
Y101876D01*
X32601D01*
Y102147D01*
X32872D01*
Y102418D01*
X33143D01*
Y102689D01*
X33414D01*
Y102960D01*
X33685D01*
Y103231D01*
X33956D01*
Y103503D01*
X34227D01*
Y103773D01*
X34498D01*
Y104045D01*
X34769D01*
Y104316D01*
X35040D01*
Y104858D01*
X35311D01*
Y105129D01*
X35582D01*
Y105400D01*
X35853D01*
Y105671D01*
X36124D01*
Y105942D01*
X36395D01*
Y106213D01*
X36666D01*
Y106484D01*
X36937D01*
Y106755D01*
X37208D01*
Y107297D01*
X37479D01*
Y107568D01*
X37750D01*
Y107839D01*
X38021D01*
Y108110D01*
X38292D01*
Y108652D01*
X38563D01*
Y108923D01*
X38834D01*
Y109465D01*
X39105D01*
Y109736D01*
X39376D01*
Y110007D01*
X39647D01*
Y110549D01*
X39918D01*
Y110820D01*
X40189D01*
Y111362D01*
X40460D01*
Y111904D01*
X40731D01*
Y112175D01*
X41002D01*
Y112717D01*
X41273D01*
Y113259D01*
X41544D01*
Y113801D01*
X41816D01*
Y114072D01*
X42087D01*
Y114614D01*
X42358D01*
Y115156D01*
X42629D01*
Y115698D01*
X42900D01*
Y115969D01*
X42358D01*
Y115698D01*
X41816D01*
Y115427D01*
X41544D01*
Y115156D01*
X41002D01*
Y114885D01*
X40460D01*
Y114614D01*
X39918D01*
Y114343D01*
X39376D01*
Y114072D01*
X39105D01*
Y113801D01*
X38563D01*
Y113530D01*
X38021D01*
Y113259D01*
X37750D01*
Y112988D01*
X37208D01*
Y112717D01*
X36937D01*
Y112446D01*
X36395D01*
Y112175D01*
X36124D01*
Y111904D01*
X35582D01*
Y111633D01*
X35311D01*
Y111362D01*
X35040D01*
Y111091D01*
X34498D01*
Y110820D01*
X34227D01*
Y110549D01*
X33956D01*
Y110278D01*
X33685D01*
Y110007D01*
X33143D01*
Y109736D01*
X32872D01*
Y109465D01*
X32601D01*
Y109194D01*
X32330D01*
Y108923D01*
X32059D01*
Y108652D01*
X31517D01*
Y108381D01*
X31246D01*
Y108110D01*
X30975D01*
Y107839D01*
X30704D01*
Y107568D01*
X30433D01*
Y107297D01*
X30162D01*
Y107026D01*
X29891D01*
Y106755D01*
X29620D01*
Y106484D01*
X29349D01*
Y106213D01*
X29078D01*
Y105942D01*
X28807D01*
Y105671D01*
X28536D01*
Y105400D01*
X28265D01*
Y105129D01*
X27994D01*
Y104586D01*
X27723D01*
Y104316D01*
X27452D01*
Y104045D01*
X27181D01*
Y103773D01*
X26909D01*
Y103503D01*
X26639D01*
Y102960D01*
X26367D01*
Y102689D01*
X26096D01*
Y102418D01*
X25826D01*
Y102147D01*
X25554D01*
Y101876D01*
X25283D01*
Y101605D01*
X25012D01*
Y101334D01*
X24741D01*
Y101063D01*
X24470D01*
Y100521D01*
X24199D01*
Y100250D01*
X23928D01*
Y99979D01*
X23657D01*
Y99708D01*
X23386D01*
Y99437D01*
X23115D01*
Y99166D01*
X22844D01*
Y98895D01*
X22573D01*
Y98624D01*
X22302D01*
Y98353D01*
X22031D01*
Y97811D01*
X21489D01*
Y98082D01*
X21760D01*
Y98624D01*
X22031D01*
Y98895D01*
X22302D01*
Y99437D01*
X22573D01*
Y99979D01*
X22844D01*
Y100521D01*
X23115D01*
Y101063D01*
X23386D01*
Y101605D01*
X23657D01*
Y102147D01*
X23928D01*
Y102418D01*
X24199D01*
Y102960D01*
X24470D01*
Y103503D01*
X24741D01*
Y104045D01*
X25012D01*
Y104586D01*
X25283D01*
Y105129D01*
X25554D01*
Y105942D01*
X25826D01*
Y106484D01*
X26096D01*
Y107026D01*
X26367D01*
Y107568D01*
X26639D01*
Y108381D01*
X26909D01*
Y108923D01*
X27181D01*
Y109465D01*
X27452D01*
Y110278D01*
X27723D01*
Y111091D01*
X27994D01*
Y111633D01*
X28265D01*
Y112446D01*
X28536D01*
Y113259D01*
X28807D01*
Y113801D01*
X29078D01*
Y114614D01*
X29349D01*
Y115427D01*
X29620D01*
Y116240D01*
X29891D01*
Y116782D01*
X30162D01*
Y117595D01*
X30433D01*
Y118137D01*
X30704D01*
Y118680D01*
X30975D01*
Y119221D01*
X31246D01*
Y119493D01*
X31517D01*
Y120035D01*
X31788D01*
Y120306D01*
X32059D01*
Y120848D01*
X32330D01*
Y121119D01*
X32601D01*
Y121390D01*
X32872D01*
Y121661D01*
X33143D01*
Y121932D01*
X33414D01*
Y122203D01*
X33685D01*
Y122474D01*
X33956D01*
Y122745D01*
X34498D01*
Y123016D01*
X34769D01*
Y123287D01*
X35040D01*
Y123558D01*
X35582D01*
Y123829D01*
X35853D01*
Y124100D01*
X36395D01*
Y124371D01*
X36937D01*
Y124642D01*
X37479D01*
Y124913D01*
X38021D01*
Y125184D01*
X38563D01*
Y125455D01*
X39105D01*
Y125726D01*
X39647D01*
Y125997D01*
X40460D01*
Y126268D01*
X41273D01*
Y126539D01*
X42087D01*
Y126810D01*
X42900D01*
Y127081D01*
X43984D01*
Y127352D01*
X45068D01*
Y127623D01*
X46423D01*
Y127894D01*
X48320D01*
Y128165D01*
X52656D01*
Y128436D01*
X53740D01*
Y128165D01*
D02*
G37*
G36*
X24470Y94559D02*
X24199D01*
Y94830D01*
X24470D01*
Y94559D01*
D02*
G37*
G36*
X27181Y92120D02*
X26639D01*
Y92391D01*
X27181D01*
Y92120D01*
D02*
G37*
G36*
X-16995Y101876D02*
X-15640D01*
Y101605D01*
X-14827D01*
Y101334D01*
X-14285D01*
Y101063D01*
X-13472D01*
Y100792D01*
X-12930D01*
Y100521D01*
X-12388D01*
Y100250D01*
X-11846D01*
Y99979D01*
X-11304D01*
Y99708D01*
X-11033D01*
Y99437D01*
X-10491D01*
Y99166D01*
X-9949D01*
Y98895D01*
X-9407D01*
Y98624D01*
X-8865D01*
Y98353D01*
X-8323D01*
Y98082D01*
X-7781D01*
Y97811D01*
X-7239D01*
Y97540D01*
X-6697D01*
Y97269D01*
X-6155D01*
Y96998D01*
X-5613D01*
Y96727D01*
X-5071D01*
Y96456D01*
X-4529D01*
Y96185D01*
X-3986D01*
Y95914D01*
X-3174D01*
Y95643D01*
X-2631D01*
Y95372D01*
X-2089D01*
Y95101D01*
X-1276D01*
Y94830D01*
X-734D01*
Y94559D01*
X79D01*
Y94288D01*
X621D01*
Y94017D01*
X1434D01*
Y93746D01*
X2247D01*
Y93475D01*
X3060D01*
Y93204D01*
X3873D01*
Y92933D01*
X4686D01*
Y92662D01*
X5499D01*
Y92391D01*
X5770D01*
Y92120D01*
X5228D01*
Y92391D01*
X3060D01*
Y92662D01*
X892D01*
Y92933D01*
X-1818D01*
Y93204D01*
X-12388D01*
Y92933D01*
X-14556D01*
Y92662D01*
X-15911D01*
Y92391D01*
X-17266D01*
Y92120D01*
X-18350D01*
Y91849D01*
X-19435D01*
Y91578D01*
X-20519D01*
Y91307D01*
X-20790D01*
Y91036D01*
X-19977D01*
Y90765D01*
X-19164D01*
Y90494D01*
X-18350D01*
Y90223D01*
X-17537D01*
Y89952D01*
X-16453D01*
Y89681D01*
X-15640D01*
Y89410D01*
X-14556D01*
Y89138D01*
X-13201D01*
Y88868D01*
X-11846D01*
Y88596D01*
X-10220D01*
Y88326D01*
X-6968D01*
Y88054D01*
X621D01*
Y88326D01*
X7667D01*
Y88054D01*
X6583D01*
Y87783D01*
X5499D01*
Y87512D01*
X4686D01*
Y87241D01*
X3602D01*
Y86970D01*
X2789D01*
Y86699D01*
X1705D01*
Y86428D01*
X892D01*
Y86157D01*
X79D01*
Y85886D01*
X-734D01*
Y85615D01*
X-1547D01*
Y85344D01*
X-2360D01*
Y85073D01*
X-3174D01*
Y84802D01*
X-3986D01*
Y84531D01*
X-4800D01*
Y84260D01*
X-5342D01*
Y83989D01*
X-6155D01*
Y83718D01*
X-6697D01*
Y83447D01*
X-7510D01*
Y83176D01*
X-8052D01*
Y82905D01*
X-8865D01*
Y82634D01*
X-9407D01*
Y82363D01*
X-10220D01*
Y82092D01*
X-10762D01*
Y81821D01*
X-11304D01*
Y81550D01*
X-12117D01*
Y81279D01*
X-12659D01*
Y81008D01*
X-13472D01*
Y80737D01*
X-14556D01*
Y80466D01*
X-15369D01*
Y80195D01*
X-18080D01*
Y79924D01*
X-18893D01*
Y80195D01*
X-20790D01*
Y80466D01*
X-21874D01*
Y80737D01*
X-22687D01*
Y81008D01*
X-23500D01*
Y81279D01*
X-24042D01*
Y81550D01*
X-24584D01*
Y81821D01*
X-25126D01*
Y82092D01*
X-25668D01*
Y82363D01*
X-26210D01*
Y82634D01*
X-26752D01*
Y82905D01*
X-27294D01*
Y83176D01*
X-27565D01*
Y83447D01*
X-28107D01*
Y83718D01*
X-28378D01*
Y83989D01*
X-28920D01*
Y84260D01*
X-29191D01*
Y84531D01*
X-29733D01*
Y84802D01*
X-30004D01*
Y85073D01*
X-30275D01*
Y85344D01*
X-30817D01*
Y85615D01*
X-31088D01*
Y85886D01*
X-31359D01*
Y86157D01*
X-31630D01*
Y86428D01*
X-31901D01*
Y86699D01*
X-32172D01*
Y86970D01*
X-32714D01*
Y87241D01*
X-32985D01*
Y87512D01*
X-33256D01*
Y87783D01*
X-33528D01*
Y88054D01*
X-33798D01*
Y88326D01*
X-34069D01*
Y88596D01*
X-34341D01*
Y88868D01*
X-34612D01*
Y89138D01*
X-34883D01*
Y89410D01*
X-35154D01*
Y89681D01*
X-35425D01*
Y89952D01*
X-35696D01*
Y90223D01*
X-35967D01*
Y90494D01*
X-36238D01*
Y90765D01*
X-36509D01*
Y91307D01*
X-36780D01*
Y91578D01*
X-37051D01*
Y91849D01*
X-37322D01*
Y92662D01*
X-37051D01*
Y92933D01*
X-36780D01*
Y93204D01*
X-36509D01*
Y93475D01*
X-36238D01*
Y93746D01*
X-35696D01*
Y94017D01*
X-35425D01*
Y94288D01*
X-35154D01*
Y94559D01*
X-34883D01*
Y94830D01*
X-34612D01*
Y95101D01*
X-34341D01*
Y95372D01*
X-33798D01*
Y95643D01*
X-33528D01*
Y95914D01*
X-33256D01*
Y96185D01*
X-32985D01*
Y96456D01*
X-32443D01*
Y96727D01*
X-32172D01*
Y96998D01*
X-31630D01*
Y97269D01*
X-31359D01*
Y97540D01*
X-30817D01*
Y97811D01*
X-30546D01*
Y98082D01*
X-30004D01*
Y98353D01*
X-29733D01*
Y98624D01*
X-29191D01*
Y98895D01*
X-28920D01*
Y99166D01*
X-28378D01*
Y99437D01*
X-27836D01*
Y99708D01*
X-27294D01*
Y99979D01*
X-26481D01*
Y100250D01*
X-25939D01*
Y100521D01*
X-25397D01*
Y100792D01*
X-24584D01*
Y101063D01*
X-23771D01*
Y101334D01*
X-22958D01*
Y101605D01*
X-21874D01*
Y101876D01*
X-20519D01*
Y102147D01*
X-16995D01*
Y101876D01*
D02*
G37*
G36*
X53198D02*
X54553D01*
Y101605D01*
X55908D01*
Y101334D01*
X56722D01*
Y101063D01*
X57535D01*
Y100792D01*
X58077D01*
Y100521D01*
X58890D01*
Y100250D01*
X59432D01*
Y99979D01*
X59974D01*
Y99708D01*
X60516D01*
Y99437D01*
X61058D01*
Y99166D01*
X61600D01*
Y98895D01*
X61871D01*
Y98624D01*
X62413D01*
Y98353D01*
X62955D01*
Y98082D01*
X63226D01*
Y97811D01*
X63768D01*
Y97540D01*
X64039D01*
Y97269D01*
X64310D01*
Y96998D01*
X64852D01*
Y96727D01*
X65123D01*
Y96456D01*
X65665D01*
Y96185D01*
X65936D01*
Y95914D01*
X66207D01*
Y95643D01*
X66478D01*
Y95372D01*
X67020D01*
Y95101D01*
X67291D01*
Y94830D01*
X67562D01*
Y94559D01*
X67833D01*
Y94288D01*
X68104D01*
Y94017D01*
X68375D01*
Y93746D01*
X68646D01*
Y93475D01*
X68917D01*
Y93204D01*
X69188D01*
Y92933D01*
X69730D01*
Y92391D01*
X70001D01*
Y92120D01*
X69730D01*
Y91578D01*
X69459D01*
Y91307D01*
X69188D01*
Y91036D01*
X68917D01*
Y90765D01*
X68646D01*
Y90494D01*
X68375D01*
Y90223D01*
X68104D01*
Y89952D01*
X67833D01*
Y89681D01*
X67562D01*
Y89410D01*
X67291D01*
Y89138D01*
X67020D01*
Y88868D01*
X66749D01*
Y88596D01*
X66478D01*
Y88326D01*
X66207D01*
Y88054D01*
X65936D01*
Y87783D01*
X65665D01*
Y87512D01*
X65394D01*
Y87241D01*
X65123D01*
Y86970D01*
X64581D01*
Y86699D01*
X64310D01*
Y86428D01*
X64039D01*
Y86157D01*
X63768D01*
Y85886D01*
X63497D01*
Y85615D01*
X62955D01*
Y85344D01*
X62684D01*
Y85073D01*
X62413D01*
Y84802D01*
X61871D01*
Y84531D01*
X61600D01*
Y84260D01*
X61058D01*
Y83989D01*
X60787D01*
Y83718D01*
X60516D01*
Y83447D01*
X59974D01*
Y83176D01*
X59432D01*
Y82905D01*
X59161D01*
Y82634D01*
X58619D01*
Y82363D01*
X58077D01*
Y82092D01*
X57535D01*
Y81821D01*
X56993D01*
Y81550D01*
X56451D01*
Y81279D01*
X55637D01*
Y81008D01*
X55095D01*
Y80737D01*
X54011D01*
Y80466D01*
X53198D01*
Y80195D01*
X50488D01*
Y79924D01*
X50217D01*
Y80195D01*
X48320D01*
Y80466D01*
X47236D01*
Y80737D01*
X46423D01*
Y81008D01*
X45610D01*
Y81279D01*
X44797D01*
Y81550D01*
X44255D01*
Y81821D01*
X43442D01*
Y82092D01*
X42900D01*
Y82363D01*
X42358D01*
Y82634D01*
X41544D01*
Y82905D01*
X41002D01*
Y83176D01*
X40189D01*
Y83447D01*
X39647D01*
Y83718D01*
X38834D01*
Y83989D01*
X38292D01*
Y84260D01*
X37479D01*
Y84531D01*
X36666D01*
Y84802D01*
X35853D01*
Y85073D01*
X35040D01*
Y85344D01*
X34227D01*
Y85615D01*
X33414D01*
Y85886D01*
X32601D01*
Y86157D01*
X31517D01*
Y86428D01*
X30704D01*
Y86699D01*
X29620D01*
Y86970D01*
X28807D01*
Y87241D01*
X27723D01*
Y87512D01*
X26909D01*
Y87783D01*
X26096D01*
Y88054D01*
X25283D01*
Y88326D01*
X25012D01*
Y88596D01*
X25554D01*
Y88326D01*
X31246D01*
Y88054D01*
X39105D01*
Y88326D01*
X42629D01*
Y88596D01*
X44255D01*
Y88868D01*
X45610D01*
Y89138D01*
X46965D01*
Y89410D01*
X48049D01*
Y89681D01*
X49133D01*
Y89952D01*
X49946D01*
Y90223D01*
X50759D01*
Y90494D01*
X51572D01*
Y90765D01*
X52385D01*
Y91036D01*
X53198D01*
Y91307D01*
X52927D01*
Y91578D01*
X52114D01*
Y91849D01*
X50759D01*
Y92120D01*
X49404D01*
Y92391D01*
X48320D01*
Y92662D01*
X46694D01*
Y92933D01*
X44797D01*
Y93204D01*
X35040D01*
Y92933D01*
X32330D01*
Y92662D01*
X29891D01*
Y92391D01*
X27181D01*
Y92662D01*
X27994D01*
Y92933D01*
X28807D01*
Y93204D01*
X29349D01*
Y93475D01*
X30162D01*
Y93746D01*
X30975D01*
Y94017D01*
X31788D01*
Y94288D01*
X32330D01*
Y94559D01*
X33143D01*
Y94830D01*
X33685D01*
Y95101D01*
X34498D01*
Y95372D01*
X35040D01*
Y95643D01*
X35853D01*
Y95914D01*
X36395D01*
Y96185D01*
X37208D01*
Y96456D01*
X37750D01*
Y96727D01*
X38292D01*
Y96998D01*
X38834D01*
Y97269D01*
X39376D01*
Y97540D01*
X39918D01*
Y97811D01*
X40460D01*
Y98082D01*
X41002D01*
Y98353D01*
X41273D01*
Y98624D01*
X41816D01*
Y98895D01*
X42358D01*
Y99166D01*
X42900D01*
Y99437D01*
X43442D01*
Y99708D01*
X43984D01*
Y99979D01*
X44526D01*
Y100250D01*
X45068D01*
Y100521D01*
X45610D01*
Y100792D01*
X46152D01*
Y101063D01*
X46694D01*
Y101334D01*
X47236D01*
Y101605D01*
X48320D01*
Y101876D01*
X49675D01*
Y102147D01*
X53198D01*
Y101876D01*
D02*
G37*
G36*
X17695Y94559D02*
X18237D01*
Y94288D01*
X18779D01*
Y94017D01*
X19050D01*
Y93746D01*
X19321D01*
Y93475D01*
X19592D01*
Y92933D01*
X19863D01*
Y92391D01*
X20134D01*
Y91036D01*
X20405D01*
Y90765D01*
X20134D01*
Y89410D01*
X19863D01*
Y89138D01*
Y88868D01*
X19592D01*
Y88596D01*
X19321D01*
Y88326D01*
X19050D01*
Y88054D01*
X18779D01*
Y87783D01*
X18508D01*
Y87512D01*
X17966D01*
Y87241D01*
X17153D01*
Y86970D01*
X15527D01*
Y87241D01*
X14714D01*
Y87512D01*
X14172D01*
Y87783D01*
X13630D01*
Y88054D01*
X13359D01*
Y88326D01*
X13088D01*
Y88868D01*
X12817D01*
Y89138D01*
X12546D01*
Y89952D01*
X12275D01*
Y92120D01*
X12546D01*
Y92662D01*
X12817D01*
Y93204D01*
X13088D01*
Y93475D01*
X13359D01*
Y93746D01*
X13630D01*
Y94017D01*
X13901D01*
Y94288D01*
X14172D01*
Y94559D01*
X14714D01*
Y94830D01*
X17695D01*
Y94559D01*
D02*
G37*
G36*
X7396Y85073D02*
X7125D01*
Y85344D01*
X7396D01*
Y85073D01*
D02*
G37*
G36*
X11461Y83447D02*
X11191D01*
Y83718D01*
X11461D01*
Y83447D01*
D02*
G37*
G36*
X25554Y85073D02*
X26096D01*
Y84802D01*
X26367D01*
Y84531D01*
X26909D01*
Y84260D01*
X27723D01*
Y83989D01*
X28265D01*
Y83718D01*
X28807D01*
Y83447D01*
X29349D01*
Y83176D01*
X29891D01*
Y82905D01*
X30433D01*
Y82634D01*
X31246D01*
Y82363D01*
X31788D01*
Y82092D01*
X32330D01*
Y81821D01*
X33143D01*
Y81550D01*
X33685D01*
Y81279D01*
X34498D01*
Y81008D01*
X35311D01*
Y80737D01*
X35853D01*
Y80466D01*
X36666D01*
Y80195D01*
X37479D01*
Y79924D01*
X38563D01*
Y79653D01*
X39647D01*
Y79382D01*
X40731D01*
Y79111D01*
X41816D01*
Y78840D01*
X42629D01*
Y78569D01*
X43713D01*
Y78298D01*
X44797D01*
Y78027D01*
X45610D01*
Y77756D01*
X46152D01*
Y77485D01*
X46965D01*
Y77214D01*
X47507D01*
Y76943D01*
X47778D01*
Y76672D01*
X48320D01*
Y76401D01*
X48591D01*
Y76130D01*
X48862D01*
Y75859D01*
X49404D01*
Y75588D01*
X49675D01*
Y75317D01*
X49946D01*
Y75046D01*
X50217D01*
Y74503D01*
X50488D01*
Y74233D01*
X50759D01*
Y73962D01*
X51030D01*
Y73419D01*
X51301D01*
Y73148D01*
X51572D01*
Y72606D01*
X51843D01*
Y72064D01*
X52114D01*
Y71522D01*
X52385D01*
Y70980D01*
X52656D01*
Y70438D01*
X52927D01*
Y69625D01*
X53198D01*
Y69083D01*
X53469D01*
Y68270D01*
X53740D01*
Y67186D01*
X54011D01*
Y66102D01*
X54282D01*
Y65018D01*
X54553D01*
Y63121D01*
X54824D01*
Y60682D01*
X55095D01*
Y56345D01*
Y56074D01*
X54824D01*
Y54177D01*
X50217D01*
Y54448D01*
X46965D01*
Y54719D01*
X45068D01*
Y54990D01*
X43713D01*
Y55261D01*
X42629D01*
Y55532D01*
X41273D01*
Y55803D01*
X40460D01*
Y56074D01*
X39647D01*
Y56345D01*
X39105D01*
Y56616D01*
X38292D01*
Y56887D01*
X37750D01*
Y57158D01*
X37208D01*
Y57429D01*
X36666D01*
Y57700D01*
X36124D01*
Y57971D01*
X35853D01*
Y58243D01*
X35311D01*
Y58513D01*
X35040D01*
Y58784D01*
X34498D01*
Y59056D01*
X34227D01*
Y59327D01*
X33956D01*
Y59598D01*
X33685D01*
Y59869D01*
X33414D01*
Y60140D01*
X33143D01*
Y60411D01*
X32872D01*
Y60682D01*
X32601D01*
Y60953D01*
X32330D01*
Y61224D01*
X32059D01*
Y61495D01*
X31788D01*
Y62037D01*
X31517D01*
Y62308D01*
X31246D01*
Y62850D01*
X30975D01*
Y63392D01*
X30704D01*
Y63934D01*
X30433D01*
Y64476D01*
X30162D01*
Y65018D01*
X29891D01*
Y65831D01*
X29620D01*
Y66373D01*
X29349D01*
Y67186D01*
X29078D01*
Y67728D01*
X28807D01*
Y68541D01*
X28536D01*
Y69083D01*
X28265D01*
Y69896D01*
X27994D01*
Y70438D01*
X27723D01*
Y71251D01*
X27452D01*
Y71793D01*
X27181D01*
Y72335D01*
X26909D01*
Y73148D01*
X26639D01*
Y73691D01*
X26367D01*
Y74233D01*
X26096D01*
Y74775D01*
X25826D01*
Y75317D01*
X25554D01*
Y75859D01*
X25283D01*
Y76401D01*
X25012D01*
Y76943D01*
X24741D01*
Y77485D01*
X24470D01*
Y78027D01*
X24199D01*
Y78569D01*
X23928D01*
Y79111D01*
X23657D01*
Y79653D01*
X23386D01*
Y79924D01*
X23115D01*
Y80466D01*
X22844D01*
Y81008D01*
X22573D01*
Y81550D01*
X22302D01*
Y82092D01*
X22031D01*
Y82634D01*
X21760D01*
Y82905D01*
X22031D01*
Y82634D01*
X22302D01*
Y82363D01*
X22573D01*
Y82092D01*
X22844D01*
Y81821D01*
X23115D01*
Y81550D01*
X23386D01*
Y81279D01*
X23657D01*
Y81008D01*
X23928D01*
Y80737D01*
X24199D01*
Y80195D01*
X24470D01*
Y79924D01*
X24741D01*
Y79653D01*
X25012D01*
Y79382D01*
X25283D01*
Y79111D01*
X25554D01*
Y78840D01*
X25826D01*
Y78569D01*
X26096D01*
Y78298D01*
X26367D01*
Y78027D01*
X26639D01*
Y77756D01*
X26909D01*
Y77485D01*
X27181D01*
Y77214D01*
X27452D01*
Y76943D01*
X27723D01*
Y76672D01*
X27994D01*
Y76401D01*
X28265D01*
Y76130D01*
X28536D01*
Y75859D01*
X28807D01*
Y75588D01*
X29078D01*
Y75317D01*
X29349D01*
Y75046D01*
X29620D01*
Y74775D01*
X29891D01*
Y74503D01*
X30162D01*
Y74233D01*
X30433D01*
Y73962D01*
X30704D01*
Y73691D01*
X30975D01*
Y73419D01*
X31517D01*
Y73148D01*
X31788D01*
Y72877D01*
X32059D01*
Y72606D01*
X32330D01*
Y72335D01*
X32601D01*
Y72064D01*
X32872D01*
Y71793D01*
X33414D01*
Y71522D01*
X33685D01*
Y71251D01*
X34227D01*
Y70980D01*
X34498D01*
Y70709D01*
X34769D01*
Y70438D01*
X35311D01*
Y70167D01*
X35582D01*
Y69896D01*
X36124D01*
Y69625D01*
X36395D01*
Y69354D01*
X36937D01*
Y69083D01*
X37479D01*
Y68812D01*
X37750D01*
Y68541D01*
X38292D01*
Y68270D01*
X38834D01*
Y67999D01*
X39105D01*
Y67728D01*
X39647D01*
Y67457D01*
X40460D01*
Y67186D01*
X41002D01*
Y66915D01*
X41544D01*
Y66644D01*
X42087D01*
Y66373D01*
X42629D01*
Y66102D01*
X43171D01*
Y66373D01*
X42900D01*
Y66915D01*
X42629D01*
Y67457D01*
X42358D01*
Y67999D01*
X42087D01*
Y68270D01*
X41816D01*
Y68812D01*
X41544D01*
Y69354D01*
X41273D01*
Y69625D01*
X41002D01*
Y70167D01*
X40731D01*
Y70438D01*
X40460D01*
Y70980D01*
X40189D01*
Y71251D01*
X39918D01*
Y71522D01*
X39647D01*
Y72064D01*
X39376D01*
Y72335D01*
X39105D01*
Y72606D01*
X38834D01*
Y72877D01*
X38563D01*
Y73419D01*
X38292D01*
Y73691D01*
X38021D01*
Y73962D01*
X37750D01*
Y74233D01*
X37479D01*
Y74503D01*
X37208D01*
Y74775D01*
X36937D01*
Y75046D01*
X36666D01*
Y75317D01*
X36395D01*
Y75588D01*
X36124D01*
Y75859D01*
X35853D01*
Y76130D01*
X35582D01*
Y76401D01*
X35311D01*
Y76672D01*
X35040D01*
Y76943D01*
X34769D01*
Y77214D01*
X34498D01*
Y77485D01*
X34227D01*
Y77756D01*
X33956D01*
Y78027D01*
X33685D01*
Y78298D01*
X33414D01*
Y78569D01*
X33143D01*
Y78840D01*
X32601D01*
Y79111D01*
X32330D01*
Y79382D01*
X32059D01*
Y79653D01*
X31788D01*
Y79924D01*
X31517D01*
Y80195D01*
X31246D01*
Y80466D01*
X30704D01*
Y80737D01*
X30433D01*
Y81008D01*
X30162D01*
Y81279D01*
X29891D01*
Y81550D01*
X29349D01*
Y81821D01*
X29078D01*
Y82092D01*
X28807D01*
Y82363D01*
X28536D01*
Y82634D01*
X27994D01*
Y82905D01*
X27723D01*
Y83176D01*
X27452D01*
Y83447D01*
X27181D01*
Y83718D01*
X26639D01*
Y83989D01*
X26367D01*
Y84260D01*
X26096D01*
Y84531D01*
X25554D01*
Y84802D01*
X25283D01*
Y85073D01*
X25012D01*
Y85344D01*
X25554D01*
Y85073D01*
D02*
G37*
G36*
X-53854Y59598D02*
X-54125D01*
Y59869D01*
X-53854D01*
Y59598D01*
D02*
G37*
G36*
X-56835Y81008D02*
X-56564D01*
Y80737D01*
X-56293D01*
Y80466D01*
X-56022D01*
Y80195D01*
X-55751D01*
Y79924D01*
X-55480D01*
Y79653D01*
X-55209D01*
Y79382D01*
X-54938D01*
Y79111D01*
X-54667D01*
Y78840D01*
X-54396D01*
Y78569D01*
X-54125D01*
Y78027D01*
X-53854D01*
Y77756D01*
X-53583D01*
Y77485D01*
X-53312D01*
Y76943D01*
X-53041D01*
Y76672D01*
X-52770D01*
Y76130D01*
X-52499D01*
Y75588D01*
X-52228D01*
Y75046D01*
X-51957D01*
Y74503D01*
X-51686D01*
Y73962D01*
X-51415D01*
Y72877D01*
X-51144D01*
Y70709D01*
X-51415D01*
Y69625D01*
X-51686D01*
Y69083D01*
X-51957D01*
Y68270D01*
X-52228D01*
Y67728D01*
X-52499D01*
Y67186D01*
X-52770D01*
Y66644D01*
X-53041D01*
Y66102D01*
X-53312D01*
Y65560D01*
X-53583D01*
Y65018D01*
X-53854D01*
Y64476D01*
X-54125D01*
Y63663D01*
X-54396D01*
Y63121D01*
X-54667D01*
Y62850D01*
Y62579D01*
Y62308D01*
X-54938D01*
Y61495D01*
X-55209D01*
Y60953D01*
X-55480D01*
Y60140D01*
X-55751D01*
Y59598D01*
X-56022D01*
Y60682D01*
X-55751D01*
Y63663D01*
X-55480D01*
Y67186D01*
X-55751D01*
Y68812D01*
X-56022D01*
Y70167D01*
X-56293D01*
Y71251D01*
X-56564D01*
Y72064D01*
X-56835D01*
Y72877D01*
X-57106D01*
Y72335D01*
X-57377D01*
Y71522D01*
X-57648D01*
Y70438D01*
X-57919D01*
Y69083D01*
X-58190D01*
Y66644D01*
X-58461D01*
Y65018D01*
X-58190D01*
Y60953D01*
X-57919D01*
Y59598D01*
X-58190D01*
Y60140D01*
X-58461D01*
Y60953D01*
X-58732D01*
Y61766D01*
X-59003D01*
Y62308D01*
X-59274D01*
Y63121D01*
X-59545D01*
Y63663D01*
X-59816D01*
Y64205D01*
X-60087D01*
Y65018D01*
X-60358D01*
Y65560D01*
X-60629D01*
Y66102D01*
X-60900D01*
Y66644D01*
X-61171D01*
Y67457D01*
X-61442D01*
Y67999D01*
X-61713D01*
Y68541D01*
X-61984D01*
Y69083D01*
X-62255D01*
Y69625D01*
X-62526D01*
Y70438D01*
X-62797D01*
Y73148D01*
X-62526D01*
Y74233D01*
X-62255D01*
Y74775D01*
X-61984D01*
Y75317D01*
X-61713D01*
Y75859D01*
X-61442D01*
Y76401D01*
X-61171D01*
Y76943D01*
X-60900D01*
Y77214D01*
X-60629D01*
Y77756D01*
X-60358D01*
Y78027D01*
X-60087D01*
Y78298D01*
X-59816D01*
Y78569D01*
X-59545D01*
Y79111D01*
X-59274D01*
Y79382D01*
X-59003D01*
Y79653D01*
X-58732D01*
Y79924D01*
X-58461D01*
Y80195D01*
X-58190D01*
Y80466D01*
X-57648D01*
Y80737D01*
X-57377D01*
Y81008D01*
X-57106D01*
Y81279D01*
X-56835D01*
Y81008D01*
D02*
G37*
G36*
X-73367Y74503D02*
X-71741D01*
Y74233D01*
X-70657D01*
Y73962D01*
X-69573D01*
Y73691D01*
X-68760D01*
Y73419D01*
X-68218D01*
Y73148D01*
X-67676D01*
Y72877D01*
X-67134D01*
Y72606D01*
X-66592D01*
Y72335D01*
X-66321D01*
Y72064D01*
X-65779D01*
Y71793D01*
X-65508D01*
Y71522D01*
X-65237D01*
Y71251D01*
X-64966D01*
Y70980D01*
X-64695D01*
Y70438D01*
X-64423D01*
Y69896D01*
X-64152D01*
Y69354D01*
X-63882D01*
Y68541D01*
X-63611D01*
Y67728D01*
X-63340D01*
Y66915D01*
X-63068D01*
Y66102D01*
X-62797D01*
Y65289D01*
X-62526D01*
Y64747D01*
X-62255D01*
Y64205D01*
X-61984D01*
Y63392D01*
X-61713D01*
Y62850D01*
X-61442D01*
Y62308D01*
X-61171D01*
Y61766D01*
X-60900D01*
Y61224D01*
X-60629D01*
Y60953D01*
X-60358D01*
Y60411D01*
X-60087D01*
Y59869D01*
X-59816D01*
Y59598D01*
X-60087D01*
Y59869D01*
X-60358D01*
Y60140D01*
X-60629D01*
Y60411D01*
X-60900D01*
Y60682D01*
X-61171D01*
Y60953D01*
X-61442D01*
Y61224D01*
X-61713D01*
Y61766D01*
X-61984D01*
Y62037D01*
X-62255D01*
Y62308D01*
X-62526D01*
Y62579D01*
X-62797D01*
Y62850D01*
X-63068D01*
Y63121D01*
X-63340D01*
Y63392D01*
X-63611D01*
Y63663D01*
X-63882D01*
Y63934D01*
X-64152D01*
Y64205D01*
X-64423D01*
Y64476D01*
X-64695D01*
Y64747D01*
X-64966D01*
Y65018D01*
X-65237D01*
Y65289D01*
X-65779D01*
Y65560D01*
X-66050D01*
Y65831D01*
X-66321D01*
Y66102D01*
X-66863D01*
Y66373D01*
X-67134D01*
Y66644D01*
X-67405D01*
Y66915D01*
X-67947D01*
Y67186D01*
X-68218D01*
Y67457D01*
X-68760D01*
Y67728D01*
X-69302D01*
Y67999D01*
X-69844D01*
Y68270D01*
X-70386D01*
Y67999D01*
X-70115D01*
Y67457D01*
X-69844D01*
Y67186D01*
X-69573D01*
Y66644D01*
X-69302D01*
Y66102D01*
X-69031D01*
Y65831D01*
X-68760D01*
Y65289D01*
X-68489D01*
Y65018D01*
X-68218D01*
Y64476D01*
X-67947D01*
Y64205D01*
X-67676D01*
Y63934D01*
X-67405D01*
Y63392D01*
X-67134D01*
Y63121D01*
X-66863D01*
Y62850D01*
X-66592D01*
Y62579D01*
X-66321D01*
Y62308D01*
X-66050D01*
Y62037D01*
X-65779D01*
Y61766D01*
X-65508D01*
Y61495D01*
X-65237D01*
Y61224D01*
X-64966D01*
Y60953D01*
X-64695D01*
Y60682D01*
X-64423D01*
Y60411D01*
X-63882D01*
Y60140D01*
X-63611D01*
Y59869D01*
X-63340D01*
Y59598D01*
X-63068D01*
Y59327D01*
X-62797D01*
Y59056D01*
X-62526D01*
Y58784D01*
X-61984D01*
Y58513D01*
X-61713D01*
Y58243D01*
X-61442D01*
Y57971D01*
X-61171D01*
Y57700D01*
X-61442D01*
Y57971D01*
X-61984D01*
Y58243D01*
X-62526D01*
Y58513D01*
X-63068D01*
Y58784D01*
X-63611D01*
Y59056D01*
X-64152D01*
Y59327D01*
X-64966D01*
Y59598D01*
X-65508D01*
Y59869D01*
X-66050D01*
Y60140D01*
X-66863D01*
Y60411D01*
X-67405D01*
Y60682D01*
X-67947D01*
Y60953D01*
X-68760D01*
Y61224D01*
X-69302D01*
Y61495D01*
X-70115D01*
Y61766D01*
X-70928D01*
Y62037D01*
X-71741D01*
Y62308D01*
X-72012D01*
Y62579D01*
X-72554D01*
Y62850D01*
X-72825D01*
Y63121D01*
X-73096D01*
Y63392D01*
X-73638D01*
Y63934D01*
X-73909D01*
Y64205D01*
X-74180D01*
Y64476D01*
X-74451D01*
Y65018D01*
X-74722D01*
Y65289D01*
X-74993D01*
Y66102D01*
X-75264D01*
Y66644D01*
X-75535D01*
Y67457D01*
X-75806D01*
Y68541D01*
X-76077D01*
Y69896D01*
X-76348D01*
Y74503D01*
X-76077D01*
Y74775D01*
X-73367D01*
Y74503D01*
D02*
G37*
G36*
X-37864D02*
X-37593D01*
Y69896D01*
X-37864D01*
Y68270D01*
X-38135D01*
Y67186D01*
X-38406D01*
Y66644D01*
X-38677D01*
Y65831D01*
X-38948D01*
Y65289D01*
X-39219D01*
Y64747D01*
X-39490D01*
Y64476D01*
X-39761D01*
Y64205D01*
X-40032D01*
Y63934D01*
X-40303D01*
Y63663D01*
X-40574D01*
Y63392D01*
X-40845D01*
Y63121D01*
X-41116D01*
Y62850D01*
X-41387D01*
Y62579D01*
X-41929D01*
Y62308D01*
X-42471D01*
Y62037D01*
X-43284D01*
Y61766D01*
X-43826D01*
Y61495D01*
X-44639D01*
Y61224D01*
X-45181D01*
Y60953D01*
X-45994D01*
Y60682D01*
X-46536D01*
Y60411D01*
X-47349D01*
Y60140D01*
X-48162D01*
Y59869D01*
X-48705D01*
Y59598D01*
X-49247D01*
Y59327D01*
X-49789D01*
Y59056D01*
X-50331D01*
Y58784D01*
X-50873D01*
Y58513D01*
X-51415D01*
Y58243D01*
X-51957D01*
Y57971D01*
X-52499D01*
Y58243D01*
X-52228D01*
Y58513D01*
X-51957D01*
Y58784D01*
X-51686D01*
Y59056D01*
X-51415D01*
Y59327D01*
X-50873D01*
Y59598D01*
X-50602D01*
Y59869D01*
X-50331D01*
Y60140D01*
X-50060D01*
Y60411D01*
X-49789D01*
Y60682D01*
X-49518D01*
Y60953D01*
X-49247D01*
Y61224D01*
X-48976D01*
Y61495D01*
X-48705D01*
Y61766D01*
X-48162D01*
Y62037D01*
X-47891D01*
Y62308D01*
X-47620D01*
Y62579D01*
X-47349D01*
Y63121D01*
X-47078D01*
Y63392D01*
X-46807D01*
Y63663D01*
X-46536D01*
Y63934D01*
X-46265D01*
Y64205D01*
X-45994D01*
Y64476D01*
X-45723D01*
Y65018D01*
X-45452D01*
Y65289D01*
X-45181D01*
Y65831D01*
X-44910D01*
Y66102D01*
X-44639D01*
Y66644D01*
X-44368D01*
Y66915D01*
X-44097D01*
Y67457D01*
X-43826D01*
Y67999D01*
X-43555D01*
Y68541D01*
X-43826D01*
Y68270D01*
X-44368D01*
Y67999D01*
X-44639D01*
Y67728D01*
X-45181D01*
Y67457D01*
X-45723D01*
Y67186D01*
X-46265D01*
Y66915D01*
X-46536D01*
Y66644D01*
X-46807D01*
Y66373D01*
X-47349D01*
Y66102D01*
X-47620D01*
Y65831D01*
X-47891D01*
Y65560D01*
X-48433D01*
Y65289D01*
X-48705D01*
Y65018D01*
X-48976D01*
Y64747D01*
X-49247D01*
Y64476D01*
X-49518D01*
Y64205D01*
X-49789D01*
Y63934D01*
X-50060D01*
Y63663D01*
X-50331D01*
Y63392D01*
X-50602D01*
Y63121D01*
X-50873D01*
Y62850D01*
X-51144D01*
Y62579D01*
X-51415D01*
Y62308D01*
X-51686D01*
Y62037D01*
X-51957D01*
Y61766D01*
X-52228D01*
Y61224D01*
X-52499D01*
Y60953D01*
X-52770D01*
Y60682D01*
X-53041D01*
Y60411D01*
X-53312D01*
Y60140D01*
X-53583D01*
Y59869D01*
X-53854D01*
Y60411D01*
X-53583D01*
Y60953D01*
X-53312D01*
Y61495D01*
X-53041D01*
Y62037D01*
X-52770D01*
Y62579D01*
X-52499D01*
Y62850D01*
X-52228D01*
Y63392D01*
X-51957D01*
Y64205D01*
X-51686D01*
Y64747D01*
X-51415D01*
Y65560D01*
X-51144D01*
Y66102D01*
X-50873D01*
Y66915D01*
X-50602D01*
Y67728D01*
X-50331D01*
Y68541D01*
X-50060D01*
Y69083D01*
X-49789D01*
Y69625D01*
X-49518D01*
Y70167D01*
X-49247D01*
Y70709D01*
X-48976D01*
Y70980D01*
X-48705D01*
Y71251D01*
X-48433D01*
Y71522D01*
X-48162D01*
Y71793D01*
X-47891D01*
Y72064D01*
X-47620D01*
Y72335D01*
X-47078D01*
Y72606D01*
X-46807D01*
Y72877D01*
X-46265D01*
Y73148D01*
X-45723D01*
Y73419D01*
X-45181D01*
Y73691D01*
X-44368D01*
Y73962D01*
X-43284D01*
Y74233D01*
X-42471D01*
Y74503D01*
X-40574D01*
Y74775D01*
X-37864D01*
Y74503D01*
D02*
G37*
G36*
X-52499Y57700D02*
X-52770D01*
Y57971D01*
X-52499D01*
Y57700D01*
D02*
G37*
G36*
X-73638Y61224D02*
X-72554D01*
Y60953D01*
X-72012D01*
Y60682D01*
X-71470D01*
Y60411D01*
X-70928D01*
Y60140D01*
X-70386D01*
Y59869D01*
X-70115D01*
Y59598D01*
X-69573D01*
Y59327D01*
X-69031D01*
Y59056D01*
X-68489D01*
Y58784D01*
X-67947D01*
Y58513D01*
X-67405D01*
Y58243D01*
X-66592D01*
Y57971D01*
X-66050D01*
Y57700D01*
X-65237D01*
Y57429D01*
X-64423D01*
Y57158D01*
X-63882D01*
Y56887D01*
X-63068D01*
Y56616D01*
X-64695D01*
Y56887D01*
X-72554D01*
Y56616D01*
X-73909D01*
Y56345D01*
X-74993D01*
Y56074D01*
X-75806D01*
Y55803D01*
X-74993D01*
Y55532D01*
X-74180D01*
Y55261D01*
X-73367D01*
Y54990D01*
X-72012D01*
Y54719D01*
X-70386D01*
Y54448D01*
X-61713D01*
Y54177D01*
X-62526D01*
Y53906D01*
X-63611D01*
Y53635D01*
X-64695D01*
Y53364D01*
X-65508D01*
Y53093D01*
X-66321D01*
Y52822D01*
X-67134D01*
Y52551D01*
X-67947D01*
Y52280D01*
X-68489D01*
Y52009D01*
X-69031D01*
Y51738D01*
X-69844D01*
Y51467D01*
X-70386D01*
Y51196D01*
X-71199D01*
Y50925D01*
X-71741D01*
Y50654D01*
X-72825D01*
Y50383D01*
X-74451D01*
Y50112D01*
X-74993D01*
Y50383D01*
X-76077D01*
Y50654D01*
X-77161D01*
Y50925D01*
X-77703D01*
Y51196D01*
X-78246D01*
Y51467D01*
X-78787D01*
Y51738D01*
X-79330D01*
Y52009D01*
X-79601D01*
Y52280D01*
X-80143D01*
Y52551D01*
X-80414D01*
Y52822D01*
X-80685D01*
Y53093D01*
X-80956D01*
Y53364D01*
X-81498D01*
Y53635D01*
X-81769D01*
Y53906D01*
X-82040D01*
Y54177D01*
X-82311D01*
Y54448D01*
X-82582D01*
Y54719D01*
X-82853D01*
Y54990D01*
X-83124D01*
Y55261D01*
X-83395D01*
Y55532D01*
X-83666D01*
Y55803D01*
X-83937D01*
Y56074D01*
X-84208D01*
Y56345D01*
Y56616D01*
X-83937D01*
Y56887D01*
X-83666D01*
Y57158D01*
X-83395D01*
Y57429D01*
X-83124D01*
Y57700D01*
X-82853D01*
Y57971D01*
X-82582D01*
Y58243D01*
X-82040D01*
Y58513D01*
X-81769D01*
Y58784D01*
X-81227D01*
Y59056D01*
X-80956D01*
Y59327D01*
X-80685D01*
Y59598D01*
X-80143D01*
Y59869D01*
X-79601D01*
Y60140D01*
X-79058D01*
Y60411D01*
X-78517D01*
Y60682D01*
X-77974D01*
Y60953D01*
X-77161D01*
Y61224D01*
X-76077D01*
Y61495D01*
X-73638D01*
Y61224D01*
D02*
G37*
G36*
X18508Y82905D02*
X18779D01*
Y82363D01*
X19050D01*
Y81550D01*
X19321D01*
Y80737D01*
X19592D01*
Y79924D01*
X19863D01*
Y79382D01*
X20134D01*
Y78569D01*
X20405D01*
Y77756D01*
X20676D01*
Y77214D01*
X20947D01*
Y76401D01*
X21218D01*
Y75588D01*
X21489D01*
Y74775D01*
X21760D01*
Y74233D01*
X22031D01*
Y73419D01*
X22302D01*
Y72877D01*
X22573D01*
Y72335D01*
X22844D01*
Y71522D01*
X23115D01*
Y70980D01*
X23386D01*
Y70438D01*
X23657D01*
Y69896D01*
X23928D01*
Y69354D01*
X24199D01*
Y68541D01*
X24470D01*
Y67999D01*
X24741D01*
Y67457D01*
X25012D01*
Y66915D01*
X25283D01*
Y66373D01*
X25554D01*
Y65831D01*
X25826D01*
Y65289D01*
X26096D01*
Y64747D01*
X26367D01*
Y64205D01*
X26639D01*
Y63392D01*
X26909D01*
Y62850D01*
X27181D01*
Y62037D01*
X27452D01*
Y60953D01*
X27723D01*
Y56887D01*
X27452D01*
Y55532D01*
X27181D01*
Y54719D01*
X26909D01*
Y53906D01*
X26639D01*
Y53364D01*
X26367D01*
Y52551D01*
X26096D01*
Y52009D01*
X25826D01*
Y51467D01*
X25554D01*
Y50925D01*
X25283D01*
Y50383D01*
X25012D01*
Y50112D01*
X24741D01*
Y49570D01*
X24470D01*
Y49028D01*
X24199D01*
Y48757D01*
X23928D01*
Y48215D01*
X23657D01*
Y47944D01*
X23386D01*
Y47402D01*
X23115D01*
Y47131D01*
X22844D01*
Y46589D01*
X22573D01*
Y46318D01*
X22302D01*
Y46047D01*
X22031D01*
Y45776D01*
X21760D01*
Y45234D01*
X21489D01*
Y44963D01*
X21218D01*
Y44692D01*
X20947D01*
Y44420D01*
X20676D01*
Y44149D01*
X20405D01*
Y43878D01*
X20134D01*
Y43337D01*
X19863D01*
Y43065D01*
X19592D01*
Y42794D01*
X19321D01*
Y42523D01*
X19050D01*
Y42252D01*
X18779D01*
Y41981D01*
X18508D01*
Y41710D01*
X18237D01*
Y41439D01*
X17966D01*
Y41168D01*
X17695D01*
Y40897D01*
X17424D01*
Y40626D01*
X17153D01*
Y40355D01*
X16611D01*
Y40084D01*
X16069D01*
Y40355D01*
X15798D01*
Y40626D01*
X15256D01*
Y40897D01*
X14985D01*
Y41168D01*
X14714D01*
Y41439D01*
X14443D01*
Y41710D01*
X14172D01*
Y41981D01*
X13901D01*
Y42252D01*
X13630D01*
Y42523D01*
X13359D01*
Y42794D01*
X13088D01*
Y43065D01*
X12817D01*
Y43337D01*
X12546D01*
Y43608D01*
X12275D01*
Y43878D01*
X12004D01*
Y44149D01*
X11732D01*
Y44420D01*
X11461D01*
Y44963D01*
X11191D01*
Y45234D01*
X10920D01*
Y45505D01*
X10648D01*
Y45776D01*
X10377D01*
Y46047D01*
X10106D01*
Y46318D01*
X9835D01*
Y46860D01*
X9564D01*
Y47131D01*
X9293D01*
Y47673D01*
X9022D01*
Y47944D01*
X8751D01*
Y48215D01*
X8480D01*
Y48757D01*
X8209D01*
Y49028D01*
X7938D01*
Y49570D01*
X7667D01*
Y50112D01*
X7396D01*
Y50383D01*
X7125D01*
Y50654D01*
Y50925D01*
X6854D01*
Y51467D01*
X6583D01*
Y52009D01*
X6312D01*
Y52551D01*
X6041D01*
Y53093D01*
X5770D01*
Y53906D01*
X5499D01*
Y54719D01*
X5228D01*
Y55532D01*
X4957D01*
Y56887D01*
X4686D01*
Y60411D01*
X4957D01*
Y61495D01*
X5228D01*
Y62308D01*
X5499D01*
Y63121D01*
X5770D01*
Y63663D01*
X6041D01*
Y64205D01*
X6312D01*
Y64747D01*
X6583D01*
Y65289D01*
X6854D01*
Y65831D01*
X7125D01*
Y66373D01*
X7396D01*
Y66915D01*
X7667D01*
Y67457D01*
X7938D01*
Y67999D01*
X8209D01*
Y68541D01*
X8480D01*
Y69083D01*
X8751D01*
Y69625D01*
X9022D01*
Y70167D01*
X9293D01*
Y70709D01*
X9564D01*
Y71251D01*
X9835D01*
Y71793D01*
X10106D01*
Y72335D01*
X10377D01*
Y72877D01*
X10648D01*
Y73419D01*
X10920D01*
Y74233D01*
X11191D01*
Y74775D01*
X11461D01*
Y75588D01*
X11732D01*
Y76401D01*
X12004D01*
Y76943D01*
X12275D01*
Y77756D01*
X12546D01*
Y78569D01*
X12817D01*
Y79382D01*
X13088D01*
Y80195D01*
X13359D01*
Y81008D01*
X13630D01*
Y81821D01*
X13901D01*
Y82634D01*
X14172D01*
Y83176D01*
X14443D01*
Y81550D01*
X14172D01*
Y78027D01*
X13901D01*
Y74503D01*
X13630D01*
Y67457D01*
X13901D01*
Y65018D01*
X14172D01*
Y63121D01*
X14443D01*
Y61766D01*
X14714D01*
Y60682D01*
X14985D01*
Y59598D01*
X15256D01*
Y58513D01*
X15527D01*
Y57700D01*
X15798D01*
Y56887D01*
X16069D01*
Y56345D01*
X16340D01*
Y57158D01*
X16611D01*
Y57700D01*
X16882D01*
Y58513D01*
X17153D01*
Y59327D01*
X17424D01*
Y60411D01*
X17695D01*
Y61495D01*
X17966D01*
Y62579D01*
X18237D01*
Y63934D01*
X18508D01*
Y65289D01*
X18779D01*
Y67457D01*
X19050D01*
Y75859D01*
X18779D01*
Y78569D01*
X18508D01*
Y81279D01*
X18237D01*
Y83447D01*
X18508D01*
Y82905D01*
D02*
G37*
G36*
X-51144Y56345D02*
X-51686D01*
Y56616D01*
X-51144D01*
Y56345D01*
D02*
G37*
G36*
X7125Y84802D02*
X6854D01*
Y84531D01*
X6583D01*
Y84260D01*
X6041D01*
Y83989D01*
X5770D01*
Y83718D01*
X5499D01*
Y83447D01*
X5228D01*
Y83176D01*
X4686D01*
Y82905D01*
X4415D01*
Y82634D01*
X4144D01*
Y82363D01*
X3873D01*
Y82092D01*
X3602D01*
Y81821D01*
X3060D01*
Y81550D01*
X2789D01*
Y81279D01*
X2518D01*
Y81008D01*
X2247D01*
Y80737D01*
X1705D01*
Y80466D01*
X1434D01*
Y80195D01*
X1163D01*
Y79924D01*
X892D01*
Y79653D01*
X621D01*
Y79382D01*
X350D01*
Y79111D01*
X-192D01*
Y78840D01*
X-463D01*
Y78569D01*
X-734D01*
Y78298D01*
X-1005D01*
Y78027D01*
X-1276D01*
Y77756D01*
X-1547D01*
Y77485D01*
X-1818D01*
Y77214D01*
X-2089D01*
Y76943D01*
X-2360D01*
Y76672D01*
X-2631D01*
Y76401D01*
X-2903D01*
Y76130D01*
X-3174D01*
Y75859D01*
X-3444D01*
Y75588D01*
X-3715D01*
Y75317D01*
X-3986D01*
Y75046D01*
X-4257D01*
Y74775D01*
X-4529D01*
Y74503D01*
X-4800D01*
Y74233D01*
X-5071D01*
Y73691D01*
X-5342D01*
Y73419D01*
X-5613D01*
Y73148D01*
X-5884D01*
Y72877D01*
X-6155D01*
Y72606D01*
X-6426D01*
Y72064D01*
X-6697D01*
Y71793D01*
X-6968D01*
Y71522D01*
X-7239D01*
Y70980D01*
X-7510D01*
Y70709D01*
X-7781D01*
Y70167D01*
X-8052D01*
Y69896D01*
X-8323D01*
Y69354D01*
X-8594D01*
Y69083D01*
X-8865D01*
Y68541D01*
X-9136D01*
Y68270D01*
X-9407D01*
Y67728D01*
X-9678D01*
Y67457D01*
X-9949D01*
Y66915D01*
X-10220D01*
Y66373D01*
X-10491D01*
Y66102D01*
X-9949D01*
Y66373D01*
X-9407D01*
Y66644D01*
X-8594D01*
Y66915D01*
X-8052D01*
Y67186D01*
X-7510D01*
Y67457D01*
X-6968D01*
Y67728D01*
X-6426D01*
Y67999D01*
X-5884D01*
Y68270D01*
X-5613D01*
Y68541D01*
X-5071D01*
Y68812D01*
X-4529D01*
Y69083D01*
X-4257D01*
Y69354D01*
X-3715D01*
Y69625D01*
X-3174D01*
Y69896D01*
X-2903D01*
Y70167D01*
X-2360D01*
Y70438D01*
X-2089D01*
Y70709D01*
X-1818D01*
Y70980D01*
X-1276D01*
Y71251D01*
X-1005D01*
Y71522D01*
X-734D01*
Y71793D01*
X-192D01*
Y72064D01*
X79D01*
Y72335D01*
X350D01*
Y72606D01*
X621D01*
Y72877D01*
X892D01*
Y73148D01*
X1163D01*
Y73419D01*
X1705D01*
Y73691D01*
X1976D01*
Y73962D01*
X2247D01*
Y74233D01*
X2518D01*
Y74503D01*
X2789D01*
Y74775D01*
X3060D01*
Y75046D01*
X3331D01*
Y75317D01*
X3602D01*
Y75588D01*
X3873D01*
Y75859D01*
X4144D01*
Y76130D01*
X4415D01*
Y76401D01*
X4686D01*
Y76672D01*
X4957D01*
Y76943D01*
X5228D01*
Y77214D01*
X5499D01*
Y77485D01*
X5770D01*
Y77756D01*
X6041D01*
Y78027D01*
X6312D01*
Y78569D01*
X6583D01*
Y78840D01*
X6854D01*
Y79111D01*
X7125D01*
Y79382D01*
X7396D01*
Y79653D01*
X7667D01*
Y79924D01*
X7938D01*
Y80195D01*
X8209D01*
Y80466D01*
X8480D01*
Y80737D01*
X8751D01*
Y81008D01*
X9022D01*
Y81550D01*
X9293D01*
Y81821D01*
X9564D01*
Y82092D01*
X9835D01*
Y82363D01*
X10106D01*
Y82634D01*
X10377D01*
Y82905D01*
X10648D01*
Y83176D01*
X10920D01*
Y83447D01*
X11191D01*
Y82905D01*
X10920D01*
Y82363D01*
X10648D01*
Y81821D01*
X10377D01*
Y81279D01*
X10106D01*
Y80737D01*
X9835D01*
Y80466D01*
X9564D01*
Y79924D01*
X9293D01*
Y79382D01*
X9022D01*
Y78840D01*
X8751D01*
Y78298D01*
X8480D01*
Y77756D01*
X8209D01*
Y77485D01*
Y77214D01*
X7938D01*
Y76672D01*
X7667D01*
Y76401D01*
X7396D01*
Y75859D01*
X7125D01*
Y75317D01*
X6854D01*
Y74775D01*
X6583D01*
Y73962D01*
X6312D01*
Y73419D01*
X6041D01*
Y72877D01*
X5770D01*
Y72335D01*
X5499D01*
Y71793D01*
X5228D01*
Y71251D01*
X4957D01*
Y70438D01*
X4686D01*
Y69896D01*
X4415D01*
Y69083D01*
X4144D01*
Y68270D01*
X3873D01*
Y67728D01*
X3602D01*
Y66915D01*
X3331D01*
Y66102D01*
X3060D01*
Y65560D01*
X2789D01*
Y64747D01*
X2518D01*
Y64205D01*
X2247D01*
Y63663D01*
X1976D01*
Y63121D01*
X1705D01*
Y62579D01*
X1434D01*
Y62308D01*
X1163D01*
Y61766D01*
X892D01*
Y61495D01*
X621D01*
Y60953D01*
X350D01*
Y60682D01*
X79D01*
Y60411D01*
X-192D01*
Y60140D01*
X-463D01*
Y59869D01*
X-734D01*
Y59598D01*
X-1005D01*
Y59327D01*
X-1547D01*
Y59056D01*
X-1818D01*
Y58784D01*
X-2089D01*
Y58513D01*
X-2631D01*
Y58243D01*
X-2903D01*
Y57971D01*
X-3444D01*
Y57700D01*
X-3986D01*
Y57429D01*
X-4529D01*
Y57158D01*
X-5071D01*
Y56887D01*
X-5613D01*
Y56616D01*
X-6426D01*
Y56345D01*
X-6968D01*
Y56074D01*
X-7781D01*
Y55803D01*
X-8594D01*
Y55532D01*
X-9407D01*
Y55261D01*
X-10491D01*
Y54990D01*
X-11846D01*
Y54719D01*
X-13472D01*
Y54448D01*
X-16182D01*
Y54177D01*
X-22145D01*
Y55803D01*
X-22416D01*
Y60953D01*
X-22145D01*
Y63392D01*
X-21874D01*
Y65018D01*
X-21603D01*
Y66102D01*
X-21332D01*
Y67186D01*
X-21061D01*
Y68270D01*
X-20790D01*
Y69083D01*
X-20519D01*
Y69625D01*
X-20248D01*
Y70438D01*
X-19977D01*
Y70980D01*
X-19706D01*
Y71522D01*
X-19435D01*
Y72064D01*
X-19164D01*
Y72606D01*
X-18893D01*
Y73148D01*
X-18621D01*
Y73419D01*
X-18350D01*
Y73962D01*
X-18080D01*
Y74233D01*
X-17808D01*
Y74503D01*
X-17537D01*
Y74775D01*
X-17266D01*
Y75046D01*
X-16995D01*
Y75317D01*
X-16724D01*
Y75588D01*
X-16453D01*
Y75859D01*
X-16182D01*
Y76130D01*
X-15911D01*
Y76401D01*
X-15369D01*
Y76672D01*
X-14827D01*
Y76943D01*
X-14285D01*
Y77214D01*
X-13743D01*
Y77485D01*
X-13201D01*
Y77756D01*
X-12388D01*
Y78027D01*
X-11575D01*
Y78298D01*
X-10491D01*
Y78569D01*
X-9678D01*
Y78840D01*
X-8594D01*
Y79111D01*
X-7510D01*
Y79382D01*
X-6697D01*
Y79653D01*
X-5884D01*
Y79924D01*
X-4800D01*
Y80195D01*
X-3986D01*
Y80466D01*
X-3444D01*
Y80737D01*
X-2631D01*
Y81008D01*
X-1818D01*
Y81279D01*
X-1276D01*
Y81550D01*
X-463D01*
Y81821D01*
X79D01*
Y82092D01*
X892D01*
Y82363D01*
X1434D01*
Y82634D01*
X1976D01*
Y82905D01*
X2518D01*
Y83176D01*
X3060D01*
Y83447D01*
X3873D01*
Y83718D01*
X4415D01*
Y83989D01*
X4957D01*
Y84260D01*
X5499D01*
Y84531D01*
X6041D01*
Y84802D01*
X6583D01*
Y85073D01*
X7125D01*
Y84802D01*
D02*
G37*
G36*
X-56022Y57429D02*
X-55751D01*
Y57158D01*
X-55480D01*
Y56887D01*
X-55209D01*
Y56345D01*
X-54938D01*
Y54990D01*
X-55209D01*
Y54719D01*
X-55480D01*
Y54177D01*
X-56022D01*
Y53906D01*
X-57919D01*
Y54177D01*
X-58461D01*
Y54719D01*
X-58732D01*
Y54990D01*
X-59003D01*
Y56345D01*
X-58732D01*
Y56887D01*
X-58461D01*
Y57158D01*
X-58190D01*
Y57429D01*
X-57919D01*
Y57700D01*
X-56022D01*
Y57429D01*
D02*
G37*
G36*
X-61713Y52551D02*
X-61984D01*
Y52822D01*
X-61713D01*
Y52551D01*
D02*
G37*
G36*
X-59545Y51738D02*
X-59816D01*
Y52009D01*
X-59545D01*
Y51738D01*
D02*
G37*
G36*
X-37864Y61224D02*
X-36509D01*
Y60953D01*
X-35696D01*
Y60682D01*
X-35154D01*
Y60411D01*
X-34612D01*
Y60140D01*
X-34069D01*
Y59869D01*
X-33798D01*
Y59598D01*
X-33256D01*
Y59327D01*
X-32714D01*
Y59056D01*
X-32443D01*
Y58784D01*
X-32172D01*
Y58513D01*
X-31630D01*
Y58243D01*
X-31359D01*
Y57971D01*
X-31088D01*
Y57700D01*
X-30817D01*
Y57429D01*
X-30546D01*
Y57158D01*
X-30275D01*
Y56887D01*
X-30004D01*
Y56616D01*
X-29733D01*
Y56074D01*
X-30004D01*
Y55803D01*
X-30275D01*
Y55532D01*
X-30546D01*
Y55261D01*
X-30817D01*
Y54990D01*
X-31088D01*
Y54719D01*
X-31359D01*
Y54448D01*
X-31630D01*
Y54177D01*
X-31901D01*
Y53906D01*
X-32172D01*
Y53635D01*
X-32443D01*
Y53364D01*
X-32985D01*
Y53093D01*
X-33256D01*
Y52822D01*
X-33528D01*
Y52551D01*
X-34069D01*
Y52280D01*
X-34341D01*
Y52009D01*
X-34883D01*
Y51738D01*
X-35154D01*
Y51467D01*
X-35696D01*
Y51196D01*
X-36238D01*
Y50925D01*
X-36780D01*
Y50654D01*
X-37593D01*
Y50383D01*
X-38948D01*
Y50112D01*
X-39761D01*
Y50383D01*
X-41387D01*
Y50654D01*
X-42200D01*
Y50925D01*
X-42742D01*
Y51196D01*
X-43555D01*
Y51467D01*
X-44097D01*
Y51738D01*
X-44639D01*
Y52009D01*
X-45452D01*
Y52280D01*
X-45994D01*
Y52551D01*
X-46807D01*
Y52822D01*
X-47620D01*
Y53093D01*
X-48433D01*
Y53364D01*
X-49518D01*
Y53635D01*
X-50331D01*
Y53906D01*
X-51415D01*
Y54177D01*
X-52228D01*
Y54448D01*
X-43284D01*
Y54719D01*
X-41658D01*
Y54990D01*
X-40574D01*
Y55261D01*
X-39490D01*
Y55532D01*
X-38677D01*
Y55803D01*
X-38135D01*
Y56074D01*
X-38948D01*
Y56345D01*
X-40303D01*
Y56616D01*
X-41929D01*
Y56887D01*
X-48976D01*
Y56616D01*
X-51144D01*
Y56887D01*
X-50331D01*
Y57158D01*
X-49518D01*
Y57429D01*
X-48705D01*
Y57700D01*
X-47891D01*
Y57971D01*
X-47349D01*
Y58243D01*
X-46536D01*
Y58513D01*
X-45994D01*
Y58784D01*
X-45452D01*
Y59056D01*
X-44910D01*
Y59327D01*
X-44368D01*
Y59598D01*
X-44097D01*
Y59869D01*
X-43555D01*
Y60140D01*
X-43013D01*
Y60411D01*
X-42471D01*
Y60682D01*
X-41929D01*
Y60953D01*
X-41387D01*
Y61224D01*
X-40303D01*
Y61495D01*
X-37864D01*
Y61224D01*
D02*
G37*
G36*
X-51957Y52551D02*
X-51415D01*
Y52280D01*
X-50873D01*
Y52009D01*
X-50331D01*
Y51738D01*
X-49789D01*
Y51467D01*
X-49247D01*
Y51196D01*
X-48433D01*
Y50925D01*
X-47620D01*
Y50654D01*
X-47078D01*
Y50383D01*
X-45994D01*
Y50112D01*
X-45181D01*
Y49841D01*
X-44097D01*
Y49570D01*
X-43013D01*
Y49299D01*
X-42200D01*
Y49028D01*
X-41658D01*
Y48757D01*
X-41116D01*
Y48486D01*
X-40574D01*
Y48215D01*
X-40303D01*
Y47944D01*
X-40032D01*
Y47673D01*
X-39761D01*
Y47402D01*
X-39490D01*
Y47131D01*
X-39219D01*
Y46589D01*
X-38948D01*
Y46318D01*
X-38677D01*
Y45505D01*
X-38406D01*
Y44963D01*
X-38135D01*
Y44149D01*
X-37864D01*
Y43065D01*
X-37593D01*
Y41710D01*
X-37322D01*
Y37103D01*
X-41116D01*
Y37374D01*
X-42742D01*
Y37645D01*
X-43826D01*
Y37916D01*
X-44639D01*
Y38187D01*
X-45452D01*
Y38458D01*
X-45994D01*
Y38729D01*
X-46536D01*
Y39000D01*
X-47078D01*
Y39271D01*
X-47349D01*
Y39542D01*
X-47891D01*
Y39813D01*
X-48162D01*
Y40084D01*
X-48433D01*
Y40355D01*
X-48705D01*
Y40626D01*
X-48976D01*
Y40897D01*
X-49247D01*
Y41439D01*
X-49518D01*
Y41981D01*
X-49789D01*
Y42523D01*
X-50060D01*
Y43065D01*
X-50331D01*
Y43878D01*
X-50602D01*
Y44692D01*
X-50873D01*
Y45234D01*
X-51144D01*
Y45776D01*
X-51415D01*
Y46589D01*
X-51686D01*
Y47131D01*
X-51957D01*
Y47673D01*
X-52228D01*
Y48215D01*
X-52499D01*
Y48486D01*
Y48757D01*
X-52770D01*
Y49299D01*
X-53041D01*
Y49841D01*
X-53312D01*
Y50383D01*
X-53583D01*
Y50654D01*
X-53854D01*
Y51196D01*
X-54125D01*
Y51467D01*
X-53854D01*
Y51196D01*
X-53583D01*
Y50925D01*
X-53312D01*
Y50654D01*
X-53041D01*
Y50383D01*
X-52770D01*
Y50112D01*
X-52499D01*
Y49841D01*
X-52228D01*
Y49570D01*
X-51957D01*
Y49299D01*
X-51686D01*
Y49028D01*
X-51415D01*
Y48757D01*
X-51144D01*
Y48486D01*
X-50873D01*
Y48215D01*
X-50602D01*
Y47944D01*
X-50331D01*
Y47673D01*
X-50060D01*
Y47402D01*
X-49789D01*
Y47131D01*
X-49518D01*
Y46860D01*
X-49247D01*
Y46589D01*
X-48976D01*
Y46318D01*
X-48705D01*
Y46047D01*
X-48162D01*
Y45776D01*
X-47891D01*
Y45505D01*
X-47349D01*
Y45234D01*
X-47078D01*
Y44963D01*
X-46536D01*
Y44692D01*
X-46265D01*
Y44420D01*
X-45723D01*
Y44149D01*
X-45181D01*
Y43878D01*
X-44639D01*
Y43608D01*
X-44097D01*
Y43337D01*
X-43555D01*
Y43065D01*
X-43284D01*
Y43337D01*
X-43555D01*
Y43878D01*
X-43826D01*
Y44420D01*
X-44097D01*
Y44692D01*
X-44368D01*
Y45234D01*
X-44639D01*
Y45505D01*
X-44910D01*
Y46047D01*
X-45181D01*
Y46318D01*
X-45452D01*
Y46589D01*
X-45723D01*
Y46860D01*
X-45994D01*
Y47402D01*
X-46265D01*
Y47673D01*
X-46536D01*
Y47944D01*
X-46807D01*
Y48215D01*
X-47078D01*
Y48486D01*
X-47349D01*
Y48757D01*
X-47620D01*
Y49028D01*
X-48162D01*
Y49299D01*
X-48433D01*
Y49570D01*
X-48705D01*
Y49841D01*
X-48976D01*
Y50112D01*
X-49247D01*
Y50383D01*
X-49518D01*
Y50654D01*
X-50060D01*
Y50925D01*
X-50331D01*
Y51196D01*
X-50602D01*
Y51467D01*
X-50873D01*
Y51738D01*
X-51415D01*
Y52009D01*
X-51686D01*
Y52280D01*
X-51957D01*
Y52551D01*
X-52228D01*
Y52822D01*
X-51957D01*
Y52551D01*
D02*
G37*
G36*
X-55751Y51467D02*
X-55480D01*
Y50654D01*
X-55209D01*
Y49841D01*
X-54938D01*
Y49028D01*
X-54667D01*
Y48215D01*
X-54396D01*
Y47673D01*
X-54125D01*
Y46860D01*
X-53854D01*
Y46318D01*
X-53583D01*
Y45776D01*
X-53312D01*
Y45234D01*
X-53041D01*
Y44420D01*
X-52770D01*
Y43878D01*
X-52499D01*
Y43337D01*
X-52228D01*
Y42794D01*
X-51957D01*
Y42252D01*
X-51686D01*
Y41710D01*
X-51415D01*
Y40626D01*
X-51144D01*
Y38187D01*
X-51415D01*
Y37374D01*
X-51686D01*
Y36561D01*
X-51957D01*
Y36019D01*
X-52228D01*
Y35477D01*
X-52499D01*
Y34935D01*
X-52770D01*
Y34393D01*
X-53041D01*
Y33851D01*
X-53312D01*
Y33580D01*
X-53583D01*
Y33309D01*
X-53854D01*
Y32767D01*
X-54125D01*
Y32496D01*
X-54396D01*
Y32225D01*
X-54667D01*
Y31954D01*
X-54938D01*
Y31683D01*
X-55209D01*
Y31412D01*
X-55480D01*
Y31141D01*
X-55751D01*
Y30870D01*
X-56022D01*
Y30599D01*
X-56293D01*
Y30328D01*
X-56564D01*
Y30057D01*
X-57377D01*
Y30328D01*
X-57648D01*
Y30599D01*
X-57919D01*
Y30870D01*
X-58190D01*
Y31141D01*
X-58461D01*
Y31412D01*
X-58732D01*
Y31683D01*
X-59003D01*
Y31954D01*
X-59274D01*
Y32225D01*
X-59545D01*
Y32496D01*
X-59816D01*
Y32767D01*
X-60087D01*
Y33309D01*
X-60358D01*
Y33580D01*
X-60629D01*
Y33851D01*
X-60900D01*
Y34393D01*
X-61171D01*
Y34935D01*
X-61442D01*
Y35206D01*
X-61713D01*
Y35748D01*
X-61984D01*
Y36290D01*
X-62255D01*
Y36832D01*
X-62526D01*
Y37916D01*
X-62797D01*
Y40897D01*
X-62526D01*
Y41710D01*
X-62255D01*
Y42252D01*
X-61984D01*
Y42794D01*
X-61713D01*
Y43337D01*
X-61442D01*
Y43878D01*
X-61171D01*
Y44420D01*
X-60900D01*
Y44692D01*
X-60629D01*
Y45505D01*
X-60358D01*
Y46047D01*
X-60087D01*
Y46589D01*
X-59816D01*
Y46860D01*
Y47131D01*
X-59545D01*
Y47944D01*
X-59274D01*
Y48486D01*
X-59003D01*
Y49299D01*
X-58732D01*
Y50112D01*
X-58461D01*
Y50925D01*
X-58190D01*
Y51738D01*
X-57919D01*
Y49841D01*
X-58190D01*
Y42252D01*
X-57919D01*
Y40897D01*
X-57648D01*
Y39813D01*
X-57377D01*
Y38729D01*
X-57106D01*
Y38187D01*
X-56835D01*
Y39271D01*
X-56564D01*
Y40084D01*
X-56293D01*
Y40897D01*
X-56022D01*
Y42523D01*
X-55751D01*
Y44149D01*
X-55480D01*
Y47944D01*
X-55751D01*
Y50654D01*
X-56022D01*
Y52009D01*
X-55751D01*
Y51467D01*
D02*
G37*
G36*
X-61984Y52280D02*
X-62255D01*
Y52009D01*
X-62797D01*
Y51738D01*
X-63068D01*
Y51467D01*
X-63340D01*
Y51196D01*
X-63611D01*
Y50925D01*
X-64152D01*
Y50654D01*
X-64423D01*
Y50383D01*
X-64695D01*
Y50112D01*
X-64966D01*
Y49841D01*
X-65237D01*
Y49570D01*
X-65508D01*
Y49299D01*
X-65779D01*
Y49028D01*
X-66050D01*
Y48757D01*
X-66321D01*
Y48486D01*
X-66592D01*
Y48215D01*
X-66863D01*
Y47944D01*
X-67134D01*
Y47673D01*
X-67405D01*
Y47402D01*
X-67676D01*
Y47131D01*
X-67947D01*
Y46860D01*
X-68218D01*
Y46589D01*
X-68489D01*
Y46047D01*
X-68760D01*
Y45776D01*
X-69031D01*
Y45505D01*
X-69302D01*
Y44963D01*
X-69573D01*
Y44692D01*
X-69844D01*
Y44149D01*
X-70115D01*
Y43608D01*
X-70386D01*
Y43337D01*
X-69844D01*
Y43608D01*
X-69031D01*
Y43878D01*
X-68489D01*
Y44149D01*
X-68218D01*
Y44420D01*
X-67676D01*
Y44692D01*
X-67134D01*
Y44963D01*
X-66863D01*
Y45234D01*
X-66321D01*
Y45505D01*
X-66050D01*
Y45776D01*
X-65508D01*
Y46047D01*
X-65237D01*
Y46318D01*
X-64966D01*
Y46589D01*
X-64695D01*
Y46860D01*
X-64423D01*
Y47131D01*
X-64152D01*
Y47402D01*
X-63882D01*
Y47673D01*
X-63611D01*
Y47944D01*
X-63340D01*
Y48215D01*
X-62797D01*
Y48757D01*
X-62526D01*
Y49028D01*
X-62255D01*
Y49299D01*
X-61984D01*
Y49570D01*
X-61713D01*
Y49841D01*
X-61442D01*
Y50112D01*
X-61171D01*
Y50383D01*
X-60900D01*
Y50654D01*
X-60629D01*
Y51196D01*
X-60358D01*
Y51467D01*
X-60087D01*
Y51738D01*
X-59816D01*
Y51196D01*
X-60087D01*
Y50654D01*
X-60358D01*
Y50112D01*
X-60629D01*
Y49570D01*
X-60900D01*
Y49028D01*
X-61171D01*
Y48486D01*
X-61442D01*
Y47944D01*
X-61713D01*
Y47402D01*
X-61984D01*
Y46860D01*
X-62255D01*
Y46318D01*
X-62526D01*
Y45776D01*
X-62797D01*
Y44963D01*
X-63068D01*
Y44420D01*
X-63340D01*
Y43608D01*
X-63611D01*
Y43065D01*
X-63882D01*
Y42252D01*
X-64152D01*
Y41710D01*
X-64423D01*
Y41168D01*
X-64695D01*
Y40897D01*
X-64966D01*
Y40355D01*
X-65237D01*
Y40084D01*
X-65508D01*
Y39813D01*
X-66050D01*
Y39542D01*
X-66321D01*
Y39271D01*
X-66863D01*
Y39000D01*
X-67134D01*
Y38729D01*
X-67676D01*
Y38458D01*
X-68218D01*
Y38187D01*
X-69031D01*
Y37916D01*
X-69844D01*
Y37645D01*
X-70657D01*
Y37374D01*
X-72283D01*
Y37103D01*
X-76619D01*
Y41439D01*
X-76348D01*
Y43065D01*
X-76077D01*
Y44149D01*
X-75806D01*
Y44692D01*
X-75535D01*
Y45505D01*
X-75264D01*
Y46047D01*
X-74993D01*
Y46589D01*
X-74722D01*
Y46860D01*
X-74451D01*
Y47402D01*
X-74180D01*
Y47673D01*
X-73909D01*
Y47944D01*
X-73638D01*
Y48215D01*
X-73367D01*
Y48486D01*
X-72825D01*
Y48757D01*
X-72283D01*
Y49028D01*
X-71470D01*
Y49299D01*
X-70657D01*
Y49570D01*
X-69573D01*
Y49841D01*
X-68760D01*
Y50112D01*
X-67947D01*
Y50383D01*
X-67134D01*
Y50654D01*
X-66321D01*
Y50925D01*
X-65508D01*
Y51196D01*
X-64966D01*
Y51467D01*
X-64423D01*
Y51738D01*
X-63611D01*
Y52009D01*
X-63068D01*
Y52280D01*
X-62526D01*
Y52551D01*
X-61984D01*
Y52280D01*
D02*
G37*
G36*
X121224Y1600D02*
X121495D01*
Y245D01*
X121766D01*
Y-839D01*
X122037D01*
Y-1924D01*
X122308D01*
Y-3279D01*
X122579D01*
Y-4363D01*
X122850D01*
Y-5718D01*
X123121D01*
Y-5989D01*
X122579D01*
Y-6260D01*
X121224D01*
Y-6531D01*
X120140D01*
Y-6802D01*
X118785D01*
Y-7073D01*
X117701D01*
Y-7344D01*
X116616D01*
Y-7615D01*
X115261D01*
Y-7886D01*
X114177D01*
Y-8157D01*
X112822D01*
Y-8428D01*
X111738D01*
Y-8699D01*
X110383D01*
Y-8970D01*
X109299D01*
Y-9241D01*
X109028D01*
Y-8428D01*
X108757D01*
Y-7344D01*
X108486D01*
Y-6260D01*
X108215D01*
Y-4905D01*
X107944D01*
Y-3821D01*
X107673D01*
Y-2466D01*
X107402D01*
Y-1111D01*
X108215D01*
Y-839D01*
X109299D01*
Y-569D01*
X109570D01*
Y-1111D01*
X109841D01*
Y-2466D01*
X110112D01*
Y-3550D01*
X110383D01*
Y-4905D01*
X110654D01*
Y-5718D01*
X111738D01*
Y-5447D01*
X113093D01*
Y-5176D01*
X113906D01*
Y-3821D01*
X113635D01*
Y-2466D01*
X113364D01*
Y-1382D01*
X113093D01*
Y-569D01*
X114177D01*
Y-297D01*
X115532D01*
Y-1653D01*
X115803D01*
Y-2737D01*
X116074D01*
Y-3821D01*
X116346D01*
Y-4634D01*
X116616D01*
Y-4363D01*
X117701D01*
Y-4092D01*
X119056D01*
Y-3821D01*
X119869D01*
Y-3550D01*
X120140D01*
Y-3279D01*
X119869D01*
Y-2195D01*
X119598D01*
Y-839D01*
X119327D01*
Y245D01*
X119056D01*
Y1600D01*
X119869D01*
Y1871D01*
X120953D01*
Y2142D01*
X121224D01*
Y1600D01*
D02*
G37*
G36*
X123934Y-11951D02*
X124205D01*
Y-13306D01*
X123663D01*
Y-13577D01*
X123121D01*
Y-13848D01*
X122579D01*
Y-14119D01*
X122037D01*
Y-14390D01*
X121766D01*
Y-14661D01*
X121224D01*
Y-14932D01*
X120682D01*
Y-15203D01*
X120140D01*
Y-15474D01*
X119598D01*
Y-15746D01*
X119327D01*
Y-17372D01*
X120140D01*
Y-17100D01*
X122308D01*
Y-16830D01*
X124747D01*
Y-18998D01*
X125018D01*
Y-19540D01*
X124205D01*
Y-19811D01*
X122037D01*
Y-20082D01*
X119598D01*
Y-20353D01*
X117158D01*
Y-20624D01*
X114719D01*
Y-20895D01*
X112551D01*
Y-21166D01*
X110654D01*
Y-19811D01*
X110383D01*
Y-17643D01*
X110112D01*
Y-14661D01*
X110383D01*
Y-13848D01*
X110654D01*
Y-13306D01*
X110925D01*
Y-13035D01*
X111196D01*
Y-12764D01*
X111467D01*
Y-12493D01*
X111738D01*
Y-12222D01*
X112280D01*
Y-11951D01*
X113093D01*
Y-11680D01*
X116346D01*
Y-11951D01*
X116888D01*
Y-12222D01*
X117158D01*
Y-12493D01*
X117701D01*
Y-12764D01*
X117972D01*
Y-13035D01*
X118785D01*
Y-12764D01*
X119327D01*
Y-12493D01*
X119598D01*
Y-12222D01*
X120140D01*
Y-11951D01*
X120682D01*
Y-11680D01*
X121224D01*
Y-11409D01*
X121495D01*
Y-11138D01*
X122037D01*
Y-10867D01*
X122579D01*
Y-10596D01*
X123121D01*
Y-10325D01*
X123392D01*
Y-10054D01*
X123934D01*
Y-11951D01*
D02*
G37*
G36*
X-92067Y-7073D02*
X-90712D01*
Y-7344D01*
X-89357D01*
Y-7615D01*
X-88273D01*
Y-7886D01*
X-87189D01*
Y-8157D01*
X-86647D01*
Y-7886D01*
X-86105D01*
Y-7615D01*
X-85834D01*
Y-7344D01*
X-85292D01*
Y-10325D01*
X-85021D01*
Y-15474D01*
X-85834D01*
Y-14932D01*
X-86105D01*
Y-14390D01*
X-86376D01*
Y-14119D01*
X-86647D01*
Y-13577D01*
X-86918D01*
Y-13306D01*
X-87189D01*
Y-12764D01*
X-87460D01*
Y-12493D01*
X-87731D01*
Y-11951D01*
X-88002D01*
Y-11680D01*
X-88273D01*
Y-11409D01*
X-88544D01*
Y-10867D01*
X-88815D01*
Y-10596D01*
X-89086D01*
Y-10325D01*
X-89357D01*
Y-10054D01*
X-89628D01*
Y-9783D01*
X-89899D01*
Y-9512D01*
X-90170D01*
Y-9241D01*
X-90712D01*
Y-8970D01*
X-90983D01*
Y-8699D01*
X-91525D01*
Y-8428D01*
X-91796D01*
Y-8157D01*
X-92609D01*
Y-7886D01*
X-93694D01*
Y-7615D01*
X-95591D01*
Y-7886D01*
X-96946D01*
Y-8157D01*
X-97488D01*
Y-8428D01*
X-98030D01*
Y-8699D01*
X-98301D01*
Y-8970D01*
X-98572D01*
Y-9241D01*
X-98843D01*
Y-9512D01*
X-99114D01*
Y-9783D01*
X-99385D01*
Y-10325D01*
X-99656D01*
Y-11680D01*
X-99927D01*
Y-12222D01*
X-99656D01*
Y-13306D01*
X-99385D01*
Y-13848D01*
X-99114D01*
Y-14119D01*
X-98843D01*
Y-14390D01*
X-98572D01*
Y-14661D01*
X-98301D01*
Y-14932D01*
X-97759D01*
Y-15203D01*
X-97217D01*
Y-15474D01*
X-96946D01*
Y-15746D01*
X-96404D01*
Y-16016D01*
X-95591D01*
Y-16287D01*
X-94778D01*
Y-16559D01*
X-93965D01*
Y-16830D01*
X-92880D01*
Y-17100D01*
X-92067D01*
Y-17372D01*
X-90983D01*
Y-17643D01*
X-90170D01*
Y-17914D01*
X-89357D01*
Y-18185D01*
X-88815D01*
Y-18456D01*
X-88273D01*
Y-18727D01*
X-87731D01*
Y-18998D01*
X-87189D01*
Y-19269D01*
X-86647D01*
Y-19540D01*
X-86376D01*
Y-19811D01*
X-86105D01*
Y-20082D01*
X-85834D01*
Y-20353D01*
X-85563D01*
Y-20624D01*
X-85292D01*
Y-20895D01*
X-85021D01*
Y-21166D01*
X-84750D01*
Y-21437D01*
X-84479D01*
Y-21979D01*
X-84208D01*
Y-22521D01*
X-83937D01*
Y-23063D01*
X-83666D01*
Y-23876D01*
X-83395D01*
Y-25773D01*
X-83124D01*
Y-27399D01*
X-83395D01*
Y-29296D01*
X-83666D01*
Y-30380D01*
X-83937D01*
Y-30923D01*
X-84208D01*
Y-31465D01*
X-84479D01*
Y-32006D01*
X-84750D01*
Y-32549D01*
X-85021D01*
Y-32820D01*
X-85292D01*
Y-33091D01*
X-85563D01*
Y-33362D01*
X-85834D01*
Y-33633D01*
X-86105D01*
Y-33904D01*
X-86376D01*
Y-34175D01*
X-86647D01*
Y-34446D01*
X-86918D01*
Y-34717D01*
X-87460D01*
Y-34988D01*
X-87731D01*
Y-35259D01*
X-88273D01*
Y-35530D01*
X-89086D01*
Y-35801D01*
X-89899D01*
Y-36072D01*
X-90983D01*
Y-36343D01*
X-96675D01*
Y-36072D01*
X-98301D01*
Y-35801D01*
X-99656D01*
Y-35530D01*
X-101011D01*
Y-35259D01*
X-102366D01*
Y-35530D01*
X-102637D01*
Y-35801D01*
X-102908D01*
Y-36343D01*
X-103721D01*
Y-33091D01*
X-103992D01*
Y-26586D01*
X-103450D01*
Y-26857D01*
X-103179D01*
Y-27399D01*
X-102908D01*
Y-27941D01*
X-102637D01*
Y-28212D01*
X-102366D01*
Y-28754D01*
X-102095D01*
Y-29025D01*
X-101824D01*
Y-29567D01*
X-101553D01*
Y-29838D01*
X-101282D01*
Y-30380D01*
X-101011D01*
Y-30651D01*
X-100740D01*
Y-30923D01*
X-100469D01*
Y-31193D01*
X-100198D01*
Y-31735D01*
X-99927D01*
Y-32006D01*
X-99656D01*
Y-32278D01*
X-99385D01*
Y-32549D01*
X-99114D01*
Y-32820D01*
X-98843D01*
Y-33091D01*
X-98572D01*
Y-33362D01*
X-98030D01*
Y-33633D01*
X-97759D01*
Y-33904D01*
X-97488D01*
Y-34175D01*
X-96946D01*
Y-34446D01*
X-96675D01*
Y-34717D01*
X-96133D01*
Y-34988D01*
X-95320D01*
Y-35259D01*
X-94507D01*
Y-35530D01*
X-91254D01*
Y-35259D01*
X-90441D01*
Y-34988D01*
X-89899D01*
Y-34717D01*
X-89357D01*
Y-34446D01*
X-89086D01*
Y-34175D01*
X-88815D01*
Y-33904D01*
X-88544D01*
Y-33633D01*
X-88273D01*
Y-33362D01*
X-88002D01*
Y-32820D01*
X-87731D01*
Y-29567D01*
X-88002D01*
Y-29025D01*
X-88273D01*
Y-28483D01*
X-88544D01*
Y-28212D01*
X-88815D01*
Y-27941D01*
X-89357D01*
Y-27670D01*
X-89628D01*
Y-27399D01*
X-90170D01*
Y-27128D01*
X-90441D01*
Y-26857D01*
X-90983D01*
Y-26586D01*
X-91796D01*
Y-26315D01*
X-92609D01*
Y-26044D01*
X-93422D01*
Y-25773D01*
X-94235D01*
Y-25502D01*
X-95049D01*
Y-25231D01*
X-95862D01*
Y-24960D01*
X-96946D01*
Y-24689D01*
X-97488D01*
Y-24418D01*
X-98301D01*
Y-24147D01*
X-98843D01*
Y-23876D01*
X-99385D01*
Y-23605D01*
X-99927D01*
Y-23334D01*
X-100469D01*
Y-23063D01*
X-100740D01*
Y-22792D01*
X-101011D01*
Y-22521D01*
X-101553D01*
Y-22250D01*
X-101824D01*
Y-21708D01*
X-102095D01*
Y-21437D01*
X-102366D01*
Y-21166D01*
X-102637D01*
Y-20624D01*
X-102908D01*
Y-20353D01*
X-103179D01*
Y-19811D01*
X-103450D01*
Y-18727D01*
X-103721D01*
Y-17643D01*
X-103992D01*
Y-14390D01*
X-103721D01*
Y-13035D01*
X-103450D01*
Y-12222D01*
X-103179D01*
Y-11680D01*
X-102908D01*
Y-11138D01*
X-102637D01*
Y-10867D01*
X-102366D01*
Y-10596D01*
X-102095D01*
Y-10054D01*
X-101824D01*
Y-9783D01*
X-101553D01*
Y-9512D01*
X-101282D01*
Y-9241D01*
X-101011D01*
Y-8970D01*
X-100469D01*
Y-8699D01*
X-100198D01*
Y-8428D01*
X-99927D01*
Y-8157D01*
X-99385D01*
Y-7886D01*
X-98843D01*
Y-7615D01*
X-98301D01*
Y-7344D01*
X-97217D01*
Y-7073D01*
X-96404D01*
Y-6802D01*
X-92067D01*
Y-7073D01*
D02*
G37*
G36*
X87889Y-7886D02*
X85720D01*
Y-35259D01*
X87889D01*
Y-36072D01*
X75422D01*
Y-35259D01*
X77590D01*
Y-9512D01*
X77319D01*
Y-10325D01*
X77048D01*
Y-11680D01*
X76777D01*
Y-12764D01*
X76506D01*
Y-13848D01*
X76235D01*
Y-15203D01*
X75964D01*
Y-16287D01*
X75693D01*
Y-17372D01*
X75422D01*
Y-18456D01*
X75151D01*
Y-19811D01*
X74880D01*
Y-20895D01*
X74609D01*
Y-21979D01*
X74338D01*
Y-23334D01*
X74067D01*
Y-24418D01*
X73796D01*
Y-25502D01*
X73525D01*
Y-26857D01*
X73254D01*
Y-27941D01*
X72983D01*
Y-29025D01*
X72712D01*
Y-30109D01*
X72441D01*
Y-31465D01*
X72169D01*
Y-32549D01*
X71898D01*
Y-33633D01*
X71627D01*
Y-34988D01*
X71357D01*
Y-36072D01*
X65936D01*
Y-34988D01*
X65665D01*
Y-34175D01*
X65394D01*
Y-33091D01*
X65123D01*
Y-32006D01*
X64852D01*
Y-31193D01*
X64581D01*
Y-30109D01*
X64310D01*
Y-29025D01*
X64039D01*
Y-28212D01*
X63768D01*
Y-27128D01*
X63497D01*
Y-26044D01*
X63226D01*
Y-25231D01*
X62955D01*
Y-24147D01*
X62684D01*
Y-23063D01*
X62413D01*
Y-22250D01*
X62142D01*
Y-21166D01*
X61871D01*
Y-20082D01*
X61600D01*
Y-19269D01*
X61329D01*
Y-18185D01*
X61058D01*
Y-17100D01*
X60787D01*
Y-16287D01*
X60516D01*
Y-15203D01*
X60245D01*
Y-14119D01*
X59974D01*
Y-13306D01*
X59703D01*
Y-12222D01*
X59432D01*
Y-11138D01*
X59161D01*
Y-10325D01*
X58890D01*
Y-9512D01*
X58619D01*
Y-35259D01*
X60787D01*
Y-36072D01*
X55366D01*
Y-35259D01*
X57535D01*
Y-7886D01*
X55366D01*
Y-7344D01*
X66478D01*
Y-7886D01*
X66749D01*
Y-8970D01*
X67020D01*
Y-10054D01*
X67291D01*
Y-11138D01*
X67562D01*
Y-12222D01*
X67833D01*
Y-13306D01*
X68104D01*
Y-14119D01*
X68375D01*
Y-15203D01*
X68646D01*
Y-16287D01*
X68917D01*
Y-17372D01*
X69188D01*
Y-18456D01*
X69459D01*
Y-19540D01*
X69730D01*
Y-20624D01*
X70001D01*
Y-21708D01*
X70272D01*
Y-22792D01*
X70543D01*
Y-23605D01*
X70814D01*
Y-24689D01*
X71086D01*
Y-25773D01*
X71357D01*
Y-26857D01*
X71627D01*
Y-27941D01*
X72169D01*
Y-26857D01*
X72441D01*
Y-25502D01*
X72712D01*
Y-24418D01*
X72983D01*
Y-23334D01*
X73254D01*
Y-22250D01*
X73525D01*
Y-20895D01*
X73796D01*
Y-19811D01*
X74067D01*
Y-18727D01*
X74338D01*
Y-17372D01*
X74609D01*
Y-16287D01*
X74880D01*
Y-15203D01*
X75151D01*
Y-13848D01*
X75422D01*
Y-12764D01*
X75693D01*
Y-11680D01*
X75964D01*
Y-10596D01*
X76235D01*
Y-9241D01*
X76506D01*
Y-8157D01*
X76777D01*
Y-7344D01*
X87889D01*
Y-7886D01*
D02*
G37*
G36*
X122308Y-24689D02*
X123121D01*
Y-24960D01*
X123663D01*
Y-25231D01*
X123934D01*
Y-25502D01*
X124205D01*
Y-25773D01*
X124476D01*
Y-26044D01*
X124747D01*
Y-26586D01*
X125018D01*
Y-27128D01*
X125289D01*
Y-30651D01*
Y-30923D01*
X125018D01*
Y-31735D01*
X124747D01*
Y-32006D01*
X124476D01*
Y-32549D01*
X124205D01*
Y-32820D01*
X123663D01*
Y-33091D01*
X123392D01*
Y-33362D01*
X122850D01*
Y-33633D01*
X121766D01*
Y-33904D01*
X111196D01*
Y-33633D01*
X110925D01*
Y-30923D01*
X121766D01*
Y-30651D01*
X122579D01*
Y-30109D01*
X122850D01*
Y-29296D01*
X123121D01*
Y-29025D01*
X122850D01*
Y-27941D01*
X122579D01*
Y-27670D01*
X122037D01*
Y-27399D01*
X120682D01*
Y-27128D01*
X110925D01*
Y-24418D01*
X122308D01*
Y-24689D01*
D02*
G37*
G36*
X45881Y-7886D02*
X43713D01*
Y-35259D01*
X45881D01*
Y-36072D01*
X33414D01*
Y-35259D01*
X35582D01*
Y-8157D01*
X35311D01*
Y-7886D01*
X33414D01*
Y-7344D01*
X45881D01*
Y-7886D01*
D02*
G37*
G36*
X-9678Y-7615D02*
X-9407D01*
Y-8157D01*
X-9136D01*
Y-8970D01*
X-8865D01*
Y-9783D01*
X-8594D01*
Y-10596D01*
X-8323D01*
Y-11138D01*
X-8052D01*
Y-11951D01*
X-7781D01*
Y-12764D01*
X-7510D01*
Y-13577D01*
X-7239D01*
Y-14119D01*
X-6968D01*
Y-14932D01*
X-6697D01*
Y-15746D01*
X-6426D01*
Y-16287D01*
X-6155D01*
Y-17100D01*
X-5884D01*
Y-17914D01*
X-5613D01*
Y-18727D01*
X-5342D01*
Y-19269D01*
X-5071D01*
Y-20082D01*
X-4800D01*
Y-20895D01*
X-4529D01*
Y-21437D01*
X-4257D01*
Y-22250D01*
X-3986D01*
Y-23063D01*
X-3715D01*
Y-23876D01*
X-3444D01*
Y-24418D01*
X-3174D01*
Y-25231D01*
X-2903D01*
Y-26044D01*
X-2631D01*
Y-26857D01*
X-2360D01*
Y-27399D01*
X-2089D01*
Y-28212D01*
X-1818D01*
Y-29025D01*
X-1547D01*
Y-29567D01*
X-1276D01*
Y-30380D01*
X-1005D01*
Y-31193D01*
X-734D01*
Y-32006D01*
X-463D01*
Y-32549D01*
X-192D01*
Y-33362D01*
X79D01*
Y-34175D01*
X350D01*
Y-34717D01*
X621D01*
Y-35259D01*
X2518D01*
Y-36072D01*
X-11033D01*
Y-35259D01*
X-8052D01*
Y-34717D01*
X-8323D01*
Y-33904D01*
X-8594D01*
Y-33091D01*
X-8865D01*
Y-32278D01*
X-9136D01*
Y-31465D01*
X-9407D01*
Y-30651D01*
X-9678D01*
Y-29838D01*
X-9949D01*
Y-29025D01*
X-10220D01*
Y-28212D01*
X-10491D01*
Y-27399D01*
X-10762D01*
Y-26857D01*
X-11033D01*
Y-26315D01*
X-19164D01*
Y-26857D01*
X-19435D01*
Y-27399D01*
X-19706D01*
Y-28212D01*
X-19977D01*
Y-29025D01*
X-20248D01*
Y-29838D01*
X-20519D01*
Y-30651D01*
X-20790D01*
Y-31193D01*
X-21061D01*
Y-32006D01*
X-21332D01*
Y-32820D01*
X-21603D01*
Y-33633D01*
X-21874D01*
Y-34446D01*
X-22145D01*
Y-34988D01*
X-22416D01*
Y-35259D01*
X-19164D01*
Y-36072D01*
X-25668D01*
Y-35259D01*
X-23500D01*
Y-34717D01*
X-23229D01*
Y-33904D01*
X-22958D01*
Y-33091D01*
X-22687D01*
Y-32278D01*
X-22416D01*
Y-31735D01*
X-22145D01*
Y-31465D01*
Y-31193D01*
Y-30923D01*
X-21874D01*
Y-30109D01*
X-21603D01*
Y-29567D01*
X-21332D01*
Y-28754D01*
X-21061D01*
Y-27941D01*
X-20790D01*
Y-27399D01*
X-20519D01*
Y-26586D01*
X-20248D01*
Y-25773D01*
X-19977D01*
Y-25231D01*
X-19706D01*
Y-24418D01*
X-19435D01*
Y-23605D01*
X-19164D01*
Y-22792D01*
X-18893D01*
Y-22250D01*
X-18621D01*
Y-21437D01*
X-18350D01*
Y-20624D01*
X-18080D01*
Y-20082D01*
X-17808D01*
Y-19269D01*
X-17537D01*
Y-18456D01*
X-17266D01*
Y-17914D01*
X-16995D01*
Y-17100D01*
X-16724D01*
Y-16287D01*
X-16453D01*
Y-15746D01*
X-16182D01*
Y-14932D01*
X-15911D01*
Y-14119D01*
X-15640D01*
Y-13306D01*
X-15369D01*
Y-12764D01*
X-15098D01*
Y-11951D01*
X-14827D01*
Y-11138D01*
X-14556D01*
Y-10596D01*
X-14285D01*
Y-9783D01*
X-14014D01*
Y-8970D01*
X-13743D01*
Y-8428D01*
X-13472D01*
Y-7615D01*
X-13201D01*
Y-7073D01*
X-9678D01*
Y-7615D01*
D02*
G37*
G36*
X-35696D02*
X-34069D01*
Y-7886D01*
X-32985D01*
Y-8157D01*
X-32172D01*
Y-8428D01*
X-31630D01*
Y-8699D01*
X-31088D01*
Y-8970D01*
X-30546D01*
Y-9241D01*
X-30275D01*
Y-9512D01*
X-30004D01*
Y-9783D01*
X-29733D01*
Y-10054D01*
X-29462D01*
Y-10325D01*
X-29191D01*
Y-10867D01*
X-28920D01*
Y-11409D01*
X-28649D01*
Y-12222D01*
X-28378D01*
Y-15746D01*
X-28649D01*
Y-16830D01*
X-28920D01*
Y-17100D01*
X-29191D01*
Y-17643D01*
X-29462D01*
Y-17914D01*
X-29733D01*
Y-18456D01*
X-30004D01*
Y-18727D01*
X-30546D01*
Y-18998D01*
X-30817D01*
Y-19269D01*
X-31088D01*
Y-19540D01*
X-31630D01*
Y-19811D01*
X-32172D01*
Y-20082D01*
X-32985D01*
Y-20353D01*
X-33798D01*
Y-20624D01*
X-34883D01*
Y-20895D01*
X-33798D01*
Y-21166D01*
X-32714D01*
Y-21437D01*
X-31630D01*
Y-21708D01*
X-31088D01*
Y-21979D01*
X-30546D01*
Y-22250D01*
X-30004D01*
Y-22521D01*
X-29462D01*
Y-22792D01*
X-29191D01*
Y-23063D01*
X-28920D01*
Y-23334D01*
X-28649D01*
Y-23605D01*
X-28378D01*
Y-23876D01*
X-28107D01*
Y-24147D01*
X-27836D01*
Y-24689D01*
X-27565D01*
Y-25231D01*
X-27294D01*
Y-25773D01*
X-27023D01*
Y-27399D01*
X-26752D01*
Y-29025D01*
X-27023D01*
Y-30380D01*
X-27294D01*
Y-31193D01*
X-27565D01*
Y-31735D01*
X-27836D01*
Y-32278D01*
X-28107D01*
Y-32549D01*
X-28378D01*
Y-33091D01*
X-28649D01*
Y-33362D01*
X-29191D01*
Y-33633D01*
X-29462D01*
Y-33904D01*
X-29733D01*
Y-34175D01*
X-30275D01*
Y-34446D01*
X-30817D01*
Y-34717D01*
X-31630D01*
Y-34988D01*
X-32443D01*
Y-35259D01*
X-33256D01*
Y-35530D01*
X-34883D01*
Y-35801D01*
X-36509D01*
Y-36072D01*
X-51957D01*
Y-35259D01*
X-49247D01*
Y-8157D01*
X-49518D01*
Y-7886D01*
X-51957D01*
Y-7344D01*
X-35696D01*
Y-7615D01*
D02*
G37*
G36*
X-65237Y-7886D02*
X-64966D01*
Y-8699D01*
X-64695D01*
Y-9512D01*
X-64423D01*
Y-10054D01*
X-64152D01*
Y-10867D01*
X-63882D01*
Y-11680D01*
X-63611D01*
Y-12222D01*
X-63340D01*
Y-13035D01*
X-63068D01*
Y-13848D01*
X-62797D01*
Y-14661D01*
X-62526D01*
Y-14932D01*
Y-15203D01*
X-62255D01*
Y-16016D01*
X-61984D01*
Y-16830D01*
X-61713D01*
Y-17372D01*
X-61442D01*
Y-18185D01*
X-61171D01*
Y-18998D01*
X-60900D01*
Y-19811D01*
X-60629D01*
Y-20353D01*
X-60358D01*
Y-21166D01*
X-60087D01*
Y-21979D01*
X-59816D01*
Y-22792D01*
X-59545D01*
Y-23334D01*
X-59274D01*
Y-24147D01*
X-59003D01*
Y-24960D01*
X-58732D01*
Y-25502D01*
X-58461D01*
Y-26315D01*
X-58190D01*
Y-27128D01*
X-57919D01*
Y-27941D01*
X-57648D01*
Y-28483D01*
X-57377D01*
Y-29296D01*
X-57106D01*
Y-30109D01*
X-56835D01*
Y-30651D01*
X-56564D01*
Y-31465D01*
X-56293D01*
Y-32278D01*
X-56022D01*
Y-33091D01*
X-55751D01*
Y-33633D01*
X-55480D01*
Y-34446D01*
X-55209D01*
Y-35259D01*
X-53041D01*
Y-36072D01*
X-66592D01*
Y-35259D01*
X-63882D01*
Y-34446D01*
X-64152D01*
Y-33633D01*
X-64423D01*
Y-32820D01*
X-64695D01*
Y-32006D01*
X-64966D01*
Y-31193D01*
X-65237D01*
Y-30380D01*
X-65508D01*
Y-29567D01*
X-65779D01*
Y-28754D01*
X-66050D01*
Y-27941D01*
X-66321D01*
Y-27128D01*
X-66592D01*
Y-26315D01*
X-74993D01*
Y-27128D01*
X-75264D01*
Y-27941D01*
X-75535D01*
Y-28754D01*
X-75806D01*
Y-29296D01*
X-76077D01*
Y-30109D01*
X-76348D01*
Y-30923D01*
X-76619D01*
Y-31735D01*
X-76890D01*
Y-32549D01*
X-77161D01*
Y-33091D01*
X-77432D01*
Y-33904D01*
X-77703D01*
Y-34717D01*
X-77974D01*
Y-35259D01*
X-74993D01*
Y-36072D01*
X-81227D01*
Y-35259D01*
X-79330D01*
Y-34988D01*
X-79058D01*
Y-34175D01*
X-78787D01*
Y-33362D01*
X-78517D01*
Y-32820D01*
X-78246D01*
Y-32006D01*
X-77974D01*
Y-31193D01*
X-77703D01*
Y-30651D01*
X-77432D01*
Y-29838D01*
X-77161D01*
Y-29025D01*
X-76890D01*
Y-28483D01*
X-76619D01*
Y-27670D01*
X-76348D01*
Y-26857D01*
X-76077D01*
Y-26315D01*
X-75806D01*
Y-25502D01*
X-75535D01*
Y-24689D01*
X-75264D01*
Y-24147D01*
X-74993D01*
Y-23334D01*
X-74722D01*
Y-22521D01*
X-74451D01*
Y-21708D01*
X-74180D01*
Y-21166D01*
X-73909D01*
Y-20353D01*
X-73638D01*
Y-19540D01*
X-73367D01*
Y-18998D01*
X-73096D01*
Y-18185D01*
X-72825D01*
Y-17372D01*
X-72554D01*
Y-16830D01*
X-72283D01*
Y-16016D01*
X-72012D01*
Y-15203D01*
X-71741D01*
Y-14661D01*
X-71470D01*
Y-13848D01*
X-71199D01*
Y-13035D01*
X-70928D01*
Y-12222D01*
X-70657D01*
Y-11680D01*
X-70386D01*
Y-10867D01*
X-70115D01*
Y-10054D01*
X-69844D01*
Y-9512D01*
X-69573D01*
Y-8699D01*
X-69302D01*
Y-7886D01*
X-69031D01*
Y-7344D01*
X-68760D01*
Y-7073D01*
X-65237D01*
Y-7886D01*
D02*
G37*
G36*
X21489Y-7615D02*
X23115D01*
Y-7886D01*
X24199D01*
Y-8157D01*
X25012D01*
Y-8428D01*
X25554D01*
Y-8699D01*
X26096D01*
Y-8970D01*
X26639D01*
Y-9241D01*
X26909D01*
Y-9512D01*
X27181D01*
Y-9783D01*
X27452D01*
Y-10325D01*
X27723D01*
Y-10867D01*
X27994D01*
Y-11409D01*
X28265D01*
Y-12493D01*
X28536D01*
Y-16016D01*
X28265D01*
Y-17372D01*
X27994D01*
Y-17914D01*
X27723D01*
Y-18456D01*
X27452D01*
Y-18727D01*
X27181D01*
Y-18998D01*
X26909D01*
Y-19269D01*
X26639D01*
Y-19540D01*
X26367D01*
Y-19811D01*
X25826D01*
Y-20082D01*
X25283D01*
Y-20353D01*
X24741D01*
Y-20624D01*
X23386D01*
Y-20895D01*
X21760D01*
Y-21166D01*
X22302D01*
Y-21437D01*
X23386D01*
Y-21708D01*
X24199D01*
Y-21979D01*
X24741D01*
Y-22250D01*
X25283D01*
Y-22521D01*
X25826D01*
Y-22792D01*
X26096D01*
Y-23063D01*
X26367D01*
Y-23605D01*
X26639D01*
Y-23876D01*
X26909D01*
Y-24689D01*
X27181D01*
Y-25773D01*
X27452D01*
Y-32006D01*
X27723D01*
Y-33362D01*
X27994D01*
Y-33904D01*
X29620D01*
Y-33633D01*
X29891D01*
Y-33091D01*
X30162D01*
Y-32278D01*
X30433D01*
Y-31193D01*
X30704D01*
Y-30651D01*
X31246D01*
Y-32278D01*
X30975D01*
Y-33362D01*
X30704D01*
Y-33904D01*
X30433D01*
Y-34446D01*
X30162D01*
Y-34988D01*
X29891D01*
Y-35259D01*
X29620D01*
Y-35530D01*
X29349D01*
Y-35801D01*
X28807D01*
Y-36072D01*
X27723D01*
Y-36343D01*
X22844D01*
Y-36072D01*
X22031D01*
Y-35801D01*
X21489D01*
Y-35530D01*
X21218D01*
Y-35259D01*
X20676D01*
Y-34988D01*
X20405D01*
Y-34446D01*
X20134D01*
Y-34175D01*
X19863D01*
Y-33362D01*
X19592D01*
Y-32549D01*
X19321D01*
Y-30923D01*
X19050D01*
Y-23876D01*
X18779D01*
Y-22792D01*
X18508D01*
Y-22521D01*
X18237D01*
Y-21979D01*
X17695D01*
Y-21708D01*
X16882D01*
Y-21437D01*
X14172D01*
Y-35259D01*
X16882D01*
Y-36072D01*
X3331D01*
Y-35259D01*
X6041D01*
Y-7886D01*
X3331D01*
Y-7344D01*
X21489D01*
Y-7615D01*
D02*
G37*
G36*
X113093Y-37969D02*
X112822D01*
Y-40137D01*
X114990D01*
Y-40408D01*
X117158D01*
Y-40679D01*
X119598D01*
Y-40950D01*
X121766D01*
Y-41221D01*
X123934D01*
Y-41492D01*
X124476D01*
Y-43660D01*
X124205D01*
Y-44202D01*
X122579D01*
Y-43931D01*
X120140D01*
Y-43660D01*
X117701D01*
Y-43389D01*
X115261D01*
Y-43118D01*
X113093D01*
Y-42847D01*
X112280D01*
Y-44744D01*
X112009D01*
Y-46371D01*
X110925D01*
Y-46100D01*
X109570D01*
Y-45015D01*
X109841D01*
Y-42576D01*
X110112D01*
Y-40408D01*
X110383D01*
Y-37969D01*
X110654D01*
Y-36343D01*
X113093D01*
Y-37969D01*
D02*
G37*
G36*
X123392Y-51249D02*
X123121D01*
Y-52604D01*
X122850D01*
Y-53688D01*
X122579D01*
Y-53959D01*
X119598D01*
Y-54772D01*
X119327D01*
Y-55856D01*
X119056D01*
Y-56940D01*
X118785D01*
Y-58024D01*
X119056D01*
Y-58295D01*
X119598D01*
Y-58566D01*
X120140D01*
Y-58837D01*
X120682D01*
Y-59108D01*
X121224D01*
Y-60463D01*
X120953D01*
Y-61818D01*
X120682D01*
Y-62361D01*
X120411D01*
Y-62090D01*
X119869D01*
Y-61818D01*
X119598D01*
Y-61547D01*
X119056D01*
Y-61276D01*
X118514D01*
Y-61006D01*
X118243D01*
Y-60734D01*
X117701D01*
Y-60463D01*
X117158D01*
Y-60192D01*
X116888D01*
Y-59921D01*
X116346D01*
Y-59650D01*
X115803D01*
Y-59379D01*
X115532D01*
Y-59108D01*
X114990D01*
Y-58837D01*
X114448D01*
Y-58566D01*
X114177D01*
Y-58295D01*
X113635D01*
Y-58024D01*
X113093D01*
Y-57753D01*
X112822D01*
Y-57482D01*
X112280D01*
Y-57211D01*
X111738D01*
Y-56940D01*
X111467D01*
Y-56669D01*
X110925D01*
Y-56398D01*
X110383D01*
Y-56127D01*
X110112D01*
Y-55856D01*
X109570D01*
Y-55585D01*
X109028D01*
Y-55314D01*
X108757D01*
Y-55043D01*
X108215D01*
Y-54772D01*
X107673D01*
Y-54230D01*
X107944D01*
Y-53146D01*
X108215D01*
Y-52062D01*
X110112D01*
Y-51791D01*
X113906D01*
Y-51520D01*
X117701D01*
Y-51249D01*
X121495D01*
Y-50978D01*
X123392D01*
Y-51249D01*
D02*
G37*
G36*
X106589Y-61547D02*
X107402D01*
Y-61818D01*
X108215D01*
Y-62090D01*
X108757D01*
Y-62361D01*
X109570D01*
Y-62632D01*
X110383D01*
Y-62903D01*
X110925D01*
Y-63174D01*
X111738D01*
Y-63445D01*
X112551D01*
Y-63716D01*
X113364D01*
Y-63987D01*
X113906D01*
Y-64258D01*
X114719D01*
Y-64529D01*
X115532D01*
Y-64800D01*
X116074D01*
Y-65071D01*
X116888D01*
Y-65342D01*
X117701D01*
Y-65613D01*
X118243D01*
Y-65884D01*
X119056D01*
Y-66155D01*
X119327D01*
Y-66697D01*
X119056D01*
Y-67510D01*
X118785D01*
Y-68323D01*
X118514D01*
Y-68865D01*
X116346D01*
Y-69136D01*
X112280D01*
Y-69407D01*
X108486D01*
Y-69678D01*
X108757D01*
Y-69949D01*
X109570D01*
Y-70220D01*
X110383D01*
Y-70491D01*
X110925D01*
Y-70762D01*
X111738D01*
Y-71033D01*
X112551D01*
Y-71304D01*
X113093D01*
Y-71575D01*
X113906D01*
Y-71846D01*
X114719D01*
Y-72117D01*
X115261D01*
Y-72388D01*
X116074D01*
Y-72659D01*
X116888D01*
Y-73472D01*
X116616D01*
Y-74014D01*
X116346D01*
Y-74827D01*
X116074D01*
Y-75369D01*
X114990D01*
Y-75098D01*
X114177D01*
Y-74827D01*
X113635D01*
Y-74556D01*
X112822D01*
Y-74285D01*
X112009D01*
Y-74014D01*
X111467D01*
Y-73743D01*
X110654D01*
Y-73472D01*
X109841D01*
Y-73201D01*
X109299D01*
Y-72930D01*
X108486D01*
Y-72659D01*
X107673D01*
Y-72388D01*
X107131D01*
Y-72117D01*
X106318D01*
Y-71846D01*
X105505D01*
Y-71575D01*
X104692D01*
Y-71304D01*
X104150D01*
Y-71033D01*
X103337D01*
Y-70762D01*
X102523D01*
Y-69949D01*
X102795D01*
Y-69407D01*
X103066D01*
Y-68594D01*
X103337D01*
Y-67781D01*
X106318D01*
Y-67510D01*
X110112D01*
Y-67239D01*
X113364D01*
Y-66968D01*
X113093D01*
Y-66697D01*
X112280D01*
Y-66426D01*
X111467D01*
Y-66155D01*
X110925D01*
Y-65884D01*
X110112D01*
Y-65613D01*
X109299D01*
Y-65342D01*
X108757D01*
Y-65071D01*
X107944D01*
Y-64800D01*
X107131D01*
Y-64529D01*
X106318D01*
Y-64258D01*
X105776D01*
Y-63987D01*
X104963D01*
Y-63445D01*
X105234D01*
Y-62632D01*
X105505D01*
Y-62090D01*
X105776D01*
Y-61276D01*
X106589D01*
Y-61547D01*
D02*
G37*
G36*
X98729Y-79164D02*
X99271D01*
Y-79435D01*
X99813D01*
Y-79706D01*
X100084D01*
Y-79977D01*
X100626D01*
Y-80248D01*
X101168D01*
Y-80519D01*
X101440D01*
Y-80790D01*
X101981D01*
Y-81061D01*
X102523D01*
Y-81332D01*
X103066D01*
Y-81603D01*
X103337D01*
Y-81874D01*
X103879D01*
Y-82145D01*
X104421D01*
Y-82416D01*
X104692D01*
Y-82687D01*
X105234D01*
Y-82958D01*
X105776D01*
Y-83229D01*
X106047D01*
Y-83500D01*
X106589D01*
Y-83771D01*
X107131D01*
Y-84042D01*
X107402D01*
Y-84313D01*
X107944D01*
Y-84584D01*
X108486D01*
Y-84855D01*
X109028D01*
Y-85126D01*
X109299D01*
Y-85397D01*
X109841D01*
Y-85668D01*
X110383D01*
Y-85939D01*
X110654D01*
Y-86752D01*
X110383D01*
Y-87294D01*
X110112D01*
Y-87565D01*
X109841D01*
Y-88107D01*
X109570D01*
Y-88649D01*
X109028D01*
Y-88378D01*
X108757D01*
Y-88107D01*
X108215D01*
Y-87836D01*
X107673D01*
Y-87565D01*
X107402D01*
Y-87294D01*
X106860D01*
Y-87023D01*
X106318D01*
Y-86752D01*
X106047D01*
Y-86481D01*
X105505D01*
Y-86210D01*
X104963D01*
Y-85939D01*
X104421D01*
Y-85668D01*
X103879D01*
Y-86210D01*
X103608D01*
Y-86481D01*
X103337D01*
Y-87023D01*
X103066D01*
Y-87565D01*
X102795D01*
Y-87836D01*
X102523D01*
Y-88378D01*
X102253D01*
Y-88920D01*
X101981D01*
Y-89462D01*
X102523D01*
Y-89733D01*
X103066D01*
Y-90004D01*
X103337D01*
Y-90275D01*
X103879D01*
Y-90546D01*
X104421D01*
Y-90817D01*
X104692D01*
Y-91088D01*
X105234D01*
Y-91360D01*
X105776D01*
Y-91630D01*
X106047D01*
Y-91902D01*
X106589D01*
Y-92172D01*
X107131D01*
Y-92715D01*
X106860D01*
Y-92986D01*
X106589D01*
Y-93528D01*
X106318D01*
Y-94070D01*
X106047D01*
Y-94341D01*
X105776D01*
Y-94883D01*
X105505D01*
Y-94612D01*
X105234D01*
Y-94341D01*
X104692D01*
Y-94070D01*
X104150D01*
Y-93799D01*
X103879D01*
Y-93528D01*
X103337D01*
Y-93257D01*
X102795D01*
Y-92986D01*
X102253D01*
Y-92715D01*
X101981D01*
Y-92444D01*
X101440D01*
Y-92172D01*
X100897D01*
Y-91902D01*
X100626D01*
Y-91630D01*
X100084D01*
Y-91360D01*
X99542D01*
Y-91088D01*
X99271D01*
Y-90817D01*
X98729D01*
Y-90546D01*
X98187D01*
Y-90275D01*
X97916D01*
Y-90004D01*
X97374D01*
Y-89733D01*
X96832D01*
Y-89462D01*
X96290D01*
Y-89191D01*
X96019D01*
Y-88920D01*
X95477D01*
Y-88649D01*
X94935D01*
Y-88378D01*
X94664D01*
Y-88107D01*
X94122D01*
Y-87836D01*
X93580D01*
Y-87565D01*
X93309D01*
Y-87294D01*
X93580D01*
Y-86752D01*
X93851D01*
Y-86481D01*
X94122D01*
Y-85939D01*
X94393D01*
Y-85397D01*
X94664D01*
Y-85126D01*
X95206D01*
Y-85397D01*
X95748D01*
Y-85668D01*
X96290D01*
Y-85939D01*
X96561D01*
Y-86210D01*
X97103D01*
Y-86481D01*
X97645D01*
Y-86752D01*
X97916D01*
Y-87023D01*
X98458D01*
Y-87294D01*
X99000D01*
Y-87565D01*
X99271D01*
Y-87836D01*
X100084D01*
Y-87294D01*
X100355D01*
Y-86752D01*
X100626D01*
Y-86481D01*
X100897D01*
Y-85939D01*
X101168D01*
Y-85397D01*
X101440D01*
Y-84855D01*
X101711D01*
Y-84584D01*
X101981D01*
Y-84042D01*
X101440D01*
Y-83771D01*
X100897D01*
Y-83500D01*
X100626D01*
Y-83229D01*
X100084D01*
Y-82958D01*
X99542D01*
Y-82687D01*
X99271D01*
Y-82416D01*
X98729D01*
Y-82145D01*
X98187D01*
Y-81874D01*
X97916D01*
Y-81603D01*
X97374D01*
Y-81332D01*
X97103D01*
Y-80790D01*
X97374D01*
Y-80519D01*
X97645D01*
Y-79977D01*
X97916D01*
Y-79435D01*
X98187D01*
Y-79164D01*
X98458D01*
Y-78893D01*
X98729D01*
Y-79164D01*
D02*
G37*
G36*
X92225Y-90004D02*
X92767D01*
Y-90275D01*
X93038D01*
Y-90546D01*
X93309D01*
Y-90817D01*
X93580D01*
Y-91088D01*
X93851D01*
Y-91360D01*
X93580D01*
Y-91630D01*
X93309D01*
Y-91902D01*
X93038D01*
Y-92444D01*
X92767D01*
Y-92715D01*
X92496D01*
Y-92986D01*
X92225D01*
Y-93257D01*
X91954D01*
Y-93799D01*
X91683D01*
Y-94070D01*
X92225D01*
Y-94341D01*
X92496D01*
Y-94612D01*
X92767D01*
Y-94883D01*
X93309D01*
Y-95154D01*
X93580D01*
Y-95425D01*
X93851D01*
Y-95696D01*
X94122D01*
Y-95967D01*
X94664D01*
Y-96238D01*
X94935D01*
Y-96509D01*
X95206D01*
Y-96780D01*
X95748D01*
Y-97051D01*
X96019D01*
Y-97322D01*
X96290D01*
Y-97593D01*
X96832D01*
Y-97864D01*
X97103D01*
Y-98135D01*
X97374D01*
Y-98406D01*
X97645D01*
Y-98677D01*
X98187D01*
Y-98948D01*
X98458D01*
Y-99219D01*
X98729D01*
Y-99490D01*
X99271D01*
Y-99761D01*
X99542D01*
Y-100032D01*
X99813D01*
Y-100303D01*
X100084D01*
Y-100574D01*
X100626D01*
Y-100845D01*
X100897D01*
Y-101116D01*
X101168D01*
Y-101387D01*
X100897D01*
Y-101658D01*
X100626D01*
Y-102200D01*
X100355D01*
Y-102471D01*
X100084D01*
Y-102742D01*
X99813D01*
Y-103013D01*
X99542D01*
Y-103284D01*
X99000D01*
Y-103013D01*
X98729D01*
Y-102742D01*
X98187D01*
Y-102471D01*
X97916D01*
Y-102200D01*
X97645D01*
Y-101929D01*
X97103D01*
Y-101658D01*
X96832D01*
Y-101387D01*
X96561D01*
Y-101116D01*
X96019D01*
Y-100845D01*
X95748D01*
Y-100574D01*
X95477D01*
Y-100303D01*
X94935D01*
Y-100032D01*
X94664D01*
Y-99761D01*
X94393D01*
Y-99490D01*
X94122D01*
Y-99219D01*
X93580D01*
Y-98948D01*
X93309D01*
Y-98677D01*
X93038D01*
Y-98406D01*
X92496D01*
Y-98135D01*
X92225D01*
Y-97864D01*
X91954D01*
Y-97593D01*
X91412D01*
Y-97322D01*
X91141D01*
Y-97051D01*
X90870D01*
Y-96780D01*
X90328D01*
Y-96509D01*
X90057D01*
Y-96238D01*
X89786D01*
Y-96509D01*
X89515D01*
Y-97051D01*
X89244D01*
Y-97322D01*
X88973D01*
Y-97593D01*
X88702D01*
Y-97864D01*
X88431D01*
Y-98406D01*
X88160D01*
Y-98677D01*
X87889D01*
Y-98948D01*
X87618D01*
Y-98677D01*
X87076D01*
Y-98406D01*
X86805D01*
Y-98135D01*
X86533D01*
Y-97864D01*
X86263D01*
Y-97593D01*
X85991D01*
Y-97322D01*
X86263D01*
Y-96780D01*
X86533D01*
Y-96509D01*
X86805D01*
Y-96238D01*
X87076D01*
Y-95696D01*
X87346D01*
Y-95425D01*
X87618D01*
Y-95154D01*
X87889D01*
Y-94612D01*
X88160D01*
Y-94341D01*
X88431D01*
Y-94070D01*
X88702D01*
Y-93528D01*
X88973D01*
Y-93257D01*
X89244D01*
Y-92986D01*
X89515D01*
Y-92715D01*
X89786D01*
Y-92172D01*
X90057D01*
Y-91902D01*
X90328D01*
Y-91630D01*
X90599D01*
Y-91088D01*
X90870D01*
Y-90817D01*
X91141D01*
Y-90546D01*
X91412D01*
Y-90004D01*
X91683D01*
Y-89733D01*
X92225D01*
Y-90004D01*
D02*
G37*
G36*
X84094Y-100032D02*
X84365D01*
Y-100303D01*
X84636D01*
Y-100574D01*
X84907D01*
Y-100845D01*
X85449D01*
Y-101116D01*
X85720D01*
Y-101387D01*
X85991D01*
Y-101658D01*
X86263D01*
Y-101929D01*
X86533D01*
Y-102200D01*
X86805D01*
Y-102471D01*
X87076D01*
Y-102742D01*
X87346D01*
Y-103013D01*
X87618D01*
Y-103284D01*
X87889D01*
Y-103555D01*
X88431D01*
Y-103826D01*
X88702D01*
Y-104097D01*
X88973D01*
Y-104368D01*
X89244D01*
Y-104639D01*
X89515D01*
Y-104910D01*
X89786D01*
Y-105181D01*
X90057D01*
Y-105452D01*
X90328D01*
Y-105723D01*
X90599D01*
Y-105995D01*
X90870D01*
Y-106265D01*
X91141D01*
Y-106537D01*
X91683D01*
Y-106807D01*
X91954D01*
Y-107079D01*
X92225D01*
Y-107350D01*
X92496D01*
Y-107621D01*
X92767D01*
Y-107892D01*
X93038D01*
Y-108163D01*
X93309D01*
Y-108434D01*
X93580D01*
Y-108705D01*
X93851D01*
Y-108976D01*
X94122D01*
Y-109247D01*
X94393D01*
Y-109518D01*
X94122D01*
Y-109789D01*
X93851D01*
Y-110060D01*
X93580D01*
Y-110331D01*
X93309D01*
Y-110602D01*
X93038D01*
Y-111144D01*
X92767D01*
Y-111415D01*
X92225D01*
Y-111144D01*
X91954D01*
Y-110873D01*
X91683D01*
Y-110602D01*
X91412D01*
Y-110331D01*
X91141D01*
Y-110060D01*
X90870D01*
Y-109789D01*
X90599D01*
Y-109518D01*
X90328D01*
Y-109247D01*
X89786D01*
Y-108976D01*
X89515D01*
Y-108705D01*
X89244D01*
Y-108434D01*
X88973D01*
Y-108163D01*
X88702D01*
Y-107892D01*
X88431D01*
Y-107621D01*
X88160D01*
Y-107350D01*
X87889D01*
Y-107079D01*
X87618D01*
Y-106807D01*
X87346D01*
Y-106537D01*
X87076D01*
Y-106265D01*
X86805D01*
Y-105995D01*
X86263D01*
Y-105723D01*
X85991D01*
Y-105452D01*
X85720D01*
Y-105181D01*
X85449D01*
Y-104910D01*
X85178D01*
Y-104639D01*
X84907D01*
Y-104368D01*
X84636D01*
Y-104097D01*
X84365D01*
Y-103826D01*
X84094D01*
Y-103555D01*
X83823D01*
Y-103284D01*
X83552D01*
Y-103013D01*
X83010D01*
Y-102742D01*
X82739D01*
Y-102471D01*
X82468D01*
Y-102200D01*
X82197D01*
Y-101929D01*
X81926D01*
Y-101658D01*
X82197D01*
Y-101387D01*
X82468D01*
Y-100845D01*
X82739D01*
Y-100574D01*
X83010D01*
Y-100303D01*
X83281D01*
Y-100032D01*
X83552D01*
Y-99761D01*
X84094D01*
Y-100032D01*
D02*
G37*
G36*
X80300Y-104097D02*
X80571D01*
Y-104639D01*
X80842D01*
Y-104910D01*
X81113D01*
Y-105452D01*
X81384D01*
Y-105995D01*
X81655D01*
Y-106265D01*
X81926D01*
Y-106807D01*
X82197D01*
Y-107350D01*
X82468D01*
Y-107621D01*
X82739D01*
Y-108163D01*
X83010D01*
Y-108705D01*
X83281D01*
Y-108976D01*
X83552D01*
Y-109518D01*
X83823D01*
Y-110060D01*
X84094D01*
Y-110331D01*
X84365D01*
Y-110873D01*
X84636D01*
Y-111415D01*
X84907D01*
Y-111686D01*
X85178D01*
Y-112228D01*
X85449D01*
Y-112499D01*
X85720D01*
Y-113041D01*
X85991D01*
Y-113312D01*
Y-113583D01*
X86263D01*
Y-113854D01*
X86533D01*
Y-114396D01*
X86805D01*
Y-114938D01*
X87076D01*
Y-115209D01*
X87346D01*
Y-115751D01*
X87618D01*
Y-116564D01*
X87346D01*
Y-116835D01*
X87076D01*
Y-117106D01*
X86805D01*
Y-117377D01*
X86533D01*
Y-117648D01*
X86263D01*
Y-117919D01*
X85720D01*
Y-118190D01*
X85449D01*
Y-117919D01*
X84907D01*
Y-117648D01*
X84636D01*
Y-117377D01*
X84365D01*
Y-117106D01*
X84094D01*
Y-116835D01*
X83552D01*
Y-116564D01*
X83281D01*
Y-116293D01*
X83010D01*
Y-116022D01*
X82468D01*
Y-115751D01*
X82197D01*
Y-115480D01*
X81926D01*
Y-115209D01*
X81384D01*
Y-114938D01*
X81113D01*
Y-114667D01*
X80842D01*
Y-114396D01*
X80571D01*
Y-114125D01*
X80029D01*
Y-113854D01*
X79758D01*
Y-113583D01*
X79487D01*
Y-113312D01*
X78945D01*
Y-113583D01*
X79216D01*
Y-113854D01*
X79487D01*
Y-114396D01*
X79758D01*
Y-114938D01*
X80029D01*
Y-115480D01*
X80300D01*
Y-115751D01*
X80571D01*
Y-116293D01*
X80842D01*
Y-116835D01*
X81113D01*
Y-117106D01*
X81384D01*
Y-117648D01*
X81655D01*
Y-118190D01*
X81926D01*
Y-118732D01*
X82197D01*
Y-119003D01*
X82468D01*
Y-119545D01*
X82739D01*
Y-120087D01*
X83010D01*
Y-120629D01*
X82739D01*
Y-120900D01*
X82468D01*
Y-121172D01*
X82197D01*
Y-121442D01*
X81926D01*
Y-121713D01*
X81655D01*
Y-121985D01*
X81113D01*
Y-122255D01*
X80571D01*
Y-121985D01*
X80300D01*
Y-121713D01*
X80029D01*
Y-121442D01*
X79487D01*
Y-121172D01*
X79216D01*
Y-120900D01*
X78945D01*
Y-120629D01*
X78674D01*
Y-120358D01*
X78132D01*
Y-120087D01*
X77861D01*
Y-119816D01*
X77590D01*
Y-119545D01*
X77319D01*
Y-119274D01*
X76777D01*
Y-119003D01*
X76506D01*
Y-118732D01*
X76235D01*
Y-118461D01*
X75964D01*
Y-118190D01*
X75422D01*
Y-117919D01*
X75151D01*
Y-117648D01*
X74880D01*
Y-117377D01*
X74609D01*
Y-117106D01*
X74067D01*
Y-116835D01*
X73796D01*
Y-116564D01*
X73525D01*
Y-116293D01*
X73254D01*
Y-116022D01*
X72712D01*
Y-115751D01*
X72441D01*
Y-115480D01*
X72169D01*
Y-115209D01*
X71898D01*
Y-114938D01*
X71357D01*
Y-114667D01*
X71086D01*
Y-114396D01*
X70814D01*
Y-114125D01*
X70543D01*
Y-113854D01*
X70001D01*
Y-113583D01*
X69730D01*
Y-113041D01*
X70001D01*
Y-112770D01*
X70272D01*
Y-112499D01*
X70543D01*
Y-112228D01*
X70814D01*
Y-111957D01*
X71086D01*
Y-111686D01*
X71357D01*
Y-111415D01*
X71898D01*
Y-111686D01*
X72169D01*
Y-111957D01*
X72441D01*
Y-112228D01*
X72983D01*
Y-112499D01*
X73254D01*
Y-112770D01*
X73525D01*
Y-113041D01*
X73796D01*
Y-113312D01*
X74067D01*
Y-113583D01*
X74609D01*
Y-113854D01*
X74880D01*
Y-114125D01*
X75151D01*
Y-114396D01*
X75422D01*
Y-114667D01*
X75693D01*
Y-114938D01*
X75964D01*
Y-115209D01*
X76506D01*
Y-115480D01*
X76777D01*
Y-115751D01*
X77048D01*
Y-116022D01*
X77319D01*
Y-116293D01*
X77590D01*
Y-116564D01*
X78132D01*
Y-116835D01*
X78403D01*
Y-116564D01*
X78132D01*
Y-116022D01*
X77861D01*
Y-115751D01*
X77590D01*
Y-115209D01*
X77319D01*
Y-114667D01*
X77048D01*
Y-114396D01*
X76777D01*
Y-113854D01*
X76506D01*
Y-113312D01*
X76235D01*
Y-113041D01*
X75964D01*
Y-112499D01*
X75693D01*
Y-111957D01*
X75422D01*
Y-111686D01*
X75151D01*
Y-111144D01*
X74880D01*
Y-110602D01*
X74609D01*
Y-110331D01*
X74338D01*
Y-109789D01*
X74067D01*
Y-109247D01*
X74338D01*
Y-108976D01*
X74609D01*
Y-108705D01*
X74880D01*
Y-108434D01*
X75151D01*
Y-108163D01*
X75422D01*
Y-107892D01*
X76235D01*
Y-108163D01*
X76506D01*
Y-108434D01*
X76777D01*
Y-108705D01*
X77319D01*
Y-108976D01*
X77590D01*
Y-109247D01*
X77861D01*
Y-109518D01*
X78132D01*
Y-109789D01*
X78674D01*
Y-110060D01*
X78945D01*
Y-110331D01*
X79216D01*
Y-110602D01*
X79758D01*
Y-110873D01*
X80029D01*
Y-111144D01*
X80300D01*
Y-111415D01*
X80571D01*
Y-111686D01*
X81113D01*
Y-111957D01*
X81384D01*
Y-112228D01*
X81655D01*
Y-112499D01*
X82197D01*
Y-112770D01*
X82468D01*
Y-113041D01*
X82739D01*
Y-112770D01*
X82468D01*
Y-112228D01*
X82197D01*
Y-111957D01*
X81926D01*
Y-111415D01*
X81655D01*
Y-111144D01*
X81384D01*
Y-110602D01*
X81113D01*
Y-110331D01*
X80842D01*
Y-109789D01*
X80571D01*
Y-109247D01*
X80300D01*
Y-108976D01*
X80029D01*
Y-108434D01*
X79758D01*
Y-108163D01*
X79487D01*
Y-107621D01*
X79216D01*
Y-107350D01*
X78945D01*
Y-106807D01*
X78674D01*
Y-106537D01*
X78403D01*
Y-105995D01*
X78132D01*
Y-105452D01*
X78674D01*
Y-105181D01*
X78945D01*
Y-104910D01*
X79216D01*
Y-104639D01*
X79487D01*
Y-104368D01*
X79758D01*
Y-104097D01*
X80029D01*
Y-103826D01*
X80300D01*
Y-104097D01*
D02*
G37*
G36*
X63497Y-119545D02*
X63768D01*
Y-121442D01*
X64039D01*
Y-123340D01*
X64310D01*
Y-125237D01*
X64581D01*
Y-127134D01*
X64852D01*
Y-127676D01*
X65123D01*
Y-128218D01*
X65394D01*
Y-128760D01*
X65665D01*
Y-129302D01*
X65936D01*
Y-129573D01*
X66207D01*
Y-130115D01*
X66478D01*
Y-130657D01*
X66749D01*
Y-130928D01*
X67020D01*
Y-131470D01*
X67291D01*
Y-132012D01*
X67020D01*
Y-132283D01*
X66478D01*
Y-132554D01*
X65936D01*
Y-132825D01*
X65665D01*
Y-133096D01*
X65123D01*
Y-133367D01*
X64852D01*
Y-133096D01*
X64581D01*
Y-132554D01*
X64310D01*
Y-132283D01*
X64039D01*
Y-131741D01*
X63768D01*
Y-131199D01*
X63497D01*
Y-130928D01*
X63226D01*
Y-130386D01*
X62955D01*
Y-129844D01*
X62684D01*
Y-129302D01*
X62413D01*
Y-129031D01*
X62142D01*
Y-128760D01*
X61871D01*
Y-128489D01*
X61600D01*
Y-128218D01*
X61058D01*
Y-127947D01*
X60787D01*
Y-127676D01*
X60516D01*
Y-127405D01*
X59974D01*
Y-127134D01*
X59703D01*
Y-126863D01*
X59432D01*
Y-126592D01*
X58890D01*
Y-126321D01*
X58619D01*
Y-126050D01*
X58348D01*
Y-125779D01*
X57806D01*
Y-125508D01*
X57535D01*
Y-125237D01*
X57263D01*
Y-124966D01*
X56722D01*
Y-124695D01*
X56451D01*
Y-124424D01*
X55908D01*
Y-124153D01*
X55637D01*
Y-123882D01*
X55366D01*
Y-123611D01*
X54824D01*
Y-123340D01*
X54553D01*
Y-123069D01*
X54282D01*
Y-122798D01*
X54553D01*
Y-122527D01*
X55095D01*
Y-122255D01*
X55637D01*
Y-121985D01*
X55908D01*
Y-121713D01*
X56451D01*
Y-121442D01*
X57263D01*
Y-121713D01*
X57535D01*
Y-121985D01*
X57806D01*
Y-122255D01*
X58077D01*
Y-122527D01*
X58348D01*
Y-122798D01*
X58890D01*
Y-123069D01*
X59161D01*
Y-123340D01*
X59432D01*
Y-123611D01*
X59703D01*
Y-123882D01*
X59974D01*
Y-124153D01*
X60245D01*
Y-124424D01*
X60787D01*
Y-124695D01*
X61058D01*
Y-124966D01*
X61329D01*
Y-125237D01*
X61600D01*
Y-125508D01*
X61871D01*
Y-124153D01*
X61600D01*
Y-122798D01*
X61329D01*
Y-121713D01*
X61058D01*
Y-120358D01*
X60787D01*
Y-119003D01*
X61058D01*
Y-118732D01*
X61600D01*
Y-118461D01*
X62142D01*
Y-118190D01*
X62413D01*
Y-117919D01*
X62955D01*
Y-117648D01*
X63497D01*
Y-119545D01*
D02*
G37*
G36*
X57535Y78298D02*
X57806D01*
Y78027D01*
X58077D01*
Y77756D01*
X58619D01*
Y77485D01*
X58890D01*
Y77214D01*
X59161D01*
Y76943D01*
X59703D01*
Y76672D01*
X59974D01*
Y76401D01*
X60245D01*
Y76130D01*
X60516D01*
Y75859D01*
X61058D01*
Y75588D01*
X61329D01*
Y75317D01*
X61600D01*
Y75046D01*
X61871D01*
Y74775D01*
X62142D01*
Y74503D01*
X62684D01*
Y74233D01*
X62955D01*
Y73962D01*
X63226D01*
Y73691D01*
X63497D01*
Y73419D01*
X63768D01*
Y73148D01*
X64310D01*
Y72877D01*
X64581D01*
Y72606D01*
X64852D01*
Y72335D01*
X65123D01*
Y72064D01*
X65394D01*
Y71793D01*
X65665D01*
Y71522D01*
X65936D01*
Y71251D01*
X66207D01*
Y70980D01*
X66478D01*
Y70709D01*
X66749D01*
Y70438D01*
X67291D01*
Y70167D01*
X67562D01*
Y69896D01*
X67833D01*
Y69625D01*
X68104D01*
Y69354D01*
X68375D01*
Y69083D01*
X68646D01*
Y68812D01*
X68917D01*
Y68541D01*
X69188D01*
Y68270D01*
X69459D01*
Y67999D01*
X69730D01*
Y67728D01*
X70001D01*
Y67457D01*
X70272D01*
Y67186D01*
X70543D01*
Y66915D01*
X70814D01*
Y66644D01*
X71086D01*
Y66373D01*
X71357D01*
Y66102D01*
X71627D01*
Y65831D01*
X71898D01*
Y65560D01*
X72169D01*
Y65289D01*
X72441D01*
Y64747D01*
X72712D01*
Y64476D01*
X72983D01*
Y64205D01*
X73254D01*
Y63934D01*
X73525D01*
Y63663D01*
X73796D01*
Y63392D01*
X74067D01*
Y63121D01*
X74338D01*
Y62850D01*
X74609D01*
Y62579D01*
X74880D01*
Y62037D01*
X75151D01*
Y61766D01*
X75422D01*
Y61495D01*
X75693D01*
Y61224D01*
X75964D01*
Y60953D01*
X76235D01*
Y60682D01*
X76506D01*
Y60140D01*
X76777D01*
Y59869D01*
X77048D01*
Y59598D01*
X77319D01*
Y59327D01*
X77590D01*
Y59056D01*
X77861D01*
Y58513D01*
X78132D01*
Y58243D01*
X78403D01*
Y57971D01*
X78674D01*
Y57429D01*
X78945D01*
Y57158D01*
X79216D01*
Y56887D01*
X79487D01*
Y56345D01*
X79758D01*
Y56074D01*
X80029D01*
Y55803D01*
X80300D01*
Y55532D01*
X80571D01*
Y54990D01*
X80842D01*
Y54719D01*
X81113D01*
Y54177D01*
X81384D01*
Y53906D01*
X81655D01*
Y53635D01*
X81926D01*
Y53093D01*
X82197D01*
Y52822D01*
X82468D01*
Y52551D01*
X82739D01*
Y52009D01*
X83010D01*
Y51738D01*
X83281D01*
Y51196D01*
X83552D01*
Y50925D01*
X83823D01*
Y50383D01*
X84094D01*
Y50112D01*
X84365D01*
Y49570D01*
X84636D01*
Y49299D01*
X84907D01*
Y48757D01*
X85178D01*
Y48486D01*
X85449D01*
Y47944D01*
X85720D01*
Y47673D01*
X85991D01*
Y47131D01*
X86263D01*
Y46589D01*
X86533D01*
Y46318D01*
X86805D01*
Y45776D01*
X87076D01*
Y45234D01*
X87346D01*
Y44963D01*
X87618D01*
Y44420D01*
X87889D01*
Y43878D01*
X88160D01*
Y43608D01*
X88431D01*
Y43065D01*
X88702D01*
Y42523D01*
X88973D01*
Y41981D01*
X89244D01*
Y41439D01*
X89515D01*
Y40897D01*
X89786D01*
Y40626D01*
X90057D01*
Y40084D01*
X90328D01*
Y39542D01*
X90599D01*
Y39000D01*
X90870D01*
Y38458D01*
X91141D01*
Y37916D01*
X91412D01*
Y37374D01*
X91683D01*
Y36832D01*
X91954D01*
Y36290D01*
X92225D01*
Y35748D01*
X92496D01*
Y34935D01*
X92767D01*
Y34393D01*
X93038D01*
Y33851D01*
X93309D01*
Y33309D01*
X93580D01*
Y32767D01*
X93851D01*
Y31954D01*
X94122D01*
Y31412D01*
X94393D01*
Y30870D01*
X94664D01*
Y30057D01*
X94935D01*
Y29515D01*
X95206D01*
Y28702D01*
X95477D01*
Y27888D01*
X95748D01*
Y27346D01*
X96019D01*
Y26533D01*
X96290D01*
Y25720D01*
X96561D01*
Y24907D01*
X96832D01*
Y24365D01*
X97103D01*
Y23552D01*
X97374D01*
Y22739D01*
X97645D01*
Y21926D01*
X97916D01*
Y20842D01*
X98187D01*
Y20029D01*
X98458D01*
Y19216D01*
X98729D01*
Y18403D01*
X99000D01*
Y17319D01*
X99271D01*
Y16235D01*
X99542D01*
Y15151D01*
X99813D01*
Y14066D01*
X100084D01*
Y12982D01*
X100355D01*
Y11627D01*
X100626D01*
Y10543D01*
X100897D01*
Y9188D01*
X101168D01*
Y7562D01*
X101440D01*
Y6207D01*
X101711D01*
Y4581D01*
X101981D01*
Y2413D01*
X102253D01*
Y516D01*
X102523D01*
Y-2195D01*
X102795D01*
Y-5718D01*
X103066D01*
Y-20353D01*
X102795D01*
Y-23605D01*
X102523D01*
Y-26315D01*
X102253D01*
Y-28483D01*
X101981D01*
Y-30109D01*
X101711D01*
Y-32006D01*
X101440D01*
Y-33362D01*
X101168D01*
Y-34988D01*
X100897D01*
Y-36343D01*
X100626D01*
Y-37427D01*
X100355D01*
Y-38782D01*
X100084D01*
Y-39866D01*
X99813D01*
Y-40950D01*
X99542D01*
Y-42034D01*
X99271D01*
Y-43118D01*
X99000D01*
Y-43931D01*
X98729D01*
Y-45015D01*
X98458D01*
Y-45828D01*
X98187D01*
Y-46912D01*
X97916D01*
Y-47726D01*
X97645D01*
Y-48539D01*
X97374D01*
Y-49352D01*
X97103D01*
Y-50165D01*
X96832D01*
Y-50978D01*
X96561D01*
Y-51791D01*
X96290D01*
Y-52333D01*
X96019D01*
Y-53146D01*
X95748D01*
Y-53959D01*
X95477D01*
Y-54501D01*
X95206D01*
Y-55314D01*
X94935D01*
Y-55856D01*
X94664D01*
Y-56669D01*
X94393D01*
Y-57211D01*
X94122D01*
Y-58024D01*
X93851D01*
Y-58566D01*
X93580D01*
Y-59108D01*
X93309D01*
Y-59650D01*
X93038D01*
Y-60463D01*
X92767D01*
Y-61006D01*
X92496D01*
Y-61547D01*
X92225D01*
Y-62090D01*
X91954D01*
Y-62632D01*
X91683D01*
Y-63174D01*
X91412D01*
Y-63716D01*
X91141D01*
Y-64258D01*
X90870D01*
Y-64800D01*
X90599D01*
Y-65342D01*
X90328D01*
Y-65884D01*
X90057D01*
Y-66426D01*
X89786D01*
Y-66968D01*
X89515D01*
Y-67510D01*
X89244D01*
Y-68052D01*
X88973D01*
Y-68323D01*
X88702D01*
Y-68865D01*
X88431D01*
Y-69407D01*
X88160D01*
Y-69949D01*
X87889D01*
Y-70220D01*
X87618D01*
Y-70762D01*
X87346D01*
Y-71304D01*
X87076D01*
Y-71846D01*
X86805D01*
Y-72117D01*
X86533D01*
Y-72659D01*
X86263D01*
Y-73201D01*
X85991D01*
Y-73472D01*
X85720D01*
Y-74014D01*
X85449D01*
Y-74285D01*
X85178D01*
Y-74827D01*
X84907D01*
Y-75098D01*
X84636D01*
Y-75640D01*
X84365D01*
Y-75911D01*
X84094D01*
Y-76453D01*
X83823D01*
Y-76725D01*
X83552D01*
Y-77267D01*
X83281D01*
Y-77538D01*
X83010D01*
Y-78080D01*
X82739D01*
Y-78351D01*
X82468D01*
Y-78893D01*
X82197D01*
Y-79164D01*
X81926D01*
Y-79435D01*
X81655D01*
Y-79977D01*
X81384D01*
Y-80248D01*
X81113D01*
Y-80790D01*
X80842D01*
Y-81061D01*
X80571D01*
Y-81332D01*
X80300D01*
Y-81874D01*
X80029D01*
Y-82145D01*
X79758D01*
Y-82416D01*
X79487D01*
Y-82958D01*
X79216D01*
Y-83229D01*
X78945D01*
Y-83500D01*
X78674D01*
Y-83771D01*
X78403D01*
Y-84313D01*
X78132D01*
Y-84584D01*
X77861D01*
Y-84855D01*
X77590D01*
Y-85126D01*
X77319D01*
Y-85668D01*
X77048D01*
Y-85939D01*
X76777D01*
Y-86210D01*
X76506D01*
Y-86481D01*
X76235D01*
Y-86752D01*
X75964D01*
Y-87294D01*
X75693D01*
Y-87565D01*
X75422D01*
Y-87836D01*
X75151D01*
Y-88107D01*
X74880D01*
Y-88378D01*
X74609D01*
Y-88649D01*
X74338D01*
Y-88920D01*
X74067D01*
Y-89462D01*
X73796D01*
Y-89733D01*
X73525D01*
Y-90004D01*
X73254D01*
Y-90275D01*
X72983D01*
Y-90546D01*
X72712D01*
Y-90817D01*
X72441D01*
Y-91088D01*
X72169D01*
Y-91360D01*
X71898D01*
Y-91630D01*
X71627D01*
Y-91902D01*
X71357D01*
Y-92172D01*
X71086D01*
Y-92444D01*
X70814D01*
Y-92715D01*
X70543D01*
Y-92986D01*
X70272D01*
Y-93257D01*
X70001D01*
Y-93528D01*
X69730D01*
Y-93799D01*
X69459D01*
Y-94070D01*
X69188D01*
Y-94341D01*
X68917D01*
Y-94883D01*
X68375D01*
Y-95154D01*
X68104D01*
Y-95425D01*
X67833D01*
Y-95696D01*
X67562D01*
Y-95967D01*
X67291D01*
Y-96238D01*
X67020D01*
Y-96509D01*
X66749D01*
Y-96780D01*
X66478D01*
Y-97051D01*
X66207D01*
Y-97322D01*
X65936D01*
Y-97593D01*
X65665D01*
Y-97864D01*
X65394D01*
Y-98135D01*
X64852D01*
Y-98406D01*
X64581D01*
Y-98677D01*
X64310D01*
Y-98948D01*
X64039D01*
Y-99219D01*
X63768D01*
Y-99490D01*
X63497D01*
Y-99761D01*
X62955D01*
Y-100032D01*
X62684D01*
Y-100303D01*
X62413D01*
Y-100574D01*
X62142D01*
Y-100845D01*
X61871D01*
Y-101116D01*
X61600D01*
Y-101387D01*
X61058D01*
Y-101658D01*
X60787D01*
Y-101929D01*
X60516D01*
Y-102200D01*
X60245D01*
Y-102471D01*
X59703D01*
Y-102742D01*
X59432D01*
Y-103013D01*
X59161D01*
Y-103284D01*
X58619D01*
Y-103555D01*
X58348D01*
Y-103826D01*
X58077D01*
Y-104097D01*
X57535D01*
Y-104368D01*
X57263D01*
Y-104639D01*
X56993D01*
Y-104910D01*
X56451D01*
Y-105181D01*
X56179D01*
Y-105452D01*
X55908D01*
Y-105723D01*
X55366D01*
Y-105995D01*
X55095D01*
Y-106265D01*
X54824D01*
Y-106537D01*
X54282D01*
Y-106807D01*
X54011D01*
Y-107079D01*
X53740D01*
Y-107350D01*
X53198D01*
Y-107621D01*
X52927D01*
Y-107892D01*
X52385D01*
Y-108163D01*
X52114D01*
Y-108434D01*
X51572D01*
Y-108705D01*
X51301D01*
Y-108976D01*
X50759D01*
Y-109247D01*
X50488D01*
Y-109518D01*
X49946D01*
Y-109789D01*
X49404D01*
Y-110060D01*
X49133D01*
Y-110331D01*
X48591D01*
Y-110602D01*
X48049D01*
Y-110873D01*
X47778D01*
Y-111144D01*
X47236D01*
Y-111415D01*
X46694D01*
Y-111686D01*
X46423D01*
Y-111957D01*
X45881D01*
Y-112228D01*
X45339D01*
Y-112499D01*
X44797D01*
Y-112770D01*
X44255D01*
Y-113041D01*
X43984D01*
Y-113312D01*
X43442D01*
Y-113583D01*
X42900D01*
Y-113854D01*
X42358D01*
Y-114125D01*
X41816D01*
Y-114396D01*
X41273D01*
Y-114667D01*
X40731D01*
Y-114938D01*
X40189D01*
Y-115209D01*
X39647D01*
Y-115480D01*
X39105D01*
Y-115751D01*
X38563D01*
Y-116022D01*
X38021D01*
Y-116293D01*
X37479D01*
Y-116564D01*
X36937D01*
Y-116835D01*
X36395D01*
Y-117106D01*
X35853D01*
Y-117377D01*
X35040D01*
Y-117648D01*
X34498D01*
Y-117919D01*
X33956D01*
Y-118190D01*
X33414D01*
Y-118461D01*
X32601D01*
Y-118732D01*
X31788D01*
Y-119003D01*
X31246D01*
Y-119274D01*
X30433D01*
Y-119545D01*
X29891D01*
Y-119816D01*
X29078D01*
Y-120087D01*
X28536D01*
Y-120358D01*
X27723D01*
Y-120629D01*
X26909D01*
Y-120900D01*
X26096D01*
Y-121172D01*
X25283D01*
Y-121442D01*
X24470D01*
Y-121713D01*
X23657D01*
Y-121985D01*
X22844D01*
Y-122255D01*
X21760D01*
Y-122527D01*
X20947D01*
Y-122798D01*
X19863D01*
Y-123069D01*
X18779D01*
Y-123340D01*
X17966D01*
Y-123611D01*
X16882D01*
Y-123882D01*
X15798D01*
Y-124153D01*
X14443D01*
Y-124424D01*
X13359D01*
Y-124695D01*
X12275D01*
Y-124966D01*
X10920D01*
Y-125237D01*
X9293D01*
Y-125508D01*
X7938D01*
Y-125779D01*
X6041D01*
Y-126050D01*
X4144D01*
Y-126321D01*
X1976D01*
Y-126592D01*
X-463D01*
Y-126863D01*
X-4800D01*
Y-127134D01*
X-16453D01*
Y-126863D01*
X-20519D01*
Y-126592D01*
X-22958D01*
Y-126321D01*
X-25397D01*
Y-126050D01*
X-27294D01*
Y-125779D01*
X-29191D01*
Y-125508D01*
X-30817D01*
Y-125237D01*
X-32443D01*
Y-124966D01*
X-33798D01*
Y-124695D01*
X-35154D01*
Y-124424D01*
X-36238D01*
Y-124153D01*
X-37322D01*
Y-123882D01*
X-38406D01*
Y-123611D01*
X-39761D01*
Y-123340D01*
X-40574D01*
Y-123069D01*
X-41658D01*
Y-122798D01*
X-42471D01*
Y-122527D01*
X-43555D01*
Y-122255D01*
X-44368D01*
Y-121985D01*
X-45452D01*
Y-121713D01*
X-46265D01*
Y-121442D01*
X-47078D01*
Y-121172D01*
X-47891D01*
Y-120900D01*
X-48705D01*
Y-120629D01*
X-49518D01*
Y-120358D01*
X-50060D01*
Y-120087D01*
X-50873D01*
Y-119816D01*
X-51686D01*
Y-119545D01*
X-52228D01*
Y-119274D01*
X-53041D01*
Y-119003D01*
X-53854D01*
Y-118732D01*
X-54396D01*
Y-118461D01*
X-54938D01*
Y-118190D01*
X-55751D01*
Y-117919D01*
X-56293D01*
Y-117648D01*
X-57106D01*
Y-117377D01*
X-57648D01*
Y-117106D01*
X-58190D01*
Y-116835D01*
X-58732D01*
Y-116564D01*
X-59274D01*
Y-116293D01*
X-60087D01*
Y-116022D01*
X-60629D01*
Y-115751D01*
X-61171D01*
Y-115480D01*
X-61713D01*
Y-115209D01*
X-62255D01*
Y-114938D01*
X-62526D01*
Y-114667D01*
X-63068D01*
Y-114396D01*
X-63611D01*
Y-114125D01*
X-64152D01*
Y-113854D01*
X-64695D01*
Y-113583D01*
X-65237D01*
Y-113312D01*
X-65779D01*
Y-113041D01*
X-66321D01*
Y-112770D01*
X-66863D01*
Y-112499D01*
X-67405D01*
Y-112228D01*
X-67676D01*
Y-111957D01*
X-68218D01*
Y-111686D01*
X-68760D01*
Y-111415D01*
X-69031D01*
Y-111144D01*
X-69573D01*
Y-110873D01*
X-70115D01*
Y-110602D01*
X-70386D01*
Y-110331D01*
X-70928D01*
Y-110060D01*
X-71470D01*
Y-109789D01*
X-71741D01*
Y-109518D01*
X-72283D01*
Y-109247D01*
X-72825D01*
Y-108976D01*
X-73096D01*
Y-108705D01*
X-73638D01*
Y-108434D01*
X-73909D01*
Y-108163D01*
X-74451D01*
Y-107892D01*
X-74722D01*
Y-107621D01*
X-75264D01*
Y-107350D01*
X-75535D01*
Y-107079D01*
X-75806D01*
Y-106807D01*
X-76348D01*
Y-106537D01*
X-76619D01*
Y-106265D01*
X-77161D01*
Y-105995D01*
X-77432D01*
Y-105723D01*
X-77703D01*
Y-105452D01*
X-78246D01*
Y-105181D01*
X-78517D01*
Y-104910D01*
X-79058D01*
Y-104639D01*
X-79330D01*
Y-104368D01*
X-79601D01*
Y-104097D01*
X-80143D01*
Y-103826D01*
X-80414D01*
Y-103555D01*
X-80685D01*
Y-103284D01*
X-81227D01*
Y-103013D01*
X-81498D01*
Y-102742D01*
X-81769D01*
Y-102471D01*
X-82040D01*
Y-102200D01*
X-82582D01*
Y-101929D01*
X-82853D01*
Y-101658D01*
X-83124D01*
Y-101387D01*
X-83395D01*
Y-101116D01*
X-83937D01*
Y-100845D01*
X-84208D01*
Y-100574D01*
X-84479D01*
Y-100303D01*
X-84750D01*
Y-100032D01*
X-85021D01*
Y-99761D01*
X-85292D01*
Y-99490D01*
X-85834D01*
Y-99219D01*
X-86105D01*
Y-98948D01*
X-86376D01*
Y-98677D01*
X-86647D01*
Y-98406D01*
X-86918D01*
Y-98135D01*
X-87189D01*
Y-97864D01*
X-87460D01*
Y-97593D01*
X-87731D01*
Y-97322D01*
X-88273D01*
Y-97051D01*
X-88544D01*
Y-96780D01*
X-88815D01*
Y-96509D01*
X-89086D01*
Y-96238D01*
X-89357D01*
Y-95967D01*
X-89628D01*
Y-95696D01*
X-89899D01*
Y-95425D01*
X-90170D01*
Y-95154D01*
X-90441D01*
Y-94883D01*
X-90712D01*
Y-94612D01*
X-90983D01*
Y-94341D01*
X-91254D01*
Y-94070D01*
X-91525D01*
Y-93799D01*
X-91796D01*
Y-93528D01*
X-92067D01*
Y-93257D01*
X-92338D01*
Y-92986D01*
X-92609D01*
Y-92715D01*
X-92880D01*
Y-92444D01*
X-93152D01*
Y-92172D01*
X-93422D01*
Y-91902D01*
X-93694D01*
Y-91630D01*
X-93965D01*
Y-91360D01*
X-94235D01*
Y-91088D01*
X-94507D01*
Y-90817D01*
X-94778D01*
Y-90546D01*
X-95049D01*
Y-90004D01*
X-95320D01*
Y-89733D01*
X-95591D01*
Y-89462D01*
X-95862D01*
Y-89191D01*
X-96133D01*
Y-88920D01*
X-96404D01*
Y-88649D01*
X-96675D01*
Y-88378D01*
X-96946D01*
Y-88107D01*
X-97217D01*
Y-87565D01*
X-97488D01*
Y-87294D01*
X-97759D01*
Y-87023D01*
X-98030D01*
Y-86752D01*
X-98301D01*
Y-86481D01*
X-98572D01*
Y-86210D01*
X-98843D01*
Y-85668D01*
X-99114D01*
Y-85397D01*
X-99385D01*
Y-85126D01*
X-99656D01*
Y-84855D01*
X-99927D01*
Y-84313D01*
X-100198D01*
Y-84042D01*
X-100469D01*
Y-83771D01*
X-100740D01*
Y-83229D01*
X-101011D01*
Y-82958D01*
X-101282D01*
Y-82687D01*
X-101553D01*
Y-82416D01*
X-101824D01*
Y-81874D01*
X-102095D01*
Y-81603D01*
X-102366D01*
Y-81332D01*
X-102637D01*
Y-80790D01*
X-102908D01*
Y-80519D01*
X-103179D01*
Y-80248D01*
X-103450D01*
Y-79706D01*
X-103721D01*
Y-79435D01*
X-103992D01*
Y-78893D01*
X-104263D01*
Y-78622D01*
X-104534D01*
Y-78351D01*
X-104805D01*
Y-77809D01*
X-105076D01*
Y-77538D01*
X-105347D01*
Y-77267D01*
X-105618D01*
Y-76725D01*
X-105889D01*
Y-76453D01*
X-106160D01*
Y-75911D01*
X-106431D01*
Y-75369D01*
X-106702D01*
Y-75098D01*
X-106973D01*
Y-74556D01*
X-107244D01*
Y-74285D01*
X-107515D01*
Y-73743D01*
X-107786D01*
Y-73472D01*
X-108057D01*
Y-72930D01*
X-108329D01*
Y-72388D01*
X-108600D01*
Y-72117D01*
X-108870D01*
Y-71575D01*
X-109142D01*
Y-71033D01*
X-109412D01*
Y-70762D01*
X-109684D01*
Y-70220D01*
X-109955D01*
Y-69678D01*
X-110226D01*
Y-69407D01*
X-110497D01*
Y-68865D01*
X-110768D01*
Y-68323D01*
X-111039D01*
Y-67781D01*
X-111310D01*
Y-67239D01*
X-111581D01*
Y-66697D01*
X-111852D01*
Y-66426D01*
X-112123D01*
Y-65884D01*
X-112394D01*
Y-65342D01*
X-112665D01*
Y-64800D01*
X-112936D01*
Y-64258D01*
X-113207D01*
Y-63716D01*
X-113478D01*
Y-63174D01*
X-113749D01*
Y-62632D01*
X-114020D01*
Y-62090D01*
X-114291D01*
Y-61276D01*
X-114562D01*
Y-60734D01*
X-114833D01*
Y-60192D01*
X-115104D01*
Y-59650D01*
X-115375D01*
Y-59108D01*
X-115646D01*
Y-58295D01*
X-115917D01*
Y-57753D01*
X-116188D01*
Y-57211D01*
X-116459D01*
Y-56398D01*
X-116730D01*
Y-55856D01*
X-117001D01*
Y-55043D01*
X-117272D01*
Y-54501D01*
X-117543D01*
Y-53688D01*
X-117272D01*
Y-53417D01*
X-116730D01*
Y-53146D01*
X-116459D01*
Y-52875D01*
X-116188D01*
Y-53417D01*
X-115917D01*
Y-53959D01*
X-115646D01*
Y-54772D01*
X-115375D01*
Y-55314D01*
X-115104D01*
Y-55856D01*
X-114833D01*
Y-56669D01*
X-114562D01*
Y-57211D01*
X-114291D01*
Y-58024D01*
X-114020D01*
Y-58566D01*
X-113749D01*
Y-59108D01*
X-113478D01*
Y-59650D01*
X-113207D01*
Y-60192D01*
X-112936D01*
Y-61006D01*
X-112665D01*
Y-61547D01*
X-112394D01*
Y-62090D01*
X-112123D01*
Y-62632D01*
X-111852D01*
Y-63174D01*
X-111581D01*
Y-63716D01*
X-111310D01*
Y-64258D01*
X-111039D01*
Y-64800D01*
X-110768D01*
Y-65342D01*
X-110497D01*
Y-65884D01*
X-110226D01*
Y-66155D01*
X-109955D01*
Y-66697D01*
X-109684D01*
Y-67239D01*
X-109412D01*
Y-67781D01*
X-109142D01*
Y-68323D01*
X-108870D01*
Y-68865D01*
X-108600D01*
Y-69136D01*
X-108329D01*
Y-69678D01*
X-108057D01*
Y-70220D01*
X-107786D01*
Y-70491D01*
X-107515D01*
Y-71033D01*
X-107244D01*
Y-71575D01*
X-106973D01*
Y-71846D01*
X-106702D01*
Y-72388D01*
X-106431D01*
Y-72930D01*
X-106160D01*
Y-73201D01*
X-105889D01*
Y-73743D01*
X-105618D01*
Y-74014D01*
X-105347D01*
Y-74556D01*
X-105076D01*
Y-74827D01*
X-104805D01*
Y-75369D01*
X-104534D01*
Y-75640D01*
X-104263D01*
Y-76182D01*
X-103992D01*
Y-76453D01*
X-103721D01*
Y-76996D01*
X-103450D01*
Y-77267D01*
X-103179D01*
Y-77538D01*
X-102908D01*
Y-78080D01*
X-102637D01*
Y-78351D01*
X-102366D01*
Y-78893D01*
X-102095D01*
Y-79164D01*
X-101824D01*
Y-79435D01*
X-101553D01*
Y-79977D01*
X-101282D01*
Y-80248D01*
X-101011D01*
Y-80790D01*
X-100740D01*
Y-81061D01*
X-100469D01*
Y-81332D01*
X-100198D01*
Y-81603D01*
X-99927D01*
Y-82145D01*
X-99656D01*
Y-82416D01*
X-99385D01*
Y-82687D01*
X-99114D01*
Y-83229D01*
X-98843D01*
Y-83500D01*
X-98572D01*
Y-83771D01*
X-98301D01*
Y-84042D01*
X-98030D01*
Y-84584D01*
X-97759D01*
Y-84855D01*
X-97488D01*
Y-85126D01*
X-97217D01*
Y-85397D01*
X-96946D01*
Y-85668D01*
X-96675D01*
Y-86210D01*
X-96404D01*
Y-86481D01*
X-96133D01*
Y-86752D01*
X-95862D01*
Y-87023D01*
X-95591D01*
Y-87294D01*
X-95320D01*
Y-87565D01*
X-95049D01*
Y-88107D01*
X-94778D01*
Y-88378D01*
X-94507D01*
Y-88649D01*
X-94235D01*
Y-88920D01*
X-93965D01*
Y-89191D01*
X-93694D01*
Y-89462D01*
X-93422D01*
Y-89733D01*
X-93152D01*
Y-90004D01*
X-92880D01*
Y-90275D01*
X-92609D01*
Y-90546D01*
X-92338D01*
Y-90817D01*
X-92067D01*
Y-91088D01*
X-91796D01*
Y-91360D01*
X-91525D01*
Y-91630D01*
X-91254D01*
Y-91902D01*
X-90983D01*
Y-92172D01*
X-90712D01*
Y-92444D01*
X-90441D01*
Y-92715D01*
X-90170D01*
Y-92986D01*
X-89899D01*
Y-93257D01*
X-89628D01*
Y-93528D01*
X-89357D01*
Y-93799D01*
X-89086D01*
Y-94070D01*
X-88815D01*
Y-94341D01*
X-88544D01*
Y-94612D01*
X-88273D01*
Y-94883D01*
X-88002D01*
Y-95154D01*
X-87731D01*
Y-95425D01*
X-87460D01*
Y-95696D01*
X-87189D01*
Y-95967D01*
X-86918D01*
Y-96238D01*
X-86647D01*
Y-96509D01*
X-86105D01*
Y-96780D01*
X-85834D01*
Y-97051D01*
X-85563D01*
Y-97322D01*
X-85292D01*
Y-97593D01*
X-85021D01*
Y-97864D01*
X-84750D01*
Y-98135D01*
X-84479D01*
Y-98406D01*
X-84208D01*
Y-98677D01*
X-83666D01*
Y-98948D01*
X-83395D01*
Y-99219D01*
X-83124D01*
Y-99490D01*
X-82853D01*
Y-99761D01*
X-82582D01*
Y-100032D01*
X-82040D01*
Y-100303D01*
X-81769D01*
Y-100574D01*
X-81498D01*
Y-100845D01*
X-81227D01*
Y-101116D01*
X-80685D01*
Y-101387D01*
X-80414D01*
Y-101658D01*
X-80143D01*
Y-101929D01*
X-79872D01*
Y-102200D01*
X-79330D01*
Y-102471D01*
X-79058D01*
Y-102742D01*
X-78787D01*
Y-103013D01*
X-78246D01*
Y-103284D01*
X-77974D01*
Y-103555D01*
X-77703D01*
Y-103826D01*
X-77161D01*
Y-104097D01*
X-76890D01*
Y-104368D01*
X-76619D01*
Y-104639D01*
X-76077D01*
Y-104910D01*
X-75806D01*
Y-105181D01*
X-75264D01*
Y-105452D01*
X-74993D01*
Y-105723D01*
X-74451D01*
Y-105995D01*
X-74180D01*
Y-106265D01*
X-73638D01*
Y-106537D01*
X-73367D01*
Y-106807D01*
X-72825D01*
Y-107079D01*
X-72554D01*
Y-107350D01*
X-72012D01*
Y-107621D01*
X-71741D01*
Y-107892D01*
X-71199D01*
Y-108163D01*
X-70928D01*
Y-108434D01*
X-70386D01*
Y-108705D01*
X-69844D01*
Y-108976D01*
X-69573D01*
Y-109247D01*
X-69031D01*
Y-109518D01*
X-68760D01*
Y-109789D01*
X-68218D01*
Y-110060D01*
X-67676D01*
Y-110331D01*
X-67134D01*
Y-110602D01*
X-66863D01*
Y-110873D01*
X-66321D01*
Y-111144D01*
X-65779D01*
Y-111415D01*
X-65237D01*
Y-111686D01*
X-64695D01*
Y-111957D01*
X-64423D01*
Y-112228D01*
X-63882D01*
Y-112499D01*
X-63340D01*
Y-112770D01*
X-62797D01*
Y-113041D01*
X-62255D01*
Y-113312D01*
X-61713D01*
Y-113583D01*
X-61171D01*
Y-113854D01*
X-60629D01*
Y-114125D01*
X-60087D01*
Y-114396D01*
X-59545D01*
Y-114667D01*
X-59003D01*
Y-114938D01*
X-58190D01*
Y-115209D01*
X-57648D01*
Y-115480D01*
X-57106D01*
Y-115751D01*
X-56564D01*
Y-116022D01*
X-56022D01*
Y-116293D01*
X-55209D01*
Y-116564D01*
X-54667D01*
Y-116835D01*
X-54125D01*
Y-117106D01*
X-53312D01*
Y-117377D01*
X-52499D01*
Y-117648D01*
X-51957D01*
Y-117919D01*
X-51144D01*
Y-118190D01*
X-50331D01*
Y-118461D01*
X-49789D01*
Y-118732D01*
X-48976D01*
Y-119003D01*
X-48162D01*
Y-119274D01*
X-47349D01*
Y-119545D01*
X-46536D01*
Y-119816D01*
X-45723D01*
Y-120087D01*
X-44910D01*
Y-120358D01*
X-44097D01*
Y-120629D01*
X-43284D01*
Y-120900D01*
X-42200D01*
Y-121172D01*
X-41387D01*
Y-121442D01*
X-40303D01*
Y-121713D01*
X-39219D01*
Y-121985D01*
X-38135D01*
Y-122255D01*
X-37051D01*
Y-122527D01*
X-35967D01*
Y-122798D01*
X-34612D01*
Y-123069D01*
X-33256D01*
Y-123340D01*
X-31901D01*
Y-123611D01*
X-30546D01*
Y-123882D01*
X-28920D01*
Y-124153D01*
X-27294D01*
Y-124424D01*
X-25397D01*
Y-124695D01*
X-22958D01*
Y-124966D01*
X-20248D01*
Y-125237D01*
X-15369D01*
Y-125508D01*
X-5342D01*
Y-125237D01*
X-1276D01*
Y-124966D01*
X1163D01*
Y-124695D01*
X3331D01*
Y-124424D01*
X5499D01*
Y-124153D01*
X7125D01*
Y-123882D01*
X8751D01*
Y-123611D01*
X10377D01*
Y-123340D01*
X11732D01*
Y-123069D01*
X13088D01*
Y-122798D01*
X14172D01*
Y-122527D01*
X15256D01*
Y-122255D01*
X16340D01*
Y-121985D01*
X17424D01*
Y-121713D01*
X18508D01*
Y-121442D01*
X19321D01*
Y-121172D01*
X20405D01*
Y-120900D01*
X21218D01*
Y-120629D01*
X22302D01*
Y-120358D01*
X23115D01*
Y-120087D01*
X23928D01*
Y-119816D01*
X24741D01*
Y-119545D01*
X25554D01*
Y-119274D01*
X26367D01*
Y-119003D01*
X27181D01*
Y-118732D01*
X27994D01*
Y-118461D01*
X28807D01*
Y-118190D01*
X29349D01*
Y-117919D01*
X30162D01*
Y-117648D01*
X30704D01*
Y-117377D01*
X31517D01*
Y-117106D01*
X32059D01*
Y-116835D01*
X32872D01*
Y-116564D01*
X33414D01*
Y-116293D01*
X33956D01*
Y-116022D01*
X34498D01*
Y-115751D01*
X35311D01*
Y-115480D01*
X35853D01*
Y-115209D01*
X36395D01*
Y-114938D01*
X36937D01*
Y-114667D01*
X37479D01*
Y-114396D01*
X38021D01*
Y-114125D01*
X38563D01*
Y-113854D01*
X39105D01*
Y-113583D01*
X39647D01*
Y-113312D01*
X40189D01*
Y-113041D01*
X40731D01*
Y-112770D01*
X41273D01*
Y-112499D01*
X41816D01*
Y-112228D01*
X42358D01*
Y-111957D01*
X42900D01*
Y-111686D01*
X43442D01*
Y-111415D01*
X43713D01*
Y-111144D01*
X44255D01*
Y-110873D01*
X44797D01*
Y-110602D01*
X45339D01*
Y-110331D01*
X45610D01*
Y-110060D01*
X46152D01*
Y-109789D01*
X46694D01*
Y-109518D01*
X46965D01*
Y-109247D01*
X47507D01*
Y-108976D01*
X48049D01*
Y-108705D01*
X48320D01*
Y-108434D01*
X48862D01*
Y-108163D01*
X49133D01*
Y-107892D01*
X49675D01*
Y-107621D01*
X50217D01*
Y-107350D01*
X50488D01*
Y-107079D01*
X51030D01*
Y-106807D01*
X51301D01*
Y-106537D01*
X51843D01*
Y-106265D01*
X52114D01*
Y-105995D01*
X52656D01*
Y-105723D01*
X52927D01*
Y-105452D01*
X53469D01*
Y-105181D01*
X53740D01*
Y-104910D01*
X54011D01*
Y-104639D01*
X54553D01*
Y-104368D01*
X54824D01*
Y-104097D01*
X55366D01*
Y-103826D01*
X55637D01*
Y-103555D01*
X55908D01*
Y-103284D01*
X56451D01*
Y-103013D01*
X56722D01*
Y-102742D01*
X56993D01*
Y-102471D01*
X57535D01*
Y-102200D01*
X57806D01*
Y-101929D01*
X58077D01*
Y-101658D01*
X58348D01*
Y-101387D01*
X58890D01*
Y-101116D01*
X59161D01*
Y-100845D01*
X59432D01*
Y-100574D01*
X59703D01*
Y-100303D01*
X60245D01*
Y-100032D01*
X60516D01*
Y-99761D01*
X60787D01*
Y-99490D01*
X61058D01*
Y-99219D01*
X61329D01*
Y-98948D01*
X61871D01*
Y-98677D01*
X62142D01*
Y-98406D01*
X62413D01*
Y-98135D01*
X62684D01*
Y-97864D01*
X62955D01*
Y-97593D01*
X63226D01*
Y-97322D01*
X63768D01*
Y-97051D01*
X64039D01*
Y-96780D01*
X64310D01*
Y-96509D01*
X64581D01*
Y-96238D01*
X64852D01*
Y-95967D01*
X65123D01*
Y-95696D01*
X65394D01*
Y-95425D01*
X65665D01*
Y-95154D01*
X65936D01*
Y-94883D01*
X66207D01*
Y-94612D01*
X66478D01*
Y-94341D01*
X67020D01*
Y-94070D01*
X67291D01*
Y-93799D01*
X67562D01*
Y-93528D01*
X67833D01*
Y-93257D01*
X68104D01*
Y-92986D01*
X68375D01*
Y-92715D01*
X68646D01*
Y-92444D01*
X68917D01*
Y-92172D01*
X69188D01*
Y-91902D01*
X69459D01*
Y-91630D01*
X69730D01*
Y-91360D01*
X70001D01*
Y-91088D01*
X70272D01*
Y-90817D01*
X70543D01*
Y-90546D01*
X70814D01*
Y-90275D01*
X71086D01*
Y-89733D01*
X71357D01*
Y-89462D01*
X71627D01*
Y-89191D01*
X71898D01*
Y-88920D01*
X72169D01*
Y-88649D01*
X72441D01*
Y-88378D01*
X72712D01*
Y-88107D01*
X72983D01*
Y-87836D01*
X73254D01*
Y-87565D01*
X73525D01*
Y-87023D01*
X73796D01*
Y-86752D01*
X74067D01*
Y-86481D01*
X74338D01*
Y-86210D01*
X74609D01*
Y-85939D01*
X74880D01*
Y-85668D01*
X75151D01*
Y-85126D01*
X75422D01*
Y-84855D01*
X75693D01*
Y-84584D01*
X75964D01*
Y-84313D01*
X76235D01*
Y-84042D01*
X76506D01*
Y-83500D01*
X76777D01*
Y-83229D01*
X77048D01*
Y-82958D01*
X77319D01*
Y-82687D01*
X77590D01*
Y-82145D01*
X77861D01*
Y-81874D01*
X78132D01*
Y-81603D01*
X78403D01*
Y-81061D01*
X78674D01*
Y-80790D01*
X78945D01*
Y-80519D01*
X79216D01*
Y-79977D01*
X79487D01*
Y-79706D01*
X79758D01*
Y-79435D01*
X80029D01*
Y-78893D01*
X80300D01*
Y-78622D01*
X80571D01*
Y-78080D01*
X80842D01*
Y-77809D01*
X81113D01*
Y-77538D01*
X81384D01*
Y-76996D01*
X81655D01*
Y-76725D01*
X81926D01*
Y-76182D01*
X82197D01*
Y-75911D01*
X82468D01*
Y-75369D01*
X82739D01*
Y-75098D01*
X83010D01*
Y-74556D01*
X83281D01*
Y-74285D01*
X83552D01*
Y-73743D01*
X83823D01*
Y-73472D01*
X84094D01*
Y-72930D01*
X84365D01*
Y-72659D01*
X84636D01*
Y-72117D01*
X84907D01*
Y-71575D01*
X85178D01*
Y-71304D01*
X85449D01*
Y-70762D01*
X85720D01*
Y-70220D01*
X85991D01*
Y-69949D01*
X86263D01*
Y-69407D01*
X86533D01*
Y-68865D01*
X86805D01*
Y-68323D01*
X87076D01*
Y-68052D01*
X87346D01*
Y-67510D01*
X87618D01*
Y-66968D01*
X87889D01*
Y-66426D01*
X88160D01*
Y-65884D01*
X88431D01*
Y-65342D01*
X88702D01*
Y-64800D01*
X88973D01*
Y-64258D01*
X89244D01*
Y-63716D01*
X89515D01*
Y-63174D01*
X89786D01*
Y-62632D01*
X90057D01*
Y-62090D01*
X90328D01*
Y-61547D01*
X90599D01*
Y-61006D01*
X90870D01*
Y-60463D01*
X91141D01*
Y-59921D01*
X91412D01*
Y-59379D01*
X91683D01*
Y-58566D01*
X91954D01*
Y-58024D01*
X92225D01*
Y-57482D01*
X92496D01*
Y-56940D01*
X92767D01*
Y-56127D01*
X93038D01*
Y-55585D01*
X93309D01*
Y-54772D01*
X93580D01*
Y-54230D01*
X93851D01*
Y-53417D01*
X94122D01*
Y-52875D01*
X94393D01*
Y-52062D01*
X94664D01*
Y-51249D01*
X94935D01*
Y-50436D01*
X95206D01*
Y-49623D01*
X95477D01*
Y-49081D01*
X95748D01*
Y-48268D01*
X96019D01*
Y-47183D01*
X96290D01*
Y-46371D01*
X96561D01*
Y-45557D01*
X96832D01*
Y-44744D01*
X97103D01*
Y-43660D01*
X97374D01*
Y-42576D01*
X97645D01*
Y-41763D01*
X97916D01*
Y-40679D01*
X98187D01*
Y-39595D01*
X98458D01*
Y-38240D01*
X98729D01*
Y-37156D01*
X99000D01*
Y-35801D01*
X99271D01*
Y-34446D01*
X99542D01*
Y-33091D01*
X99813D01*
Y-31465D01*
X100084D01*
Y-29838D01*
X100355D01*
Y-27941D01*
X100626D01*
Y-25773D01*
X100897D01*
Y-23063D01*
X101168D01*
Y-19540D01*
X101440D01*
Y-6802D01*
X101168D01*
Y-2737D01*
X100897D01*
Y-26D01*
X100626D01*
Y1871D01*
X100355D01*
Y4039D01*
X100084D01*
Y5665D01*
X99813D01*
Y7291D01*
X99542D01*
Y8646D01*
X99271D01*
Y10001D01*
X99000D01*
Y11356D01*
X98729D01*
Y12440D01*
X98458D01*
Y13795D01*
X98187D01*
Y14880D01*
X97916D01*
Y15693D01*
X97645D01*
Y16777D01*
X97374D01*
Y17861D01*
X97103D01*
Y18674D01*
X96832D01*
Y19487D01*
X96561D01*
Y20571D01*
X96290D01*
Y21384D01*
X96019D01*
Y22197D01*
X95748D01*
Y23010D01*
X95477D01*
Y23823D01*
X95206D01*
Y24636D01*
X94935D01*
Y25449D01*
X94664D01*
Y26262D01*
X94393D01*
Y26804D01*
X94122D01*
Y27617D01*
X93851D01*
Y28159D01*
X93580D01*
Y28972D01*
X93309D01*
Y29515D01*
X93038D01*
Y30328D01*
X92767D01*
Y30870D01*
X92496D01*
Y31683D01*
X92225D01*
Y32225D01*
X91954D01*
Y32767D01*
X91683D01*
Y33309D01*
X91412D01*
Y34122D01*
X91141D01*
Y34664D01*
X90870D01*
Y35206D01*
X90599D01*
Y35748D01*
X90328D01*
Y36290D01*
X90057D01*
Y36832D01*
X89786D01*
Y37374D01*
X89515D01*
Y37916D01*
X89244D01*
Y38458D01*
X88973D01*
Y39000D01*
X88702D01*
Y39542D01*
X88431D01*
Y40084D01*
X88160D01*
Y40626D01*
X87889D01*
Y40897D01*
X87618D01*
Y41439D01*
X87346D01*
Y41981D01*
X87076D01*
Y42523D01*
X86805D01*
Y43065D01*
X86533D01*
Y43337D01*
X86263D01*
Y43878D01*
X85991D01*
Y44420D01*
X85720D01*
Y44692D01*
X85449D01*
Y45234D01*
X85178D01*
Y45776D01*
X84907D01*
Y46047D01*
X84636D01*
Y46589D01*
X84365D01*
Y46860D01*
X84094D01*
Y47402D01*
X83823D01*
Y47944D01*
X83552D01*
Y48215D01*
X83281D01*
Y48757D01*
X83010D01*
Y49028D01*
X82739D01*
Y49570D01*
X82468D01*
Y49841D01*
X82197D01*
Y50383D01*
X81926D01*
Y50654D01*
X81655D01*
Y51196D01*
X81384D01*
Y51467D01*
X81113D01*
Y51738D01*
X80842D01*
Y52280D01*
X80571D01*
Y52551D01*
X80300D01*
Y53093D01*
X80029D01*
Y53364D01*
X79758D01*
Y53635D01*
X79487D01*
Y54177D01*
X79216D01*
Y54448D01*
X78945D01*
Y54990D01*
X78674D01*
Y55261D01*
X78403D01*
Y55532D01*
X78132D01*
Y55803D01*
X77861D01*
Y56345D01*
X77590D01*
Y56616D01*
X77319D01*
Y56887D01*
X77048D01*
Y57158D01*
X76777D01*
Y57700D01*
X76506D01*
Y57971D01*
X76235D01*
Y58243D01*
X75964D01*
Y58513D01*
X75693D01*
Y59056D01*
X75422D01*
Y59327D01*
X75151D01*
Y59598D01*
X74880D01*
Y59869D01*
X74609D01*
Y60140D01*
X74338D01*
Y60411D01*
X74067D01*
Y60953D01*
X73796D01*
Y61224D01*
X73525D01*
Y61495D01*
X73254D01*
Y61766D01*
X72983D01*
Y62037D01*
X72712D01*
Y62308D01*
X72441D01*
Y62579D01*
X72169D01*
Y63121D01*
X71898D01*
Y63392D01*
X71627D01*
Y63663D01*
X71357D01*
Y63934D01*
X71086D01*
Y64205D01*
X70814D01*
Y64476D01*
X70543D01*
Y64747D01*
X70272D01*
Y65018D01*
X70001D01*
Y65289D01*
X69730D01*
Y65560D01*
X69459D01*
Y65831D01*
X69188D01*
Y66102D01*
X68917D01*
Y66373D01*
X68646D01*
Y66644D01*
X68375D01*
Y66915D01*
X68104D01*
Y67186D01*
X67833D01*
Y67457D01*
X67562D01*
Y67728D01*
X67291D01*
Y67999D01*
X67020D01*
Y68270D01*
X66749D01*
Y68541D01*
X66478D01*
Y68812D01*
X66207D01*
Y69083D01*
X65936D01*
Y69354D01*
X65665D01*
Y69625D01*
X65394D01*
Y69896D01*
X65123D01*
Y70167D01*
X64581D01*
Y70438D01*
X64310D01*
Y70709D01*
X64039D01*
Y70980D01*
X63768D01*
Y71251D01*
X63497D01*
Y71522D01*
X63226D01*
Y71793D01*
X62955D01*
Y72064D01*
X62684D01*
Y72335D01*
X62413D01*
Y72606D01*
X61871D01*
Y72877D01*
X61600D01*
Y73148D01*
X61329D01*
Y73419D01*
X61058D01*
Y73691D01*
X60516D01*
Y73962D01*
X60245D01*
Y74233D01*
X59974D01*
Y74503D01*
X59703D01*
Y74775D01*
X59161D01*
Y75046D01*
X58890D01*
Y75317D01*
X58619D01*
Y75588D01*
X58348D01*
Y75859D01*
X57806D01*
Y76130D01*
X57535D01*
Y76401D01*
X57263D01*
Y76672D01*
X56722D01*
Y76943D01*
X56451D01*
Y77214D01*
X56179D01*
Y77756D01*
X56451D01*
Y78027D01*
X56722D01*
Y78298D01*
X57263D01*
Y78569D01*
X57535D01*
Y78298D01*
D02*
G37*
G36*
X42358Y-129031D02*
X42629D01*
Y-129844D01*
X42900D01*
Y-130657D01*
X43171D01*
Y-131470D01*
X43442D01*
Y-132283D01*
X43713D01*
Y-133096D01*
X43984D01*
Y-133909D01*
X44255D01*
Y-134722D01*
X44526D01*
Y-135535D01*
X44797D01*
Y-136348D01*
X45068D01*
Y-137432D01*
X45339D01*
Y-138246D01*
X45610D01*
Y-139059D01*
X45881D01*
Y-139872D01*
X46152D01*
Y-140685D01*
X46423D01*
Y-141498D01*
X46694D01*
Y-142040D01*
X46152D01*
Y-142311D01*
X45339D01*
Y-142582D01*
X44255D01*
Y-142853D01*
X43713D01*
Y-142311D01*
X43442D01*
Y-142040D01*
X43171D01*
Y-141769D01*
X42900D01*
Y-141498D01*
X42629D01*
Y-141227D01*
X42358D01*
Y-140956D01*
X42087D01*
Y-140685D01*
X41816D01*
Y-140414D01*
X41544D01*
Y-140143D01*
X41273D01*
Y-139872D01*
X41002D01*
Y-139330D01*
X40731D01*
Y-139059D01*
X40460D01*
Y-138788D01*
X40189D01*
Y-138517D01*
X39918D01*
Y-138246D01*
X39647D01*
Y-137975D01*
X39376D01*
Y-137704D01*
X39105D01*
Y-137432D01*
X38834D01*
Y-137162D01*
X38563D01*
Y-136890D01*
X38292D01*
Y-136348D01*
X38021D01*
Y-136077D01*
X37750D01*
Y-135806D01*
X37479D01*
Y-135535D01*
X37208D01*
Y-136348D01*
X37479D01*
Y-137162D01*
X37750D01*
Y-137975D01*
X38021D01*
Y-138788D01*
X38292D01*
Y-139601D01*
X38563D01*
Y-140414D01*
X38834D01*
Y-141227D01*
X39105D01*
Y-142040D01*
X39376D01*
Y-142853D01*
X39647D01*
Y-143937D01*
X39918D01*
Y-144208D01*
X39376D01*
Y-144479D01*
X38563D01*
Y-144750D01*
X37750D01*
Y-145021D01*
X37208D01*
Y-144750D01*
X36937D01*
Y-143937D01*
X36666D01*
Y-143124D01*
X36395D01*
Y-142311D01*
X36124D01*
Y-141498D01*
X35853D01*
Y-140685D01*
X35582D01*
Y-139872D01*
X35311D01*
Y-139059D01*
X35040D01*
Y-138246D01*
X34769D01*
Y-137432D01*
X34498D01*
Y-136348D01*
X34227D01*
Y-135535D01*
X33956D01*
Y-134722D01*
X33685D01*
Y-133909D01*
X33414D01*
Y-133096D01*
X33143D01*
Y-132283D01*
X32872D01*
Y-131199D01*
X33685D01*
Y-130928D01*
X34769D01*
Y-130657D01*
X35853D01*
Y-131199D01*
X36124D01*
Y-131470D01*
X36395D01*
Y-131741D01*
X36666D01*
Y-132012D01*
X36937D01*
Y-132283D01*
X37208D01*
Y-132554D01*
X37479D01*
Y-132825D01*
X37750D01*
Y-133096D01*
X38021D01*
Y-133367D01*
X38292D01*
Y-133638D01*
X38563D01*
Y-134180D01*
X38834D01*
Y-134451D01*
X39105D01*
Y-134722D01*
X39376D01*
Y-134993D01*
X39647D01*
Y-135264D01*
X39918D01*
Y-135535D01*
X40189D01*
Y-135806D01*
X40460D01*
Y-136077D01*
X40731D01*
Y-136348D01*
X41002D01*
Y-136620D01*
X41273D01*
Y-137162D01*
X41544D01*
Y-137432D01*
X41816D01*
Y-137704D01*
X42087D01*
Y-137975D01*
X42358D01*
Y-137432D01*
X42087D01*
Y-136620D01*
X41816D01*
Y-135806D01*
X41544D01*
Y-134993D01*
X41273D01*
Y-134180D01*
X41002D01*
Y-133367D01*
X40731D01*
Y-132554D01*
X40460D01*
Y-131741D01*
X40189D01*
Y-130657D01*
X39918D01*
Y-129844D01*
X39647D01*
Y-129031D01*
X40460D01*
Y-128760D01*
X41273D01*
Y-128489D01*
X42087D01*
Y-128218D01*
X42358D01*
Y-129031D01*
D02*
G37*
G36*
X52927Y-124424D02*
X53198D01*
Y-124966D01*
X53469D01*
Y-125508D01*
X53740D01*
Y-125779D01*
X53469D01*
Y-126050D01*
X52927D01*
Y-126321D01*
X52385D01*
Y-126592D01*
X51843D01*
Y-126863D01*
X51030D01*
Y-127134D01*
X50488D01*
Y-127405D01*
X49946D01*
Y-127676D01*
X49404D01*
Y-127947D01*
X48862D01*
Y-128218D01*
X49133D01*
Y-128760D01*
X49404D01*
Y-129573D01*
X49675D01*
Y-130115D01*
X49946D01*
Y-130657D01*
X50217D01*
Y-131199D01*
X50488D01*
Y-130928D01*
X51030D01*
Y-130657D01*
X51572D01*
Y-130386D01*
X52385D01*
Y-130115D01*
X52927D01*
Y-129844D01*
X53469D01*
Y-129573D01*
X54011D01*
Y-129302D01*
X54553D01*
Y-129844D01*
X54824D01*
Y-130386D01*
X55095D01*
Y-131199D01*
X55366D01*
Y-131470D01*
X54824D01*
Y-131741D01*
X54282D01*
Y-132012D01*
X53740D01*
Y-132283D01*
X53198D01*
Y-132554D01*
X52656D01*
Y-132825D01*
X52114D01*
Y-133096D01*
X51301D01*
Y-133638D01*
X51572D01*
Y-134180D01*
X51843D01*
Y-134993D01*
X52114D01*
Y-135535D01*
X52385D01*
Y-136077D01*
X52656D01*
Y-136620D01*
X53469D01*
Y-136348D01*
X54011D01*
Y-136077D01*
X54553D01*
Y-135806D01*
X55095D01*
Y-135535D01*
X55908D01*
Y-135264D01*
X56451D01*
Y-134993D01*
X56993D01*
Y-134722D01*
X57535D01*
Y-134451D01*
X57806D01*
Y-134993D01*
X58077D01*
Y-135535D01*
X58348D01*
Y-136077D01*
X58619D01*
Y-136890D01*
X58077D01*
Y-137162D01*
X57263D01*
Y-137432D01*
X56722D01*
Y-137704D01*
X56179D01*
Y-137975D01*
X55637D01*
Y-138246D01*
X55095D01*
Y-138517D01*
X54553D01*
Y-138788D01*
X53740D01*
Y-139059D01*
X53198D01*
Y-139330D01*
X52656D01*
Y-139601D01*
X52114D01*
Y-139872D01*
X51572D01*
Y-140143D01*
X51030D01*
Y-139601D01*
X50759D01*
Y-138788D01*
X50488D01*
Y-138246D01*
X50217D01*
Y-137704D01*
X49946D01*
Y-137162D01*
X49675D01*
Y-136620D01*
X49404D01*
Y-135806D01*
X49133D01*
Y-135264D01*
X48862D01*
Y-134722D01*
X48591D01*
Y-134180D01*
X48320D01*
Y-133638D01*
X48049D01*
Y-132825D01*
X47778D01*
Y-132283D01*
X47507D01*
Y-131741D01*
X47236D01*
Y-131199D01*
X46965D01*
Y-130657D01*
X46694D01*
Y-129844D01*
X46423D01*
Y-129302D01*
X46152D01*
Y-128760D01*
X45881D01*
Y-128218D01*
X45610D01*
Y-127676D01*
X45339D01*
Y-126863D01*
X45881D01*
Y-126592D01*
X46694D01*
Y-126321D01*
X47236D01*
Y-126050D01*
X47778D01*
Y-125779D01*
X48320D01*
Y-125508D01*
X48862D01*
Y-125237D01*
X49404D01*
Y-124966D01*
X50217D01*
Y-124695D01*
X50759D01*
Y-124424D01*
X51301D01*
Y-124153D01*
X51843D01*
Y-123882D01*
X52385D01*
Y-123611D01*
X52927D01*
Y-124424D01*
D02*
G37*
G36*
X-9678Y-134180D02*
X-7781D01*
Y-135535D01*
X-8052D01*
Y-137162D01*
X-8323D01*
Y-139059D01*
X-8594D01*
Y-140685D01*
X-8865D01*
Y-142582D01*
X-9136D01*
Y-144208D01*
X-9407D01*
Y-145292D01*
X-9678D01*
Y-145834D01*
X-9949D01*
Y-146376D01*
X-10220D01*
Y-146647D01*
X-10491D01*
Y-146918D01*
X-10762D01*
Y-147189D01*
X-11033D01*
Y-147460D01*
X-11304D01*
Y-147731D01*
X-11846D01*
Y-148002D01*
X-14827D01*
Y-147731D01*
X-15640D01*
Y-147460D01*
X-15911D01*
Y-147189D01*
X-16453D01*
Y-146918D01*
X-16724D01*
Y-146647D01*
X-16995D01*
Y-146105D01*
X-17266D01*
Y-145563D01*
X-17537D01*
Y-143124D01*
X-16182D01*
Y-143395D01*
X-14827D01*
Y-143666D01*
X-14556D01*
Y-144208D01*
X-14827D01*
Y-144479D01*
X-14556D01*
Y-145292D01*
X-14285D01*
Y-145563D01*
X-13743D01*
Y-145834D01*
X-13472D01*
Y-145563D01*
X-12930D01*
Y-145292D01*
X-12659D01*
Y-145021D01*
X-12388D01*
Y-144479D01*
Y-144208D01*
X-12117D01*
Y-142853D01*
X-11846D01*
Y-140956D01*
X-11575D01*
Y-139330D01*
X-11304D01*
Y-137704D01*
X-11033D01*
Y-135806D01*
X-10762D01*
Y-134180D01*
X-10491D01*
Y-133909D01*
X-9678D01*
Y-134180D01*
D02*
G37*
G36*
X27723Y-133096D02*
X28536D01*
Y-133367D01*
X29078D01*
Y-133638D01*
X29349D01*
Y-133909D01*
X29620D01*
Y-134180D01*
X29891D01*
Y-134451D01*
X30162D01*
Y-134993D01*
X30433D01*
Y-135806D01*
X30704D01*
Y-137432D01*
X30975D01*
Y-137975D01*
X30704D01*
Y-139059D01*
X30433D01*
Y-139601D01*
X30162D01*
Y-140143D01*
X29891D01*
Y-140414D01*
X29620D01*
Y-141227D01*
X29891D01*
Y-141498D01*
X30162D01*
Y-142040D01*
X30433D01*
Y-142311D01*
X30704D01*
Y-142582D01*
X30975D01*
Y-143124D01*
X31246D01*
Y-143395D01*
X31517D01*
Y-143937D01*
X31788D01*
Y-144208D01*
X32059D01*
Y-144750D01*
X32330D01*
Y-145021D01*
X32601D01*
Y-145563D01*
X32872D01*
Y-145834D01*
X33143D01*
Y-146105D01*
X32330D01*
Y-146376D01*
X30975D01*
Y-146647D01*
X29891D01*
Y-146376D01*
X29620D01*
Y-145834D01*
X29349D01*
Y-145563D01*
X29078D01*
Y-145021D01*
X28807D01*
Y-144750D01*
X28536D01*
Y-144208D01*
X28265D01*
Y-143937D01*
X27994D01*
Y-143666D01*
Y-143395D01*
X27723D01*
Y-143124D01*
X27452D01*
Y-142582D01*
X27181D01*
Y-142311D01*
X26909D01*
Y-142040D01*
X25826D01*
Y-142311D01*
X25554D01*
Y-143395D01*
X25826D01*
Y-144750D01*
X26096D01*
Y-146105D01*
X26367D01*
Y-147460D01*
X25554D01*
Y-147731D01*
X24199D01*
Y-148002D01*
X23657D01*
Y-147460D01*
X23386D01*
Y-145834D01*
X23115D01*
Y-144479D01*
X22844D01*
Y-143124D01*
X22573D01*
Y-141769D01*
X22302D01*
Y-140414D01*
X22031D01*
Y-139059D01*
X21760D01*
Y-137704D01*
X21489D01*
Y-136348D01*
X21218D01*
Y-134993D01*
X20947D01*
Y-133909D01*
X21218D01*
Y-133638D01*
X22573D01*
Y-133367D01*
X23928D01*
Y-133096D01*
X25554D01*
Y-132825D01*
X27723D01*
Y-133096D01*
D02*
G37*
G36*
X17695Y-134451D02*
X17966D01*
Y-137704D01*
X18237D01*
Y-141227D01*
X18508D01*
Y-146376D01*
X18237D01*
Y-146918D01*
X17966D01*
Y-147460D01*
X17695D01*
Y-147731D01*
X17424D01*
Y-148002D01*
X17153D01*
Y-148273D01*
X16882D01*
Y-148544D01*
X16340D01*
Y-148815D01*
X15527D01*
Y-149086D01*
X11732D01*
Y-148815D01*
X11191D01*
Y-148544D01*
X10920D01*
Y-148273D01*
X10648D01*
Y-148002D01*
X10377D01*
Y-147731D01*
X10106D01*
Y-147460D01*
X9835D01*
Y-146918D01*
X9564D01*
Y-146105D01*
X9293D01*
Y-144750D01*
X9022D01*
Y-141498D01*
X8751D01*
Y-139872D01*
Y-139601D01*
Y-137975D01*
X8480D01*
Y-134993D01*
X10377D01*
Y-134722D01*
X11191D01*
Y-135264D01*
X11461D01*
Y-138517D01*
X11732D01*
Y-142040D01*
X12004D01*
Y-145021D01*
X12275D01*
Y-145834D01*
X12546D01*
Y-146376D01*
X12817D01*
Y-146647D01*
X14985D01*
Y-146376D01*
X15256D01*
Y-146105D01*
X15527D01*
Y-145563D01*
X15798D01*
Y-143666D01*
X15527D01*
Y-140414D01*
X15256D01*
Y-136890D01*
X14985D01*
Y-134451D01*
X16882D01*
Y-134180D01*
X17695D01*
Y-134451D01*
D02*
G37*
G36*
X1434Y-134993D02*
X2247D01*
Y-135264D01*
X2789D01*
Y-135535D01*
X3331D01*
Y-135806D01*
X3602D01*
Y-136077D01*
X3873D01*
Y-136348D01*
X4144D01*
Y-136890D01*
X4415D01*
Y-137162D01*
X4686D01*
Y-137704D01*
X4957D01*
Y-137975D01*
Y-138246D01*
Y-138517D01*
X5228D01*
Y-144750D01*
X4957D01*
Y-145834D01*
X4686D01*
Y-146647D01*
X4415D01*
Y-147189D01*
X4144D01*
Y-147460D01*
X3873D01*
Y-148002D01*
X3602D01*
Y-148273D01*
X3331D01*
Y-148544D01*
X2789D01*
Y-148815D01*
X2247D01*
Y-149086D01*
X1705D01*
Y-149357D01*
X-1818D01*
Y-149086D01*
X-2360D01*
Y-148815D01*
X-2903D01*
Y-148544D01*
X-3174D01*
Y-148273D01*
X-3444D01*
Y-148002D01*
X-3715D01*
Y-147731D01*
X-3986D01*
Y-147460D01*
X-4257D01*
Y-146918D01*
X-4529D01*
Y-146376D01*
X-4800D01*
Y-145563D01*
X-5071D01*
Y-139872D01*
X-4800D01*
Y-138517D01*
X-4529D01*
Y-137704D01*
X-4257D01*
Y-137162D01*
X-3986D01*
Y-136620D01*
X-3715D01*
Y-136348D01*
X-3444D01*
Y-136077D01*
X-3174D01*
Y-135806D01*
X-2903D01*
Y-135535D01*
X-2360D01*
Y-135264D01*
X-1818D01*
Y-134993D01*
X-1005D01*
Y-134722D01*
X1434D01*
Y-134993D01*
D02*
G37*
%LPC*%
G36*
X115532Y-14390D02*
X114177D01*
Y-14661D01*
X113364D01*
Y-14932D01*
X113093D01*
Y-15203D01*
X112822D01*
Y-15474D01*
X112551D01*
Y-17643D01*
X112822D01*
Y-18185D01*
X113364D01*
Y-17914D01*
X115532D01*
Y-17643D01*
X116888D01*
Y-15746D01*
X116616D01*
Y-15203D01*
X116346D01*
Y-14932D01*
X116074D01*
Y-14661D01*
X115532D01*
Y-14390D01*
D02*
G37*
G36*
X-14827Y-14932D02*
X-15098D01*
Y-15474D01*
X-15369D01*
Y-16287D01*
X-15640D01*
Y-17100D01*
X-15911D01*
Y-17914D01*
X-16182D01*
Y-18456D01*
X-16453D01*
Y-19269D01*
X-16724D01*
Y-20082D01*
X-16995D01*
Y-20895D01*
X-17266D01*
Y-21708D01*
X-17537D01*
Y-22250D01*
X-17808D01*
Y-23063D01*
X-18080D01*
Y-23876D01*
X-18350D01*
Y-24689D01*
X-18621D01*
Y-25502D01*
X-11304D01*
Y-25231D01*
X-11575D01*
Y-24418D01*
X-11846D01*
Y-23605D01*
X-12117D01*
Y-22792D01*
X-12388D01*
Y-21979D01*
X-12659D01*
Y-21708D01*
Y-21166D01*
X-12930D01*
Y-20353D01*
X-13201D01*
Y-19540D01*
X-13472D01*
Y-18727D01*
X-13743D01*
Y-17914D01*
X-14014D01*
Y-17100D01*
X-14285D01*
Y-16287D01*
X-14556D01*
Y-15474D01*
X-14827D01*
Y-14932D01*
D02*
G37*
G36*
X-40032Y-7886D02*
X-41116D01*
Y-8157D01*
X-41387D01*
Y-20624D01*
X-38948D01*
Y-20353D01*
X-38135D01*
Y-20082D01*
X-37864D01*
Y-19811D01*
X-37593D01*
Y-19540D01*
X-37322D01*
Y-19269D01*
X-37051D01*
Y-18727D01*
X-36780D01*
Y-17643D01*
X-36509D01*
Y-10867D01*
X-36780D01*
Y-9783D01*
X-37051D01*
Y-9241D01*
X-37322D01*
Y-8970D01*
X-37593D01*
Y-8699D01*
X-37864D01*
Y-8428D01*
X-38406D01*
Y-8157D01*
X-40032D01*
Y-7886D01*
D02*
G37*
G36*
X-39219Y-21437D02*
X-41387D01*
Y-26857D01*
Y-27128D01*
Y-35259D01*
X-38135D01*
Y-34988D01*
X-37593D01*
Y-34717D01*
X-37051D01*
Y-34446D01*
X-36780D01*
Y-34175D01*
X-36509D01*
Y-33904D01*
X-36238D01*
Y-33362D01*
X-35967D01*
Y-32820D01*
X-35696D01*
Y-31735D01*
X-35425D01*
Y-24689D01*
X-35696D01*
Y-23876D01*
X-35967D01*
Y-23334D01*
X-36238D01*
Y-23063D01*
X-36509D01*
Y-22792D01*
X-36780D01*
Y-22521D01*
X-37051D01*
Y-22250D01*
X-37322D01*
Y-21979D01*
X-37864D01*
Y-21708D01*
X-39219D01*
Y-21437D01*
D02*
G37*
G36*
X-70386Y-14932D02*
X-70657D01*
Y-15203D01*
X-70928D01*
Y-16016D01*
X-71199D01*
Y-16830D01*
X-71470D01*
Y-17372D01*
X-71741D01*
Y-18185D01*
X-72012D01*
Y-18998D01*
X-72283D01*
Y-19811D01*
X-72554D01*
Y-20353D01*
X-72825D01*
Y-21166D01*
X-73096D01*
Y-21979D01*
X-73367D01*
Y-22792D01*
X-73638D01*
Y-23605D01*
X-73909D01*
Y-24147D01*
X-74180D01*
Y-24960D01*
X-74451D01*
Y-25502D01*
X-67134D01*
Y-24689D01*
X-67405D01*
Y-23876D01*
X-67676D01*
Y-23063D01*
X-67947D01*
Y-22250D01*
X-68218D01*
Y-21437D01*
X-68489D01*
Y-20624D01*
X-68760D01*
Y-19811D01*
X-69031D01*
Y-18998D01*
X-69302D01*
Y-18185D01*
X-69573D01*
Y-17372D01*
X-69844D01*
Y-16559D01*
X-70115D01*
Y-15746D01*
X-70386D01*
Y-14932D01*
D02*
G37*
G36*
X15527Y-7886D02*
X14172D01*
Y-20624D01*
X16882D01*
Y-20353D01*
X17695D01*
Y-20082D01*
X18237D01*
Y-19811D01*
X18508D01*
Y-19540D01*
X18779D01*
Y-19269D01*
X19050D01*
Y-18727D01*
X19321D01*
Y-18185D01*
X19592D01*
Y-17372D01*
X19863D01*
Y-15746D01*
X20134D01*
Y-12222D01*
X19863D01*
Y-10596D01*
X19592D01*
Y-9783D01*
X19321D01*
Y-9512D01*
X19050D01*
Y-8970D01*
X18508D01*
Y-8699D01*
X18237D01*
Y-8428D01*
X17424D01*
Y-8157D01*
X15527D01*
Y-7886D01*
D02*
G37*
G36*
X117158Y-54230D02*
X112009D01*
Y-54501D01*
X112551D01*
Y-54772D01*
X113093D01*
Y-55043D01*
X113364D01*
Y-55314D01*
X113906D01*
Y-55585D01*
X114448D01*
Y-55856D01*
X114990D01*
Y-56127D01*
X115532D01*
Y-56398D01*
X116074D01*
Y-56669D01*
X116616D01*
Y-55585D01*
X116888D01*
Y-54501D01*
X117158D01*
Y-54230D01*
D02*
G37*
G36*
X26639Y-135264D02*
X25554D01*
Y-135535D01*
X24199D01*
Y-136348D01*
X24470D01*
Y-137704D01*
X24741D01*
Y-139330D01*
X25012D01*
Y-139872D01*
X25826D01*
Y-139601D01*
X26909D01*
Y-139330D01*
X27452D01*
Y-139059D01*
X27723D01*
Y-138517D01*
X27994D01*
Y-136890D01*
X27723D01*
Y-136077D01*
X27452D01*
Y-135806D01*
X27181D01*
Y-135535D01*
X26639D01*
Y-135264D01*
D02*
G37*
G36*
X892Y-137162D02*
X-734D01*
Y-137432D01*
X-1005D01*
Y-137704D01*
X-1276D01*
Y-137975D01*
X-1547D01*
Y-138517D01*
X-1818D01*
Y-139330D01*
X-2089D01*
Y-142853D01*
X-2360D01*
Y-144479D01*
X-2089D01*
Y-145834D01*
X-1818D01*
Y-146376D01*
X-1547D01*
Y-146647D01*
X-1005D01*
Y-146918D01*
X-192D01*
Y-147189D01*
X79D01*
Y-146918D01*
X1163D01*
Y-146647D01*
X1434D01*
Y-146376D01*
X1705D01*
Y-145834D01*
X1976D01*
Y-145021D01*
X2247D01*
Y-141769D01*
X2518D01*
Y-139872D01*
X2247D01*
Y-138517D01*
X1976D01*
Y-137975D01*
X1705D01*
Y-137704D01*
X1434D01*
Y-137432D01*
X892D01*
Y-137162D01*
D02*
G37*
%LPD*%
D10*
X-106380Y-153265D02*
G03*
X-132380Y-153265I-13000J-11186D01*
G01*
Y-175665D02*
G03*
X-106380Y-175665I13000J11186D01*
G01*
X2840Y-187555D02*
G03*
X-23160Y-187555I-13000J-11186D01*
G01*
Y-209955D02*
G03*
X2840Y-209955I13000J11186D01*
G01*
X120950Y-145645D02*
G03*
X94950Y-145645I-13000J-11186D01*
G01*
Y-168045D02*
G03*
X120950Y-168045I13000J11186D01*
G01*
X184450Y-56745D02*
G03*
X158450Y-56745I-13000J-11186D01*
G01*
Y-79145D02*
G03*
X184450Y-79145I13000J11186D01*
G01*
X186990Y52475D02*
G03*
X160990Y52475I-13000J-11186D01*
G01*
Y30075D02*
G03*
X186990Y30075I13000J11186D01*
G01*
X117140Y154075D02*
G03*
X91140Y154075I-13000J-11186D01*
G01*
Y131675D02*
G03*
X117140Y131675I13000J11186D01*
G01*
X-970Y190905D02*
G03*
X-26970Y190905I-13000J-11186D01*
G01*
Y168505D02*
G03*
X-970Y168505I13000J11186D01*
G01*
X-115270Y155345D02*
G03*
X-141270Y155345I-13000J-11186D01*
G01*
Y132945D02*
G03*
X-115270Y132945I13000J11186D01*
G01*
X-183850Y46125D02*
G03*
X-209850Y46125I-13000J-11186D01*
G01*
Y23725D02*
G03*
X-183850Y23725I13000J11186D01*
G01*
X-177500Y-66905D02*
G03*
X-203500Y-66905I-13000J-11186D01*
G01*
Y-89305D02*
G03*
X-177500Y-89305I13000J11186D01*
G01*
D11*
X-92630Y-164465D02*
G03*
X-92630Y-164465I-1250J0D01*
G01*
X16590Y-198755D02*
G03*
X16590Y-198755I-1250J0D01*
G01*
X134700Y-156845D02*
G03*
X134700Y-156845I-1250J0D01*
G01*
X198200Y-67945D02*
G03*
X198200Y-67945I-1250J0D01*
G01*
X200740Y41275D02*
G03*
X200740Y41275I-1250J0D01*
G01*
X130890Y142875D02*
G03*
X130890Y142875I-1250J0D01*
G01*
X12780Y179705D02*
G03*
X12780Y179705I-1250J0D01*
G01*
X-101520Y144145D02*
G03*
X-101520Y144145I-1250J0D01*
G01*
X-170100Y34925D02*
G03*
X-170100Y34925I-1250J0D01*
G01*
X-163750Y-78105D02*
G03*
X-163750Y-78105I-1250J0D01*
G01*
D12*
X-172714Y-123827D02*
Y-139062D01*
X-165096D01*
X-162557Y-136523D01*
Y-126367D01*
X-165096Y-123827D01*
X-172714D01*
X-157479Y-139062D02*
X-152400D01*
X-154940D01*
Y-123827D01*
X-157479Y-126367D01*
X-144783D02*
X-142244Y-123827D01*
X-137165D01*
X-134626Y-126367D01*
Y-136523D01*
X-137165Y-139062D01*
X-142244D01*
X-144783Y-136523D01*
Y-126367D01*
X-211074Y-32136D02*
Y-47371D01*
X-203456D01*
X-200917Y-44832D01*
Y-34675D01*
X-203456Y-32136D01*
X-211074D01*
X-195839Y-44832D02*
X-193300Y-47371D01*
X-188221D01*
X-185682Y-44832D01*
Y-34675D01*
X-188221Y-32136D01*
X-193300D01*
X-195839Y-34675D01*
Y-37214D01*
X-193300Y-39753D01*
X-185682D01*
X-198116Y83182D02*
Y67948D01*
X-190498D01*
X-187959Y70487D01*
Y80643D01*
X-190498Y83182D01*
X-198116D01*
X-182881Y80643D02*
X-180342Y83182D01*
X-175263D01*
X-172724Y80643D01*
Y78104D01*
X-175263Y75565D01*
X-172724Y73026D01*
Y70487D01*
X-175263Y67948D01*
X-180342D01*
X-182881Y70487D01*
Y73026D01*
X-180342Y75565D01*
X-182881Y78104D01*
Y80643D01*
X-180342Y75565D02*
X-175263D01*
X-102866Y177162D02*
Y161928D01*
X-95248D01*
X-92709Y164467D01*
Y174623D01*
X-95248Y177162D01*
X-102866D01*
X-87631D02*
X-77474D01*
Y174623D01*
X-87631Y164467D01*
Y161928D01*
X20324Y187323D02*
Y172087D01*
X27942D01*
X30481Y174627D01*
Y184783D01*
X27942Y187323D01*
X20324D01*
X45716D02*
X40637Y184783D01*
X35559Y179705D01*
Y174627D01*
X38098Y172087D01*
X43177D01*
X45716Y174627D01*
Y177166D01*
X43177Y179705D01*
X35559D01*
X125734Y121283D02*
Y106047D01*
X133352D01*
X135891Y108587D01*
Y118743D01*
X133352Y121283D01*
X125734D01*
X151126D02*
X140969D01*
Y113665D01*
X146047Y116204D01*
X148587D01*
X151126Y113665D01*
Y108587D01*
X148587Y106047D01*
X143508D01*
X140969Y108587D01*
X165104Y9523D02*
Y-5713D01*
X172722D01*
X175261Y-3173D01*
Y6983D01*
X172722Y9523D01*
X165104D01*
X187957Y-5713D02*
Y9523D01*
X180339Y1905D01*
X190496D01*
X146054Y-100968D02*
Y-116202D01*
X153672D01*
X156211Y-113663D01*
Y-103507D01*
X153672Y-100968D01*
X146054D01*
X161289Y-103507D02*
X163828Y-100968D01*
X168907D01*
X171446Y-103507D01*
Y-106046D01*
X168907Y-108585D01*
X166367D01*
X168907D01*
X171446Y-111124D01*
Y-113663D01*
X168907Y-116202D01*
X163828D01*
X161289Y-113663D01*
X52074Y-169548D02*
Y-184783D01*
X59692D01*
X62231Y-182243D01*
Y-172087D01*
X59692Y-169548D01*
X52074D01*
X77466Y-184783D02*
X67309D01*
X77466Y-174626D01*
Y-172087D01*
X74927Y-169548D01*
X69848D01*
X67309Y-172087D01*
X-69847Y-180977D02*
Y-196213D01*
X-62229D01*
X-59690Y-193673D01*
Y-183517D01*
X-62229Y-180977D01*
X-69847D01*
X-54612Y-196213D02*
X-49533D01*
X-52072D01*
Y-180977D01*
X-54612Y-183517D01*
M02*
